<svg xmlns="http://www.w3.org/2000/svg" version="1.1" style="font-family: 'Helvetica Neue', Helvetica, Arial, sans-serif; font-size: 18px; background-color: white; text-rendering: optimizeLegibility; -webkit-font-smoothing: antialiased;" width="850" height="600"><g class="ChartTab"><g class="HeaderView"><g opacity="0.8" transform="translate(778, 15) scale(0.27)"><a xmlns:xlink="http://www.w3.org/1999/xlink" xlink:href="https://ourworldindata.org" target="_blank"><g><rect x="0" y="0" fill="#1B2543" width="211.2" height="130.1"/><rect x="0" y="112.2" fill="#E63912" width="211.2" height="17.9"/><g><rect x="1.2" y="12.3" fill="none" width="210.2" height="99.2"/><path fill="#FFFFFF" d="M37.8,32.2c0,12.7-7.7,19.4-17.1,19.4c-9.7,0-16.6-7.5-16.6-18.7c0-11.7,7.3-19.3,17.1-19.3 C31.3,13.7,37.8,21.3,37.8,32.2z M9.2,32.8c0,7.9,4.3,14.9,11.8,14.9c7.5,0,11.8-6.9,11.8-15.3c0-7.3-3.8-14.9-11.8-14.9 C13.1,17.5,9.2,24.8,9.2,32.8z"/><path fill="#FFFFFF" d="M62.7,43.8c0,2.7,0.1,5.1,0.2,7.2h-4.3l-0.3-4.3h-0.1c-1.3,2.1-4,4.9-8.8,4.9c-4.2,0-9.1-2.3-9.1-11.6 V24.6h4.8v14.6c0,5,1.5,8.4,5.9,8.4c3.2,0,5.5-2.2,6.3-4.4c0.3-0.7,0.4-1.6,0.4-2.5V24.6h4.8V43.8z"/><path fill="#FFFFFF" d="M67.3,32.8c0-3.1-0.1-5.8-0.2-8.2h4.2l0.2,5.2h0.2c1.2-3.5,4.1-5.8,7.3-5.8c0.5,0,0.9,0.1,1.4,0.2v4.5 c-0.5-0.1-1-0.2-1.6-0.2c-3.4,0-5.8,2.6-6.5,6.2c-0.1,0.7-0.2,1.4-0.2,2.2V51h-4.8V32.8z"/><path fill="#FFFFFF" d="M95.4,51l-9.4-36.8h5l4.4,18.6c1.1,4.6,2.1,9.2,2.7,12.7h0.1c0.6-3.7,1.8-8,3-12.8l4.9-18.5h5l4.5,18.7 c1,4.4,2,8.7,2.6,12.6h0.1c0.8-4,1.8-8.1,3-12.7l4.9-18.5h4.9L120.6,51h-5L111,31.9c-1.1-4.7-1.9-8.3-2.4-12h-0.1 c-0.7,3.7-1.5,7.3-2.8,12L100.4,51H95.4z"/><path fill="#FFFFFF" d="M154.9,37.6c0,9.8-6.8,14-13.2,14c-7.2,0-12.7-5.2-12.7-13.6c0-8.8,5.8-14,13.1-14 C149.8,24,154.9,29.5,154.9,37.6z M133.9,37.9c0,5.8,3.3,10.1,8,10.1c4.6,0,8-4.3,8-10.3c0-4.5-2.2-10.1-7.9-10.1 C136.3,27.6,133.9,32.8,133.9,37.9z"/><path fill="#FFFFFF" d="M158.2,32.8c0-3.1-0.1-5.8-0.2-8.2h4.2l0.2,5.2h0.2c1.2-3.5,4.1-5.8,7.3-5.8c0.5,0,0.9,0.1,1.4,0.2v4.5 c-0.5-0.1-1-0.2-1.6-0.2c-3.4,0-5.8,2.6-6.5,6.2c-0.1,0.7-0.2,1.4-0.2,2.2V51h-4.8V32.8z"/><path fill="#FFFFFF" d="M173.5,12.3h4.8V51h-4.8V12.3z"/><path fill="#FFFFFF" d="M206.5,12.3v31.9c0,2.3,0.1,5,0.2,6.8h-4.3l-0.2-4.6H202c-1.5,2.9-4.7,5.2-9,5.2 c-6.4,0-11.3-5.4-11.3-13.4c-0.1-8.8,5.4-14.2,11.9-14.2c4,0,6.8,1.9,8,4h0.1V12.3H206.5z M201.7,35.4c0-0.6-0.1-1.4-0.2-2 c-0.7-3.1-3.3-5.6-6.9-5.6c-5,0-7.9,4.4-7.9,10.2c0,5.3,2.6,9.8,7.8,9.8c3.2,0,6.2-2.1,7.1-5.7c0.2-0.7,0.2-1.3,0.2-2.1V35.4z"/><path fill="#FFFFFF" d="M42.8,64c0.1,1.6-1.1,2.9-3.1,2.9c-1.7,0-2.9-1.3-2.9-2.9c0-1.7,1.3-3,3-3C41.7,61,42.8,62.3,42.8,64z M37.4,97.8V71.4h4.8v26.4H37.4z"/><path fill="#FFFFFF" d="M47.5,78.6c0-2.7-0.1-5-0.2-7.1h4.3l0.3,4.4h0.1c1.3-2.5,4.4-5,8.8-5c3.7,0,9.4,2.2,9.4,11.2v15.8h-4.8 V82.6c0-4.3-1.6-7.8-6.1-7.8c-3.2,0-5.6,2.2-6.5,4.9c-0.2,0.6-0.3,1.4-0.3,2.2v15.9h-4.8V78.6z"/><path fill="#FFFFFF" d="M84,61.6c2.9-0.4,6.3-0.8,10.1-0.8c6.8,0,11.7,1.6,14.9,4.6c3.3,3,5.2,7.3,5.2,13.2c0,6-1.9,10.9-5.3,14.3 c-3.4,3.4-9.1,5.3-16.3,5.3c-3.4,0-6.2-0.2-8.6-0.4V61.6z M88.8,94.1c1.2,0.2,3,0.3,4.8,0.3c10.2,0,15.7-5.7,15.7-15.6 c0.1-8.7-4.9-14.2-14.9-14.2c-2.5,0-4.3,0.2-5.6,0.5V94.1z"/><path fill="#FFFFFF" d="M132.1,97.8l-0.4-3.3h-0.2c-1.5,2.1-4.3,3.9-8.1,3.9c-5.4,0-8.1-3.8-8.1-7.6c0-6.4,5.7-9.9,15.9-9.8v-0.5 c0-2.2-0.6-6.1-6-6.1c-2.5,0-5,0.8-6.9,2l-1.1-3.2c2.2-1.4,5.4-2.3,8.7-2.3c8.1,0,10.1,5.5,10.1,10.8v9.9c0,2.3,0.1,4.5,0.4,6.3 H132.1z M131.4,84.4c-5.3-0.1-11.2,0.8-11.2,5.9c0,3.1,2.1,4.6,4.5,4.6c3.4,0,5.6-2.2,6.4-4.4c0.2-0.5,0.3-1,0.3-1.5V84.4z"/><path fill="#FFFFFF" d="M146.6,63.9v7.6h6.9v3.7h-6.9v14.2c0,3.3,0.9,5.1,3.6,5.1c1.3,0,2.2-0.2,2.8-0.3l0.2,3.6 c-0.9,0.4-2.4,0.7-4.3,0.7c-2.2,0-4-0.7-5.2-2c-1.4-1.4-1.9-3.8-1.9-6.9V75.1h-4.1v-3.7h4.1v-6.3L146.6,63.9z"/><path fill="#FFFFFF" d="M171.4,97.8l-0.4-3.3h-0.2c-1.5,2.1-4.3,3.9-8.1,3.9c-5.4,0-8.1-3.8-8.1-7.6c0-6.4,5.7-9.9,15.9-9.8v-0.5 c0-2.2-0.6-6.1-6-6.1c-2.5,0-5,0.8-6.9,2l-1.1-3.2c2.2-1.4,5.4-2.3,8.7-2.3c8.1,0,10.1,5.5,10.1,10.8v9.9c0,2.3,0.1,4.5,0.4,6.3 H171.4z M170.7,84.4c-5.3-0.1-11.2,0.8-11.2,5.9c0,3.1,2.1,4.6,4.5,4.6c3.4,0,5.6-2.2,6.4-4.4c0.2-0.5,0.3-1,0.3-1.5V84.4z"/></g></g></a></g><a href="https://ourworldindata.org/grapher/crop-yields-india" target="_blank"><text font-size="27.00" x="15.0" y="36.6" fill="#555"><tspan x="15" y="36.6">Crop yields of cereals and pulses, India</tspan></text></a></g><g class="LineChart"><defs><clipPath id="boundsClip-61"><rect x="67.99600000000001" y="0" width="830" height="973"></rect></clipPath></defs><g class="AxisBoxView"><g class="HorizontalAxis"><text x="78" y="556.5" fill="#666" text-anchor="middle" font-size="16.2">1961</text><text x="189.3" y="556.5" fill="#666" text-anchor="middle" font-size="16.2">1970</text><text x="313.1" y="556.5" fill="#666" text-anchor="middle" font-size="16.2">1980</text><text x="436.8" y="556.5" fill="#666" text-anchor="middle" font-size="16.2">1990</text><text x="560.5" y="556.5" fill="#666" text-anchor="middle" font-size="16.2">2000</text><text x="684.2" y="556.5" fill="#666" text-anchor="middle" font-size="16.2">2010</text><text x="733.7" y="556.5" fill="#666" text-anchor="middle" font-size="16.2">2014</text></g><g class="VerticalAxis"><text x="73.00" y="535.3" fill="#666" dominant-baseline="middle" text-anchor="end" font-size="16.2">0 tons</text><text x="73.00" y="472.3" fill="#666" dominant-baseline="middle" text-anchor="end" font-size="16.2">0.5 tons</text><text x="73.00" y="409.2" fill="#666" dominant-baseline="middle" text-anchor="end" font-size="16.2">1 tons</text><text x="73.00" y="346.2" fill="#666" dominant-baseline="middle" text-anchor="end" font-size="16.2">1.5 tons</text><text x="73.00" y="283.2" fill="#666" dominant-baseline="middle" text-anchor="end" font-size="16.2">2 tons</text><text x="73.00" y="220.1" fill="#666" dominant-baseline="middle" text-anchor="end" font-size="16.2">2.5 tons</text><text x="73.00" y="157.1" fill="#666" dominant-baseline="middle" text-anchor="end" font-size="16.2">3 tons</text><text x="73.00" y="94.1" fill="#666" dominant-baseline="middle" text-anchor="end" font-size="16.2">3.5 tons</text></g><g class="AxisGridLines"><line x1="78.00" y1="535.3" x2="733.68" y2="535.3" stroke="#ccc"></line><line x1="78.00" y1="472.3" x2="733.68" y2="472.3" stroke="#ddd" stroke-dasharray="3,2"></line><line x1="78.00" y1="409.2" x2="733.68" y2="409.2" stroke="#ddd" stroke-dasharray="3,2"></line><line x1="78.00" y1="346.2" x2="733.68" y2="346.2" stroke="#ddd" stroke-dasharray="3,2"></line><line x1="78.00" y1="283.2" x2="733.68" y2="283.2" stroke="#ddd" stroke-dasharray="3,2"></line><line x1="78.00" y1="220.1" x2="733.68" y2="220.1" stroke="#ddd" stroke-dasharray="3,2"></line><line x1="78.00" y1="157.1" x2="733.68" y2="157.1" stroke="#ddd" stroke-dasharray="3,2"></line><line x1="78.00" y1="94.1" x2="733.68" y2="94.1" stroke="#ddd" stroke-dasharray="3,2"></line></g><g class="AxisGridLines"><line x1="189.3" y1="535.30" x2="189.3" y2="70.00" stroke="#ddd" stroke-dasharray="3,2"></line><line x1="313.1" y1="535.30" x2="313.1" y2="70.00" stroke="#ddd" stroke-dasharray="3,2"></line><line x1="436.8" y1="535.30" x2="436.8" y2="70.00" stroke="#ddd" stroke-dasharray="3,2"></line><line x1="560.5" y1="535.30" x2="560.5" y2="70.00" stroke="#ddd" stroke-dasharray="3,2"></line><line x1="684.2" y1="535.30" x2="684.2" y2="70.00" stroke="#ddd" stroke-dasharray="3,2"></line></g></g><g clip-path="url(#boundsClip-61)"><g class="HeightedLegend clickable"><g class="legendMark"><rect x="743.68" y="76.2" width="91.32000000000001" height="14.4" fill="#fff" opacity="0"></rect><rect x="743.68" y="82.15" width="10" height="2.5" fill="#34983f"></rect><text font-size="14.40" x="758.7" y="87.7" fill="#333"><tspan x="758.68" y="87.72000000000001">Rice, paddy</tspan></text></g><g class="legendMark"><rect x="743.68" y="131.5" width="56.760000000000005" height="14.4" fill="#fff" opacity="0"></rect><rect x="743.68" y="137.45" width="10" height="2.5" fill="#ca2628"></rect><text font-size="14.40" x="758.7" y="143.0" fill="#333"><tspan x="758.68" y="143.02">Wheat</tspan></text></g><g class="legendMark"><rect x="743.68" y="445" width="58.34400000000001" height="14.4" fill="#fff" opacity="0"></rect><rect x="743.68" y="450.95" width="10" height="2.5" fill="#3360a9"></rect><text font-size="14.40" x="758.7" y="456.5" fill="#333"><tspan x="758.68" y="456.52">Pulses</tspan></text></g></g><g class="Lines"><rect x="78" y="70" width="656" height="465" fill="rgba(255,255,255,0)" opacity="0"></rect><g class="key-India_0"><path stroke="#ca2628" stroke-linecap="round" d="M78 428L90 423L103 435L115 443L128 420L140 431L152 423L165 396L177 388L189 383L202 371L214 361L227 375L239 388L251 367L264 358L276 361L288 349L301 338L313 354L325 330L338 322L350 306L363 303L375 300L387 277L400 294L412 283L424 252L437 268L449 248L462 234L474 242L486 235L499 213L511 222L523 198L536 222L548 209L561 185L573 194L585 187L598 206L610 193L622 207L635 205L647 194L660 182L672 169L684 177L697 159L709 135L721 138L734 139" fill="none" stroke-width="1.5"></path><g fill="#ca2628"><circle cx="78" cy="428" r="2"></circle><circle cx="90" cy="423" r="2"></circle><circle cx="103" cy="435" r="2"></circle><circle cx="115" cy="443" r="2"></circle><circle cx="128" cy="420" r="2"></circle><circle cx="140" cy="431" r="2"></circle><circle cx="152" cy="423" r="2"></circle><circle cx="165" cy="396" r="2"></circle><circle cx="177" cy="388" r="2"></circle><circle cx="189" cy="383" r="2"></circle><circle cx="202" cy="371" r="2"></circle><circle cx="214" cy="361" r="2"></circle><circle cx="227" cy="375" r="2"></circle><circle cx="239" cy="388" r="2"></circle><circle cx="251" cy="367" r="2"></circle><circle cx="264" cy="358" r="2"></circle><circle cx="276" cy="361" r="2"></circle><circle cx="288" cy="349" r="2"></circle><circle cx="301" cy="338" r="2"></circle><circle cx="313" cy="354" r="2"></circle><circle cx="325" cy="330" r="2"></circle><circle cx="338" cy="322" r="2"></circle><circle cx="350" cy="306" r="2"></circle><circle cx="363" cy="303" r="2"></circle><circle cx="375" cy="300" r="2"></circle><circle cx="387" cy="277" r="2"></circle><circle cx="400" cy="294" r="2"></circle><circle cx="412" cy="283" r="2"></circle><circle cx="424" cy="252" r="2"></circle><circle cx="437" cy="268" r="2"></circle><circle cx="449" cy="248" r="2"></circle><circle cx="462" cy="234" r="2"></circle><circle cx="474" cy="242" r="2"></circle><circle cx="486" cy="235" r="2"></circle><circle cx="499" cy="213" r="2"></circle><circle cx="511" cy="222" r="2"></circle><circle cx="523" cy="198" r="2"></circle><circle cx="536" cy="222" r="2"></circle><circle cx="548" cy="209" r="2"></circle><circle cx="561" cy="185" r="2"></circle><circle cx="573" cy="194" r="2"></circle><circle cx="585" cy="187" r="2"></circle><circle cx="598" cy="206" r="2"></circle><circle cx="610" cy="193" r="2"></circle><circle cx="622" cy="207" r="2"></circle><circle cx="635" cy="205" r="2"></circle><circle cx="647" cy="194" r="2"></circle><circle cx="660" cy="182" r="2"></circle><circle cx="672" cy="169" r="2"></circle><circle cx="684" cy="177" r="2"></circle><circle cx="697" cy="159" r="2"></circle><circle cx="709" cy="135" r="2"></circle><circle cx="721" cy="138" r="2"></circle><circle cx="734" cy="139" r="2"></circle></g></g><g class="key-India_1"><path stroke="#3360a9" stroke-linecap="round" d="M78 467L90 474L103 475L115 482L128 471L140 480L152 487L165 468L177 473L189 467L202 471L214 474L227 473L239 484L251 476L264 468L276 472L288 472L301 473L313 485L325 474L338 474L350 468L363 468L375 470L387 466L400 468L412 468L424 462L437 466L449 462L462 468L474 466L486 460L499 453L511 463L523 457L536 462L548 448L561 447L573 453L585 459L598 462L610 461L622 462L635 458L647 459L660 458L672 451L684 453L697 458L709 455L721 450L734 452" fill="none" stroke-width="1.5"></path><g fill="#3360a9"><circle cx="78" cy="467" r="2"></circle><circle cx="90" cy="474" r="2"></circle><circle cx="103" cy="475" r="2"></circle><circle cx="115" cy="482" r="2"></circle><circle cx="128" cy="471" r="2"></circle><circle cx="140" cy="480" r="2"></circle><circle cx="152" cy="487" r="2"></circle><circle cx="165" cy="468" r="2"></circle><circle cx="177" cy="473" r="2"></circle><circle cx="189" cy="467" r="2"></circle><circle cx="202" cy="471" r="2"></circle><circle cx="214" cy="474" r="2"></circle><circle cx="227" cy="473" r="2"></circle><circle cx="239" cy="484" r="2"></circle><circle cx="251" cy="476" r="2"></circle><circle cx="264" cy="468" r="2"></circle><circle cx="276" cy="472" r="2"></circle><circle cx="288" cy="472" r="2"></circle><circle cx="301" cy="473" r="2"></circle><circle cx="313" cy="485" r="2"></circle><circle cx="325" cy="474" r="2"></circle><circle cx="338" cy="474" r="2"></circle><circle cx="350" cy="468" r="2"></circle><circle cx="363" cy="468" r="2"></circle><circle cx="375" cy="470" r="2"></circle><circle cx="387" cy="466" r="2"></circle><circle cx="400" cy="468" r="2"></circle><circle cx="412" cy="468" r="2"></circle><circle cx="424" cy="462" r="2"></circle><circle cx="437" cy="466" r="2"></circle><circle cx="449" cy="462" r="2"></circle><circle cx="462" cy="468" r="2"></circle><circle cx="474" cy="466" r="2"></circle><circle cx="486" cy="460" r="2"></circle><circle cx="499" cy="453" r="2"></circle><circle cx="511" cy="463" r="2"></circle><circle cx="523" cy="457" r="2"></circle><circle cx="536" cy="462" r="2"></circle><circle cx="548" cy="448" r="2"></circle><circle cx="561" cy="447" r="2"></circle><circle cx="573" cy="453" r="2"></circle><circle cx="585" cy="459" r="2"></circle><circle cx="598" cy="462" r="2"></circle><circle cx="610" cy="461" r="2"></circle><circle cx="622" cy="462" r="2"></circle><circle cx="635" cy="458" r="2"></circle><circle cx="647" cy="459" r="2"></circle><circle cx="660" cy="458" r="2"></circle><circle cx="672" cy="451" r="2"></circle><circle cx="684" cy="453" r="2"></circle><circle cx="697" cy="458" r="2"></circle><circle cx="709" cy="455" r="2"></circle><circle cx="721" cy="450" r="2"></circle><circle cx="734" cy="452" r="2"></circle></g></g><g class="key-India_2"><path stroke="#34983f" stroke-linecap="round" d="M78 341L90 359L103 340L115 331L128 372L140 372L152 340L165 332L177 332L189 323L202 320L214 333L227 318L239 337L251 301L264 329L276 288L288 284L301 332L313 283L325 288L338 302L350 260L363 267L375 242L387 257L400 258L412 214L424 206L437 206L449 204L462 206L474 179L486 174L499 195L511 180L523 177L536 172L548 160L561 176L573 143L585 206L598 142L610 160L622 138L635 135L647 120L660 126L672 127L684 112L697 83L709 70L721 81L734 83" fill="none" stroke-width="1.5"></path><g fill="#34983f"><circle cx="78" cy="341" r="2"></circle><circle cx="90" cy="359" r="2"></circle><circle cx="103" cy="340" r="2"></circle><circle cx="115" cy="331" r="2"></circle><circle cx="128" cy="372" r="2"></circle><circle cx="140" cy="372" r="2"></circle><circle cx="152" cy="340" r="2"></circle><circle cx="165" cy="332" r="2"></circle><circle cx="177" cy="332" r="2"></circle><circle cx="189" cy="323" r="2"></circle><circle cx="202" cy="320" r="2"></circle><circle cx="214" cy="333" r="2"></circle><circle cx="227" cy="318" r="2"></circle><circle cx="239" cy="337" r="2"></circle><circle cx="251" cy="301" r="2"></circle><circle cx="264" cy="329" r="2"></circle><circle cx="276" cy="288" r="2"></circle><circle cx="288" cy="284" r="2"></circle><circle cx="301" cy="332" r="2"></circle><circle cx="313" cy="283" r="2"></circle><circle cx="325" cy="288" r="2"></circle><circle cx="338" cy="302" r="2"></circle><circle cx="350" cy="260" r="2"></circle><circle cx="363" cy="267" r="2"></circle><circle cx="375" cy="242" r="2"></circle><circle cx="387" cy="257" r="2"></circle><circle cx="400" cy="258" r="2"></circle><circle cx="412" cy="214" r="2"></circle><circle cx="424" cy="206" r="2"></circle><circle cx="437" cy="206" r="2"></circle><circle cx="449" cy="204" r="2"></circle><circle cx="462" cy="206" r="2"></circle><circle cx="474" cy="179" r="2"></circle><circle cx="486" cy="174" r="2"></circle><circle cx="499" cy="195" r="2"></circle><circle cx="511" cy="180" r="2"></circle><circle cx="523" cy="177" r="2"></circle><circle cx="536" cy="172" r="2"></circle><circle cx="548" cy="160" r="2"></circle><circle cx="561" cy="176" r="2"></circle><circle cx="573" cy="143" r="2"></circle><circle cx="585" cy="206" r="2"></circle><circle cx="598" cy="142" r="2"></circle><circle cx="610" cy="160" r="2"></circle><circle cx="622" cy="138" r="2"></circle><circle cx="635" cy="135" r="2"></circle><circle cx="647" cy="120" r="2"></circle><circle cx="660" cy="126" r="2"></circle><circle cx="672" cy="127" r="2"></circle><circle cx="684" cy="112" r="2"></circle><circle cx="697" cy="83" r="2"></circle><circle cx="709" cy="70" r="2"></circle><circle cx="721" cy="81" r="2"></circle><circle cx="734" cy="83" r="2"></circle></g></g></g></g></g><g style="fill: #777;" class="SourcesFooter"><g style="fill: #777;" class="clickable"><text font-size="12.60" x="15.0" y="581.6"><tspan x="15" y="581.58">Source: UN Food and Agricultural Organization (FAO)</tspan></text></g><text font-size="12.60" x="649.0" y="581.6"><tspan x="649.024" y="581.58"><a target='_blank' style='fill: #777;' href='https://ourworldindata.org'>OurWorldInData.org</a> • <a style="fill: #777;" href="http://creativecommons.org/licenses/by-sa/4.0/deed.en_US" target="_blank">CC BY-SA</a></tspan></text></g></g></svg>