<svg xmlns="http://www.w3.org/2000/svg" version="1.1" style="font-family: 'Helvetica Neue', Helvetica, Arial, sans-serif; font-size: 18px; background-color: white; text-rendering: optimizeLegibility; -webkit-font-smoothing: antialiased;" width="850" height="600"><g class="ChartTab"><g class="HeaderView"><g opacity="0.8" transform="translate(778, 15) scale(0.27)"><a xmlns:xlink="http://www.w3.org/1999/xlink" xlink:href="https://ourworldindata.org" target="_blank"><g><rect x="0" y="0" fill="#1B2543" width="211.2" height="130.1"/><rect x="0" y="112.2" fill="#E63912" width="211.2" height="17.9"/><g><rect x="1.2" y="12.3" fill="none" width="210.2" height="99.2"/><path fill="#FFFFFF" d="M37.8,32.2c0,12.7-7.7,19.4-17.1,19.4c-9.7,0-16.6-7.5-16.6-18.7c0-11.7,7.3-19.3,17.1-19.3 C31.3,13.7,37.8,21.3,37.8,32.2z M9.2,32.8c0,7.9,4.3,14.9,11.8,14.9c7.5,0,11.8-6.9,11.8-15.3c0-7.3-3.8-14.9-11.8-14.9 C13.1,17.5,9.2,24.8,9.2,32.8z"/><path fill="#FFFFFF" d="M62.7,43.8c0,2.7,0.1,5.1,0.2,7.2h-4.3l-0.3-4.3h-0.1c-1.3,2.1-4,4.9-8.8,4.9c-4.2,0-9.1-2.3-9.1-11.6 V24.6h4.8v14.6c0,5,1.5,8.4,5.9,8.4c3.2,0,5.5-2.2,6.3-4.4c0.3-0.7,0.4-1.6,0.4-2.5V24.6h4.8V43.8z"/><path fill="#FFFFFF" d="M67.3,32.8c0-3.1-0.1-5.8-0.2-8.2h4.2l0.2,5.2h0.2c1.2-3.5,4.1-5.8,7.3-5.8c0.5,0,0.9,0.1,1.4,0.2v4.5 c-0.5-0.1-1-0.2-1.6-0.2c-3.4,0-5.8,2.6-6.5,6.2c-0.1,0.7-0.2,1.4-0.2,2.2V51h-4.8V32.8z"/><path fill="#FFFFFF" d="M95.4,51l-9.4-36.8h5l4.4,18.6c1.1,4.6,2.1,9.2,2.7,12.7h0.1c0.6-3.7,1.8-8,3-12.8l4.9-18.5h5l4.5,18.7 c1,4.4,2,8.7,2.6,12.6h0.1c0.8-4,1.8-8.1,3-12.7l4.9-18.5h4.9L120.6,51h-5L111,31.9c-1.1-4.7-1.9-8.3-2.4-12h-0.1 c-0.7,3.7-1.5,7.3-2.8,12L100.4,51H95.4z"/><path fill="#FFFFFF" d="M154.9,37.6c0,9.8-6.8,14-13.2,14c-7.2,0-12.7-5.2-12.7-13.6c0-8.8,5.8-14,13.1-14 C149.8,24,154.9,29.5,154.9,37.6z M133.9,37.9c0,5.8,3.3,10.1,8,10.1c4.6,0,8-4.3,8-10.3c0-4.5-2.2-10.1-7.9-10.1 C136.3,27.6,133.9,32.8,133.9,37.9z"/><path fill="#FFFFFF" d="M158.2,32.8c0-3.1-0.1-5.8-0.2-8.2h4.2l0.2,5.2h0.2c1.2-3.5,4.1-5.8,7.3-5.8c0.5,0,0.9,0.1,1.4,0.2v4.5 c-0.5-0.1-1-0.2-1.6-0.2c-3.4,0-5.8,2.6-6.5,6.2c-0.1,0.7-0.2,1.4-0.2,2.2V51h-4.8V32.8z"/><path fill="#FFFFFF" d="M173.5,12.3h4.8V51h-4.8V12.3z"/><path fill="#FFFFFF" d="M206.5,12.3v31.9c0,2.3,0.1,5,0.2,6.8h-4.3l-0.2-4.6H202c-1.5,2.9-4.7,5.2-9,5.2 c-6.4,0-11.3-5.4-11.3-13.4c-0.1-8.8,5.4-14.2,11.9-14.2c4,0,6.8,1.9,8,4h0.1V12.3H206.5z M201.7,35.4c0-0.6-0.1-1.4-0.2-2 c-0.7-3.1-3.3-5.6-6.9-5.6c-5,0-7.9,4.4-7.9,10.2c0,5.3,2.6,9.8,7.8,9.8c3.2,0,6.2-2.1,7.1-5.7c0.2-0.7,0.2-1.3,0.2-2.1V35.4z"/><path fill="#FFFFFF" d="M42.8,64c0.1,1.6-1.1,2.9-3.1,2.9c-1.7,0-2.9-1.3-2.9-2.9c0-1.7,1.3-3,3-3C41.7,61,42.8,62.3,42.8,64z M37.4,97.8V71.4h4.8v26.4H37.4z"/><path fill="#FFFFFF" d="M47.5,78.6c0-2.7-0.1-5-0.2-7.1h4.3l0.3,4.4h0.1c1.3-2.5,4.4-5,8.8-5c3.7,0,9.4,2.2,9.4,11.2v15.8h-4.8 V82.6c0-4.3-1.6-7.8-6.1-7.8c-3.2,0-5.6,2.2-6.5,4.9c-0.2,0.6-0.3,1.4-0.3,2.2v15.9h-4.8V78.6z"/><path fill="#FFFFFF" d="M84,61.6c2.9-0.4,6.3-0.8,10.1-0.8c6.8,0,11.7,1.6,14.9,4.6c3.3,3,5.2,7.3,5.2,13.2c0,6-1.9,10.9-5.3,14.3 c-3.4,3.4-9.1,5.3-16.3,5.3c-3.4,0-6.2-0.2-8.6-0.4V61.6z M88.8,94.1c1.2,0.2,3,0.3,4.8,0.3c10.2,0,15.7-5.7,15.7-15.6 c0.1-8.7-4.9-14.2-14.9-14.2c-2.5,0-4.3,0.2-5.6,0.5V94.1z"/><path fill="#FFFFFF" d="M132.1,97.8l-0.4-3.3h-0.2c-1.5,2.1-4.3,3.9-8.1,3.9c-5.4,0-8.1-3.8-8.1-7.6c0-6.4,5.7-9.9,15.9-9.8v-0.5 c0-2.2-0.6-6.1-6-6.1c-2.5,0-5,0.8-6.9,2l-1.1-3.2c2.2-1.4,5.4-2.3,8.7-2.3c8.1,0,10.1,5.5,10.1,10.8v9.9c0,2.3,0.1,4.5,0.4,6.3 H132.1z M131.4,84.4c-5.3-0.1-11.2,0.8-11.2,5.9c0,3.1,2.1,4.6,4.5,4.6c3.4,0,5.6-2.2,6.4-4.4c0.2-0.5,0.3-1,0.3-1.5V84.4z"/><path fill="#FFFFFF" d="M146.6,63.9v7.6h6.9v3.7h-6.9v14.2c0,3.3,0.9,5.1,3.6,5.1c1.3,0,2.2-0.2,2.8-0.3l0.2,3.6 c-0.9,0.4-2.4,0.7-4.3,0.7c-2.2,0-4-0.7-5.2-2c-1.4-1.4-1.9-3.8-1.9-6.9V75.1h-4.1v-3.7h4.1v-6.3L146.6,63.9z"/><path fill="#FFFFFF" d="M171.4,97.8l-0.4-3.3h-0.2c-1.5,2.1-4.3,3.9-8.1,3.9c-5.4,0-8.1-3.8-8.1-7.6c0-6.4,5.7-9.9,15.9-9.8v-0.5 c0-2.2-0.6-6.1-6-6.1c-2.5,0-5,0.8-6.9,2l-1.1-3.2c2.2-1.4,5.4-2.3,8.7-2.3c8.1,0,10.1,5.5,10.1,10.8v9.9c0,2.3,0.1,4.5,0.4,6.3 H171.4z M170.7,84.4c-5.3-0.1-11.2,0.8-11.2,5.9c0,3.1,2.1,4.6,4.5,4.6c3.4,0,5.6-2.2,6.4-4.4c0.2-0.5,0.3-1,0.3-1.5V84.4z"/></g></g></a></g><a href="https://ourworldindata.org/grapher/edmunds-age-years-19852018-projections-to-2028" target="_blank"><text font-size="25.20" x="15.0" y="35.2" fill="#555"><tspan x="15" y="35.160000000000004">Edmund's age (years) 1985–2018 (projections to 2028)</tspan></text></a><text font-size="14.40" x="15.0" y="53.7" fill="#666"><tspan x="15" y="53.72">Age is the length of time elapsed following birth, rounded up to the nearest year.</tspan></text></g><g class="LineChart"><defs><clipPath id="boundsClip-1"><rect x="28.144000000000005" y="0" width="830" height="959.8"></rect></clipPath></defs><g class="AxisBoxView"><g class="HorizontalAxis"><text x="38.1" y="556.5" fill="#666" text-anchor="middle" font-size="16.2">1985</text><text x="115.5" y="556.5" fill="#666" text-anchor="middle" font-size="16.2">1990</text><text x="270.3" y="556.5" fill="#666" text-anchor="middle" font-size="16.2">2000</text><text x="425" y="556.5" fill="#666" text-anchor="middle" font-size="16.2">2010</text><text x="579.8" y="556.5" fill="#666" text-anchor="middle" font-size="16.2">2020</text><text x="703.6" y="556.5" fill="#666" text-anchor="middle" font-size="16.2">2028</text></g><g class="VerticalAxis"><text x="33.14" y="535.3" fill="#666" dominant-baseline="middle" text-anchor="end" font-size="16.2">0</text><text x="33.14" y="478" fill="#666" dominant-baseline="middle" text-anchor="end" font-size="16.2">5</text><text x="33.14" y="420.6" fill="#666" dominant-baseline="middle" text-anchor="end" font-size="16.2">10</text><text x="33.14" y="363.3" fill="#666" dominant-baseline="middle" text-anchor="end" font-size="16.2">15</text><text x="33.14" y="305.9" fill="#666" dominant-baseline="middle" text-anchor="end" font-size="16.2">20</text><text x="33.14" y="248.6" fill="#666" dominant-baseline="middle" text-anchor="end" font-size="16.2">25</text><text x="33.14" y="191.3" fill="#666" dominant-baseline="middle" text-anchor="end" font-size="16.2">30</text><text x="33.14" y="133.9" fill="#666" dominant-baseline="middle" text-anchor="end" font-size="16.2">35</text><text x="33.14" y="76.6" fill="#666" dominant-baseline="middle" text-anchor="end" font-size="16.2">40</text></g><g class="AxisGridLines"><line x1="38.14" y1="535.3" x2="703.61" y2="535.3" stroke="#ccc"></line><line x1="38.14" y1="478" x2="703.61" y2="478" stroke="#ddd" stroke-dasharray="3,2"></line><line x1="38.14" y1="420.6" x2="703.61" y2="420.6" stroke="#ddd" stroke-dasharray="3,2"></line><line x1="38.14" y1="363.3" x2="703.61" y2="363.3" stroke="#ddd" stroke-dasharray="3,2"></line><line x1="38.14" y1="305.9" x2="703.61" y2="305.9" stroke="#ddd" stroke-dasharray="3,2"></line><line x1="38.14" y1="248.6" x2="703.61" y2="248.6" stroke="#ddd" stroke-dasharray="3,2"></line><line x1="38.14" y1="191.3" x2="703.61" y2="191.3" stroke="#ddd" stroke-dasharray="3,2"></line><line x1="38.14" y1="133.9" x2="703.61" y2="133.9" stroke="#ddd" stroke-dasharray="3,2"></line><line x1="38.14" y1="76.6" x2="703.61" y2="76.6" stroke="#ddd" stroke-dasharray="3,2"></line></g></g><g clip-path="url(#boundsClip-1)"><g class="ComparisonLine"><defs><clipPath id="axisBounds-2"><rect x="38.144000000000005" y="76.6" width="665.466" height="458.7"></rect></clipPath></defs><path d="M38.1,-22227.7L44.8,-22232.6L51.5,-22237.5L58.1,-22242.5L64.8,-22247.4L71.4,-22252.3L78.1,-22257.3L84.7,-22262.2L91.4,-22267.1L98,-22272.1L104.7,-22277L111.3,-22281.9L118,-22286.9L124.7,-22291.8L131.3,-22296.7L138,-22301.7L144.6,-22306.6L151.3,-22311.5L157.9,-22316.4L164.6,-22321.4L171.2,-22326.3L177.9,-22331.2L184.5,-22336.2L191.2,-22341.1L197.9,-22346L204.5,-22351L211.2,-22355.9L217.8,-22360.8L224.5,-22365.8L231.1,-22370.7L237.8,-22375.6L244.4,-22380.5L251.1,-22385.5L257.7,-22390.4L264.4,-22395.3L271.1,-22400.3L277.7,-22405.2L284.4,-22410.1L291,-22415.1L297.7,-22420L304.3,-22424.9L311,-22429.9L317.6,-22434.8L324.3,-22439.7L330.9,-22444.7L337.6,-22449.6L344.3,-22454.5L350.9,-22459.4L357.6,-22464.4L364.2,-22469.3L370.9,-22474.2L377.5,-22479.2L384.2,-22484.1L390.8,-22489L397.5,-22494L404.2,-22498.9L410.8,-22503.8L417.5,-22508.8L424.1,-22513.7L430.8,-22518.6L437.4,-22523.5L444.1,-22528.5L450.7,-22533.4L457.4,-22538.3L464,-22543.3L470.7,-22548.2L477.4,-22553.1L484,-22558.1L490.7,-22563L497.3,-22567.9L504,-22572.9L510.6,-22577.8L517.3,-22582.7L523.9,-22587.7L530.6,-22592.6L537.2,-22597.5L543.9,-22602.4L550.6,-22607.4L557.2,-22612.3L563.9,-22617.2L570.5,-22622.2L577.2,-22627.1L583.8,-22632L590.5,-22637L597.1,-22641.9L603.8,-22646.8L610.4,-22651.8L617.1,-22656.7L623.8,-22661.6L630.4,-22666.5L637.1,-22671.5L643.7,-22676.4L650.4,-22681.3L657,-22686.3L663.7,-22691.2L670.3,-22696.1L677,-22701.1L683.6,-22706L690.3,-22710.9L697,-22715.9" clip-path="url(#axisBounds-2)" fill="none" stroke="#ccc"></path></g><g class="HeightedLegend clickable"><g class="legendMark"><rect x="703.61" y="69.85" width="131.39" height="13.5" fill="#fff" opacity="0"></rect><text font-size="13.50" x="708.6" y="80.6" fill="#3360a9"><tspan x="708.61" y="80.64999999999999">United Kingdom</tspan></text></g></g><g class="Lines"><rect x="38" y="77" width="665" height="459" fill="rgba(255,255,255,0)" opacity="0"></rect><g class="key-United-Kingdom_0"><path stroke="#3360a9" stroke-linecap="round" d="M38 535L54 535L69 535L85 535L100 524L116 512L131 501L147 489L162 478L177 467L193 455L208 444L224 432L239 421L255 409L270 398L286 386L301 375L317 363L332 352L348 340L363 329L379 317L394 306L410 295L425 283L441 272L456 260L472 249L487 237L502 226L518 214L533 203L549 191L564 180L580 168L595 157L611 145L626 134L642 123L657 111L673 100L688 88L704 77" fill="none" stroke-width="1.5"></path><g fill="#3360a9"><circle cx="38" cy="535" r="2"></circle><circle cx="54" cy="535" r="2"></circle><circle cx="69" cy="535" r="2"></circle><circle cx="85" cy="535" r="2"></circle><circle cx="100" cy="524" r="2"></circle><circle cx="116" cy="512" r="2"></circle><circle cx="131" cy="501" r="2"></circle><circle cx="147" cy="489" r="2"></circle><circle cx="162" cy="478" r="2"></circle><circle cx="177" cy="467" r="2"></circle><circle cx="193" cy="455" r="2"></circle><circle cx="208" cy="444" r="2"></circle><circle cx="224" cy="432" r="2"></circle><circle cx="239" cy="421" r="2"></circle><circle cx="255" cy="409" r="2"></circle><circle cx="270" cy="398" r="2"></circle><circle cx="286" cy="386" r="2"></circle><circle cx="301" cy="375" r="2"></circle><circle cx="317" cy="363" r="2"></circle><circle cx="332" cy="352" r="2"></circle><circle cx="348" cy="340" r="2"></circle><circle cx="363" cy="329" r="2"></circle><circle cx="379" cy="317" r="2"></circle><circle cx="394" cy="306" r="2"></circle><circle cx="410" cy="295" r="2"></circle><circle cx="425" cy="283" r="2"></circle><circle cx="441" cy="272" r="2"></circle><circle cx="456" cy="260" r="2"></circle><circle cx="472" cy="249" r="2"></circle><circle cx="487" cy="237" r="2"></circle><circle cx="502" cy="226" r="2"></circle><circle cx="518" cy="214" r="2"></circle><circle cx="533" cy="203" r="2"></circle><circle cx="549" cy="191" r="2"></circle><circle cx="564" cy="180" r="2"></circle><circle cx="580" cy="168" r="2"></circle><circle cx="595" cy="157" r="2"></circle><circle cx="611" cy="145" r="2"></circle><circle cx="626" cy="134" r="2"></circle><circle cx="642" cy="123" r="2"></circle><circle cx="657" cy="111" r="2"></circle><circle cx="673" cy="100" r="2"></circle><circle cx="688" cy="88" r="2"></circle><circle cx="704" cy="77" r="2"></circle></g></g></g></g></g><g style="fill: #777;" class="SourcesFooter"><g style="fill: #777;" class="clickable"><text font-size="12.60" x="15.0" y="581.6"><tspan x="15" y="581.58">Source: Facebook (2018)</tspan></text></g><text font-size="12.60" x="649.0" y="581.6"><tspan x="649.024" y="581.58"><a target='_blank' style='fill: #777;' href='https://ourworldindata.org'>OurWorldInData.org</a> • <a style="fill: #777;" href="http://creativecommons.org/licenses/by-sa/4.0/deed.en_US" target="_blank">CC BY-SA</a></tspan></text></g></g></svg>