<svg xmlns="http://www.w3.org/2000/svg" version="1.1" style="font-family: 'Helvetica Neue', Helvetica, Arial, sans-serif; font-size: 18px; background-color: white; text-rendering: optimizeLegibility; -webkit-font-smoothing: antialiased;" width="850" height="600"><g class="ChartTab"><g class="HeaderView"><g opacity="0.8" transform="translate(778, 15) scale(0.27)"><a xmlns:xlink="http://www.w3.org/1999/xlink" xlink:href="https://ourworldindata.org" target="_blank"><g><rect x="0" y="0" fill="#1B2543" width="211.2" height="130.1"/><rect x="0" y="112.2" fill="#E63912" width="211.2" height="17.9"/><g><rect x="1.2" y="12.3" fill="none" width="210.2" height="99.2"/><path fill="#FFFFFF" d="M37.8,32.2c0,12.7-7.7,19.4-17.1,19.4c-9.7,0-16.6-7.5-16.6-18.7c0-11.7,7.3-19.3,17.1-19.3 C31.3,13.7,37.8,21.3,37.8,32.2z M9.2,32.8c0,7.9,4.3,14.9,11.8,14.9c7.5,0,11.8-6.9,11.8-15.3c0-7.3-3.8-14.9-11.8-14.9 C13.1,17.5,9.2,24.8,9.2,32.8z"/><path fill="#FFFFFF" d="M62.7,43.8c0,2.7,0.1,5.1,0.2,7.2h-4.3l-0.3-4.3h-0.1c-1.3,2.1-4,4.9-8.8,4.9c-4.2,0-9.1-2.3-9.1-11.6 V24.6h4.8v14.6c0,5,1.5,8.4,5.9,8.4c3.2,0,5.5-2.2,6.3-4.4c0.3-0.7,0.4-1.6,0.4-2.5V24.6h4.8V43.8z"/><path fill="#FFFFFF" d="M67.3,32.8c0-3.1-0.1-5.8-0.2-8.2h4.2l0.2,5.2h0.2c1.2-3.5,4.1-5.8,7.3-5.8c0.5,0,0.9,0.1,1.4,0.2v4.5 c-0.5-0.1-1-0.2-1.6-0.2c-3.4,0-5.8,2.6-6.5,6.2c-0.1,0.7-0.2,1.4-0.2,2.2V51h-4.8V32.8z"/><path fill="#FFFFFF" d="M95.4,51l-9.4-36.8h5l4.4,18.6c1.1,4.6,2.1,9.2,2.7,12.7h0.1c0.6-3.7,1.8-8,3-12.8l4.9-18.5h5l4.5,18.7 c1,4.4,2,8.7,2.6,12.6h0.1c0.8-4,1.8-8.1,3-12.7l4.9-18.5h4.9L120.6,51h-5L111,31.9c-1.1-4.7-1.9-8.3-2.4-12h-0.1 c-0.7,3.7-1.5,7.3-2.8,12L100.4,51H95.4z"/><path fill="#FFFFFF" d="M154.9,37.6c0,9.8-6.8,14-13.2,14c-7.2,0-12.7-5.2-12.7-13.6c0-8.8,5.8-14,13.1-14 C149.8,24,154.9,29.5,154.9,37.6z M133.9,37.9c0,5.8,3.3,10.1,8,10.1c4.6,0,8-4.3,8-10.3c0-4.5-2.2-10.1-7.9-10.1 C136.3,27.6,133.9,32.8,133.9,37.9z"/><path fill="#FFFFFF" d="M158.2,32.8c0-3.1-0.1-5.8-0.2-8.2h4.2l0.2,5.2h0.2c1.2-3.5,4.1-5.8,7.3-5.8c0.5,0,0.9,0.1,1.4,0.2v4.5 c-0.5-0.1-1-0.2-1.6-0.2c-3.4,0-5.8,2.6-6.5,6.2c-0.1,0.7-0.2,1.4-0.2,2.2V51h-4.8V32.8z"/><path fill="#FFFFFF" d="M173.5,12.3h4.8V51h-4.8V12.3z"/><path fill="#FFFFFF" d="M206.5,12.3v31.9c0,2.3,0.1,5,0.2,6.8h-4.3l-0.2-4.6H202c-1.5,2.9-4.7,5.2-9,5.2 c-6.4,0-11.3-5.4-11.3-13.4c-0.1-8.8,5.4-14.2,11.9-14.2c4,0,6.8,1.9,8,4h0.1V12.3H206.5z M201.7,35.4c0-0.6-0.1-1.4-0.2-2 c-0.7-3.1-3.3-5.6-6.9-5.6c-5,0-7.9,4.4-7.9,10.2c0,5.3,2.6,9.8,7.8,9.8c3.2,0,6.2-2.1,7.1-5.7c0.2-0.7,0.2-1.3,0.2-2.1V35.4z"/><path fill="#FFFFFF" d="M42.8,64c0.1,1.6-1.1,2.9-3.1,2.9c-1.7,0-2.9-1.3-2.9-2.9c0-1.7,1.3-3,3-3C41.7,61,42.8,62.3,42.8,64z M37.4,97.8V71.4h4.8v26.4H37.4z"/><path fill="#FFFFFF" d="M47.5,78.6c0-2.7-0.1-5-0.2-7.1h4.3l0.3,4.4h0.1c1.3-2.5,4.4-5,8.8-5c3.7,0,9.4,2.2,9.4,11.2v15.8h-4.8 V82.6c0-4.3-1.6-7.8-6.1-7.8c-3.2,0-5.6,2.2-6.5,4.9c-0.2,0.6-0.3,1.4-0.3,2.2v15.9h-4.8V78.6z"/><path fill="#FFFFFF" d="M84,61.6c2.9-0.4,6.3-0.8,10.1-0.8c6.8,0,11.7,1.6,14.9,4.6c3.3,3,5.2,7.3,5.2,13.2c0,6-1.9,10.9-5.3,14.3 c-3.4,3.4-9.1,5.3-16.3,5.3c-3.4,0-6.2-0.2-8.6-0.4V61.6z M88.8,94.1c1.2,0.2,3,0.3,4.8,0.3c10.2,0,15.7-5.7,15.7-15.6 c0.1-8.7-4.9-14.2-14.9-14.2c-2.5,0-4.3,0.2-5.6,0.5V94.1z"/><path fill="#FFFFFF" d="M132.1,97.8l-0.4-3.3h-0.2c-1.5,2.1-4.3,3.9-8.1,3.9c-5.4,0-8.1-3.8-8.1-7.6c0-6.4,5.7-9.9,15.9-9.8v-0.5 c0-2.2-0.6-6.1-6-6.1c-2.5,0-5,0.8-6.9,2l-1.1-3.2c2.2-1.4,5.4-2.3,8.7-2.3c8.1,0,10.1,5.5,10.1,10.8v9.9c0,2.3,0.1,4.5,0.4,6.3 H132.1z M131.4,84.4c-5.3-0.1-11.2,0.8-11.2,5.9c0,3.1,2.1,4.6,4.5,4.6c3.4,0,5.6-2.2,6.4-4.4c0.2-0.5,0.3-1,0.3-1.5V84.4z"/><path fill="#FFFFFF" d="M146.6,63.9v7.6h6.9v3.7h-6.9v14.2c0,3.3,0.9,5.1,3.6,5.1c1.3,0,2.2-0.2,2.8-0.3l0.2,3.6 c-0.9,0.4-2.4,0.7-4.3,0.7c-2.2,0-4-0.7-5.2-2c-1.4-1.4-1.9-3.8-1.9-6.9V75.1h-4.1v-3.7h4.1v-6.3L146.6,63.9z"/><path fill="#FFFFFF" d="M171.4,97.8l-0.4-3.3h-0.2c-1.5,2.1-4.3,3.9-8.1,3.9c-5.4,0-8.1-3.8-8.1-7.6c0-6.4,5.7-9.9,15.9-9.8v-0.5 c0-2.2-0.6-6.1-6-6.1c-2.5,0-5,0.8-6.9,2l-1.1-3.2c2.2-1.4,5.4-2.3,8.7-2.3c8.1,0,10.1,5.5,10.1,10.8v9.9c0,2.3,0.1,4.5,0.4,6.3 H171.4z M170.7,84.4c-5.3-0.1-11.2,0.8-11.2,5.9c0,3.1,2.1,4.6,4.5,4.6c3.4,0,5.6-2.2,6.4-4.4c0.2-0.5,0.3-1,0.3-1.5V84.4z"/></g></g></a></g><a href="https://ourworldindata.org/grapher/exports-of-goods-and-services-income" target="_blank"><text font-size="27.00" x="15.0" y="36.6" fill="#555"><tspan x="15" y="36.6">Exports of goods and services by income group</tspan></text></a><text font-size="14.40" x="15.0" y="55.5" fill="#666"><tspan x="15" y="55.519999999999996">Total export value of goods and services (in constant 2010 US$) aggregated by World Bank income group. Exports of</tspan><tspan x="15" y="71.36">goods and services represent the value of all goods and other market services provided to the rest of the world. </tspan></text></g><g class="StackedArea"><defs><clipPath id="boundsClip-129"><rect x="94.034" y="0" width="820" height="925.2"></rect></clipPath></defs><g class="AxisBoxView"><g class="HorizontalAxis"><text x="94" y="556.5" fill="#666" text-anchor="middle" font-size="16.2">1965</text><text x="156.3" y="556.5" fill="#666" text-anchor="middle" font-size="16.2">1970</text><text x="280.8" y="556.5" fill="#666" text-anchor="middle" font-size="16.2">1980</text><text x="405.4" y="556.5" fill="#666" text-anchor="middle" font-size="16.2">1990</text><text x="529.9" y="556.5" fill="#666" text-anchor="middle" font-size="16.2">2000</text><text x="654.5" y="556.5" fill="#666" text-anchor="middle" font-size="16.2">2010</text><text x="729.2" y="556.5" fill="#666" text-anchor="middle" font-size="16.2">2016</text></g><g class="VerticalAxis"><text x="89.03" y="535.3" fill="#666" dominant-baseline="middle" text-anchor="end" font-size="16.2">$0</text><text x="89.03" y="488.6" fill="#666" dominant-baseline="middle" text-anchor="end" font-size="16.2">$2 trillion</text><text x="89.03" y="442" fill="#666" dominant-baseline="middle" text-anchor="end" font-size="16.2">$4 trillion</text><text x="89.03" y="395.3" fill="#666" dominant-baseline="middle" text-anchor="end" font-size="16.2">$6 trillion</text><text x="89.03" y="348.6" fill="#666" dominant-baseline="middle" text-anchor="end" font-size="16.2">$8 trillion</text><text x="89.03" y="302" fill="#666" dominant-baseline="middle" text-anchor="end" font-size="16.2">$10 trillion</text><text x="89.03" y="255.3" fill="#666" dominant-baseline="middle" text-anchor="end" font-size="16.2">$12 trillion</text><text x="89.03" y="208.7" fill="#666" dominant-baseline="middle" text-anchor="end" font-size="16.2">$14 trillion</text><text x="89.03" y="162" fill="#666" dominant-baseline="middle" text-anchor="end" font-size="16.2">$16 trillion</text><text x="89.03" y="115.3" fill="#666" dominant-baseline="middle" text-anchor="end" font-size="16.2">$18 trillion</text></g><g class="AxisGridLines"><line x1="94.03" y1="535.3" x2="729.18" y2="535.3" stroke="#ccc"></line><line x1="94.03" y1="488.6" x2="729.18" y2="488.6" stroke="#ddd" stroke-dasharray="3,2"></line><line x1="94.03" y1="442" x2="729.18" y2="442" stroke="#ddd" stroke-dasharray="3,2"></line><line x1="94.03" y1="395.3" x2="729.18" y2="395.3" stroke="#ddd" stroke-dasharray="3,2"></line><line x1="94.03" y1="348.6" x2="729.18" y2="348.6" stroke="#ddd" stroke-dasharray="3,2"></line><line x1="94.03" y1="302" x2="729.18" y2="302" stroke="#ddd" stroke-dasharray="3,2"></line><line x1="94.03" y1="255.3" x2="729.18" y2="255.3" stroke="#ddd" stroke-dasharray="3,2"></line><line x1="94.03" y1="208.7" x2="729.18" y2="208.7" stroke="#ddd" stroke-dasharray="3,2"></line><line x1="94.03" y1="162" x2="729.18" y2="162" stroke="#ddd" stroke-dasharray="3,2"></line><line x1="94.03" y1="115.3" x2="729.18" y2="115.3" stroke="#ddd" stroke-dasharray="3,2"></line></g><g class="AxisGridLines"><line x1="156.3" y1="535.30" x2="156.3" y2="93.90" stroke="#ddd" stroke-dasharray="3,2"></line><line x1="280.8" y1="535.30" x2="280.8" y2="93.90" stroke="#ddd" stroke-dasharray="3,2"></line><line x1="405.4" y1="535.30" x2="405.4" y2="93.90" stroke="#ddd" stroke-dasharray="3,2"></line><line x1="529.9" y1="535.30" x2="529.9" y2="93.90" stroke="#ddd" stroke-dasharray="3,2"></line><line x1="654.5" y1="535.30" x2="654.5" y2="93.90" stroke="#ddd" stroke-dasharray="3,2"></line></g></g><g clip-path="url(#boundsClip-129)"><g class="HeightedLegend clickable"><g class="legendMark"><rect x="734.1759999999999" y="101.5" width="92.04" height="14.4" fill="#fff" opacity="0"></rect><rect x="734.1759999999999" y="107.45" width="10" height="2.5" fill="#34983f"></rect><text font-size="14.40" x="749.2" y="113.0" fill="#333"><tspan x="749.1759999999999" y="113.02000000000001">Low income</tspan></text></g><g class="legendMark"><rect x="734.1759999999999" y="115.9" width="100.82400000000001" height="29.900000000000002" fill="#fff" opacity="0"></rect><rect x="734.1759999999999" y="129.6" width="10" height="2.5" fill="#ffd53e"></rect><text font-size="14.40" x="749.2" y="127.4" fill="#333"><tspan x="749.1759999999999" y="127.42000000000002">Lower middle</tspan><tspan x="749.1759999999999" y="143.26000000000002">income</tspan></text></g><g class="legendMark"><rect x="734.1759999999999" y="145.8" width="100.82400000000001" height="29.900000000000002" fill="#fff" opacity="0"></rect><rect x="734.1759999999999" y="159.5" width="10" height="2.5" fill="#ca2628"></rect><text font-size="14.40" x="749.2" y="157.3" fill="#333"><tspan x="749.1759999999999" y="157.32000000000002">Upper middle</tspan><tspan x="749.1759999999999" y="173.16000000000003">income</tspan></text></g><g class="legendMark"><rect x="734.1759999999999" y="334.6" width="95.20800000000001" height="14.4" fill="#fff" opacity="0"></rect><rect x="734.1759999999999" y="340.55" width="10" height="2.5" fill="#3360a9"></rect><text font-size="14.40" x="749.2" y="346.1" fill="#333"><tspan x="749.1759999999999" y="346.12">High income</tspan></text></g></g><g class="Areas"><rect x="94.034" y="93.9" width="635.1419999999999" height="441.4000000000001" opacity="0" fill="rgba(255,255,255,0)"></rect><path stroke-linecap="round" d="M94 535.3L106.5 535.3L118.9 535.3L131.4 535.3L143.8 535.3L156.3 499.6L168.8 497.4L181.2 494.5L193.7 489.9L206.1 487L218.6 488.4L231 484L243.5 480.8L255.9 477.5L268.4 473.5L280.8 470.7L293.3 467.6L305.7 467.8L318.2 465.8L330.7 459.2L343.1 455.6L355.6 453.4L368 448.9L380.5 441.7L392.9 434.4L405.4 427.7L417.8 422.2L430.3 416.3L442.7 412.4L455.2 401.5L467.6 389.4L480.1 380.5L492.6 364.1L505 356.1L517.5 346.8L529.9 324.2L542.4 323.4L554.8 319L567.3 311.1L579.7 289.4L592.2 273.9L604.6 251.6L617.1 232.2L629.5 225L642 258.1L654.5 225.4L666.9 205.1L679.4 195.9L691.8 185.4L704.3 172L716.7 158.6L729.2 148.3L729.1759999999999 535.3000000000001L94.034 535.3000000000001" fill="#3360a9" fill-opacity="0.7" class="High-income_0-area"></path><path stroke-linecap="round" d="M94 535.3L106.5 535.3L118.9 535.3L131.4 535.3L143.8 535.3L156.3 499.6L168.8 497.4L181.2 494.5L193.7 489.9L206.1 487L218.6 488.4L231 484L243.5 480.8L255.9 477.5L268.4 473.5L280.8 470.7L293.3 467.6L305.7 467.8L318.2 465.8L330.7 459.2L343.1 455.6L355.6 453.4L368 448.9L380.5 441.7L392.9 434.4L405.4 427.7L417.8 422.2L430.3 416.3L442.7 412.4L455.2 401.5L467.6 389.4L480.1 380.5L492.6 364.1L505 356.1L517.5 346.8L529.9 324.2L542.4 323.4L554.8 319L567.3 311.1L579.7 289.4L592.2 273.9L604.6 251.6L617.1 232.2L629.5 225L642 258.1L654.5 125L666.9 205.1L679.4 195.9L691.8 185.4L704.3 172L716.7 158.6L729.2 148.3L729.2 148.3L716.7 158.6L704.3 172L691.8 185.4L679.4 195.9L666.9 205.1L654.5 225.4L642 258.1L629.5 225L617.1 232.2L604.6 251.6L592.2 273.9L579.7 289.4L567.3 311.1L554.8 319L542.4 323.4L529.9 324.2L517.5 346.8L505 356.1L492.6 364.1L480.1 380.5L467.6 389.4L455.2 401.5L442.7 412.4L430.3 416.3L417.8 422.2L405.4 427.7L392.9 434.4L380.5 441.7L368 448.9L355.6 453.4L343.1 455.6L330.7 459.2L318.2 465.8L305.7 467.8L293.3 467.6L280.8 470.7L268.4 473.5L255.9 477.5L243.5 480.8L231 484L218.6 488.4L206.1 487L193.7 489.9L181.2 494.5L168.8 497.4L156.3 499.6L143.8 535.3L131.4 535.3L118.9 535.3L106.5 535.3L94 535.3" fill="#ca2628" fill-opacity="0.7" class="Upper-middle-income_0-area"></path><path stroke-linecap="round" d="M94 532.9L106.5 532.7L118.9 532.7L131.4 532.6L143.8 532.4L156.3 496.4L168.8 494L181.2 490.7L193.7 485.6L206.1 482.7L218.6 484.1L231 479.2L243.5 475.6L255.9 472L268.4 467.6L280.8 464.5L293.3 461.4L305.7 462L318.2 459.9L330.7 452.9L343.1 449.5L355.6 447L368 442L380.5 434.3L392.9 426.2L405.4 419.1L417.8 413.5L430.3 408.5L442.7 404.3L455.2 392.6L467.6 379.8L480.1 370.2L492.6 353.1L505 344.7L517.5 335.7L529.9 311.3L542.4 310.4L554.8 305L567.3 295.6L579.7 271.3L592.2 253.4L604.6 227.9L617.1 207.2L629.5 197.2L642 232.7L654.5 95.5L666.9 171.9L679.4 161.4L691.8 149.5L704.3 134.7L716.7 121.4L729.2 109.8L729.2 148.3L716.7 158.6L704.3 172L691.8 185.4L679.4 195.9L666.9 205.1L654.5 125L642 258.1L629.5 225L617.1 232.2L604.6 251.6L592.2 273.9L579.7 289.4L567.3 311.1L554.8 319L542.4 323.4L529.9 324.2L517.5 346.8L505 356.1L492.6 364.1L480.1 380.5L467.6 389.4L455.2 401.5L442.7 412.4L430.3 416.3L417.8 422.2L405.4 427.7L392.9 434.4L380.5 441.7L368 448.9L355.6 453.4L343.1 455.6L330.7 459.2L318.2 465.8L305.7 467.8L293.3 467.6L280.8 470.7L268.4 473.5L255.9 477.5L243.5 480.8L231 484L218.6 488.4L206.1 487L193.7 489.9L181.2 494.5L168.8 497.4L156.3 499.6L143.8 535.3L131.4 535.3L118.9 535.3L106.5 535.3L94 535.3" fill="#ffd53e" fill-opacity="0.7" class="Lower-middle-income_0-area"></path><path stroke-linecap="round" d="M94 532.9L106.5 532.7L118.9 532.7L131.4 532.6L143.8 532.4L156.3 496.4L168.8 494L181.2 490.7L193.7 485.6L206.1 482.7L218.6 484.1L231 479.2L243.5 475.6L255.9 472L268.4 467.6L280.8 464.5L293.3 461.4L305.7 462L318.2 459.9L330.7 452.9L343.1 449.5L355.6 447L368 442L380.5 434.3L392.9 426.2L405.4 419.1L417.8 413.5L430.3 408.5L442.7 404.3L455.2 392.6L467.6 379.8L480.1 370.2L492.6 353.1L505 344.7L517.5 335.7L529.9 311.3L542.4 309.5L554.8 304L567.3 294.5L579.7 270.2L592.2 252.3L604.6 226.7L617.1 205.8L629.5 195.7L642 231.3L654.5 93.9L666.9 170.2L679.4 159.7L691.8 147.7L704.3 132.6L716.7 119.3L729.2 107.6L729.2 109.8L716.7 121.4L704.3 134.7L691.8 149.5L679.4 161.4L666.9 171.9L654.5 95.5L642 232.7L629.5 197.2L617.1 207.2L604.6 227.9L592.2 253.4L579.7 271.3L567.3 295.6L554.8 305L542.4 310.4L529.9 311.3L517.5 335.7L505 344.7L492.6 353.1L480.1 370.2L467.6 379.8L455.2 392.6L442.7 404.3L430.3 408.5L417.8 413.5L405.4 419.1L392.9 426.2L380.5 434.3L368 442L355.6 447L343.1 449.5L330.7 452.9L318.2 459.9L305.7 462L293.3 461.4L280.8 464.5L268.4 467.6L255.9 472L243.5 475.6L231 479.2L218.6 484.1L206.1 482.7L193.7 485.6L181.2 490.7L168.8 494L156.3 496.4L143.8 532.4L131.4 532.6L118.9 532.7L106.5 532.7L94 532.9" fill="#34983f" fill-opacity="0.7" class="Low-income_0-area"></path><path stroke-linecap="round" d="M94 535.3L106.5 535.3L118.9 535.3L131.4 535.3L143.8 535.3L156.3 499.6L168.8 497.4L181.2 494.5L193.7 489.9L206.1 487L218.6 488.4L231 484L243.5 480.8L255.9 477.5L268.4 473.5L280.8 470.7L293.3 467.6L305.7 467.8L318.2 465.8L330.7 459.2L343.1 455.6L355.6 453.4L368 448.9L380.5 441.7L392.9 434.4L405.4 427.7L417.8 422.2L430.3 416.3L442.7 412.4L455.2 401.5L467.6 389.4L480.1 380.5L492.6 364.1L505 356.1L517.5 346.8L529.9 324.2L542.4 323.4L554.8 319L567.3 311.1L579.7 289.4L592.2 273.9L604.6 251.6L617.1 232.2L629.5 225L642 258.1L654.5 225.4L666.9 205.1L679.4 195.9L691.8 185.4L704.3 172L716.7 158.6L729.2 148.3" stroke="rgb(43, 80, 141)" stroke-opacity="0.7" stroke-width="0.5" fill="none" class="High-income_0-border"></path><path stroke-linecap="round" d="M94 535.3L106.5 535.3L118.9 535.3L131.4 535.3L143.8 535.3L156.3 499.6L168.8 497.4L181.2 494.5L193.7 489.9L206.1 487L218.6 488.4L231 484L243.5 480.8L255.9 477.5L268.4 473.5L280.8 470.7L293.3 467.6L305.7 467.8L318.2 465.8L330.7 459.2L343.1 455.6L355.6 453.4L368 448.9L380.5 441.7L392.9 434.4L405.4 427.7L417.8 422.2L430.3 416.3L442.7 412.4L455.2 401.5L467.6 389.4L480.1 380.5L492.6 364.1L505 356.1L517.5 346.8L529.9 324.2L542.4 323.4L554.8 319L567.3 311.1L579.7 289.4L592.2 273.9L604.6 251.6L617.1 232.2L629.5 225L642 258.1L654.5 125L666.9 205.1L679.4 195.9L691.8 185.4L704.3 172L716.7 158.6L729.2 148.3" stroke="rgb(169, 32, 33)" stroke-opacity="0.7" stroke-width="0.5" fill="none" class="Upper-middle-income_0-border"></path><path stroke-linecap="round" d="M94 532.9L106.5 532.7L118.9 532.7L131.4 532.6L143.8 532.4L156.3 496.4L168.8 494L181.2 490.7L193.7 485.6L206.1 482.7L218.6 484.1L231 479.2L243.5 475.6L255.9 472L268.4 467.6L280.8 464.5L293.3 461.4L305.7 462L318.2 459.9L330.7 452.9L343.1 449.5L355.6 447L368 442L380.5 434.3L392.9 426.2L405.4 419.1L417.8 413.5L430.3 408.5L442.7 404.3L455.2 392.6L467.6 379.8L480.1 370.2L492.6 353.1L505 344.7L517.5 335.7L529.9 311.3L542.4 310.4L554.8 305L567.3 295.6L579.7 271.3L592.2 253.4L604.6 227.9L617.1 207.2L629.5 197.2L642 232.7L654.5 95.5L666.9 171.9L679.4 161.4L691.8 149.5L704.3 134.7L716.7 121.4L729.2 109.8" stroke="rgb(213, 178, 52)" stroke-opacity="0.7" stroke-width="0.5" fill="none" class="Lower-middle-income_0-border"></path><path stroke-linecap="round" d="M94 532.9L106.5 532.7L118.9 532.7L131.4 532.6L143.8 532.4L156.3 496.4L168.8 494L181.2 490.7L193.7 485.6L206.1 482.7L218.6 484.1L231 479.2L243.5 475.6L255.9 472L268.4 467.6L280.8 464.5L293.3 461.4L305.7 462L318.2 459.9L330.7 452.9L343.1 449.5L355.6 447L368 442L380.5 434.3L392.9 426.2L405.4 419.1L417.8 413.5L430.3 408.5L442.7 404.3L455.2 392.6L467.6 379.8L480.1 370.2L492.6 353.1L505 344.7L517.5 335.7L529.9 311.3L542.4 309.5L554.8 304L567.3 294.5L579.7 270.2L592.2 252.3L604.6 226.7L617.1 205.8L629.5 195.7L642 231.3L654.5 93.9L666.9 170.2L679.4 159.7L691.8 147.7L704.3 132.6L716.7 119.3L729.2 107.6" stroke="rgb(44, 127, 53)" stroke-opacity="0.7" stroke-width="0.5" fill="none" class="Low-income_0-border"></path></g></g></g><g style="fill: #777;" class="SourcesFooter"><g style="fill: #777;" class="clickable"><text font-size="12.60" x="15.0" y="581.6"><tspan x="15" y="581.58">Source: World Bank – WDI</tspan></text></g><text font-size="12.60" x="649.0" y="581.6"><tspan x="649.024" y="581.58"><a target='_blank' style='fill: #777;' href='https://ourworldindata.org'>OurWorldInData.org</a> • <a style="fill: #777;" href="http://creativecommons.org/licenses/by-sa/4.0/deed.en_US" target="_blank">CC BY-SA</a></tspan></text></g></g></svg>