<svg xmlns="http://www.w3.org/2000/svg" version="1.1" style="font-family: 'Helvetica Neue', Helvetica, Arial, sans-serif; font-size: 18px; background-color: white; text-rendering: optimizeLegibility; -webkit-font-smoothing: antialiased;" width="850" height="600"><g class="ChartTab"><g class="HeaderView"><g opacity="0.8" transform="translate(778, 15) scale(0.27)"><a xmlns:xlink="http://www.w3.org/1999/xlink" xlink:href="https://ourworldindata.org" target="_blank"><g><rect x="0" y="0" fill="#1B2543" width="211.2" height="130.1"/><rect x="0" y="112.2" fill="#E63912" width="211.2" height="17.9"/><g><rect x="1.2" y="12.3" fill="none" width="210.2" height="99.2"/><path fill="#FFFFFF" d="M37.8,32.2c0,12.7-7.7,19.4-17.1,19.4c-9.7,0-16.6-7.5-16.6-18.7c0-11.7,7.3-19.3,17.1-19.3 C31.3,13.7,37.8,21.3,37.8,32.2z M9.2,32.8c0,7.9,4.3,14.9,11.8,14.9c7.5,0,11.8-6.9,11.8-15.3c0-7.3-3.8-14.9-11.8-14.9 C13.1,17.5,9.2,24.8,9.2,32.8z"/><path fill="#FFFFFF" d="M62.7,43.8c0,2.7,0.1,5.1,0.2,7.2h-4.3l-0.3-4.3h-0.1c-1.3,2.1-4,4.9-8.8,4.9c-4.2,0-9.1-2.3-9.1-11.6 V24.6h4.8v14.6c0,5,1.5,8.4,5.9,8.4c3.2,0,5.5-2.2,6.3-4.4c0.3-0.7,0.4-1.6,0.4-2.5V24.6h4.8V43.8z"/><path fill="#FFFFFF" d="M67.3,32.8c0-3.1-0.1-5.8-0.2-8.2h4.2l0.2,5.2h0.2c1.2-3.5,4.1-5.8,7.3-5.8c0.5,0,0.9,0.1,1.4,0.2v4.5 c-0.5-0.1-1-0.2-1.6-0.2c-3.4,0-5.8,2.6-6.5,6.2c-0.1,0.7-0.2,1.4-0.2,2.2V51h-4.8V32.8z"/><path fill="#FFFFFF" d="M95.4,51l-9.4-36.8h5l4.4,18.6c1.1,4.6,2.1,9.2,2.7,12.7h0.1c0.6-3.7,1.8-8,3-12.8l4.9-18.5h5l4.5,18.7 c1,4.4,2,8.7,2.6,12.6h0.1c0.8-4,1.8-8.1,3-12.7l4.9-18.5h4.9L120.6,51h-5L111,31.9c-1.1-4.7-1.9-8.3-2.4-12h-0.1 c-0.7,3.7-1.5,7.3-2.8,12L100.4,51H95.4z"/><path fill="#FFFFFF" d="M154.9,37.6c0,9.8-6.8,14-13.2,14c-7.2,0-12.7-5.2-12.7-13.6c0-8.8,5.8-14,13.1-14 C149.8,24,154.9,29.5,154.9,37.6z M133.9,37.9c0,5.8,3.3,10.1,8,10.1c4.6,0,8-4.3,8-10.3c0-4.5-2.2-10.1-7.9-10.1 C136.3,27.6,133.9,32.8,133.9,37.9z"/><path fill="#FFFFFF" d="M158.2,32.8c0-3.1-0.1-5.8-0.2-8.2h4.2l0.2,5.2h0.2c1.2-3.5,4.1-5.8,7.3-5.8c0.5,0,0.9,0.1,1.4,0.2v4.5 c-0.5-0.1-1-0.2-1.6-0.2c-3.4,0-5.8,2.6-6.5,6.2c-0.1,0.7-0.2,1.4-0.2,2.2V51h-4.8V32.8z"/><path fill="#FFFFFF" d="M173.5,12.3h4.8V51h-4.8V12.3z"/><path fill="#FFFFFF" d="M206.5,12.3v31.9c0,2.3,0.1,5,0.2,6.8h-4.3l-0.2-4.6H202c-1.5,2.9-4.7,5.2-9,5.2 c-6.4,0-11.3-5.4-11.3-13.4c-0.1-8.8,5.4-14.2,11.9-14.2c4,0,6.8,1.9,8,4h0.1V12.3H206.5z M201.7,35.4c0-0.6-0.1-1.4-0.2-2 c-0.7-3.1-3.3-5.6-6.9-5.6c-5,0-7.9,4.4-7.9,10.2c0,5.3,2.6,9.8,7.8,9.8c3.2,0,6.2-2.1,7.1-5.7c0.2-0.7,0.2-1.3,0.2-2.1V35.4z"/><path fill="#FFFFFF" d="M42.8,64c0.1,1.6-1.1,2.9-3.1,2.9c-1.7,0-2.9-1.3-2.9-2.9c0-1.7,1.3-3,3-3C41.7,61,42.8,62.3,42.8,64z M37.4,97.8V71.4h4.8v26.4H37.4z"/><path fill="#FFFFFF" d="M47.5,78.6c0-2.7-0.1-5-0.2-7.1h4.3l0.3,4.4h0.1c1.3-2.5,4.4-5,8.8-5c3.7,0,9.4,2.2,9.4,11.2v15.8h-4.8 V82.6c0-4.3-1.6-7.8-6.1-7.8c-3.2,0-5.6,2.2-6.5,4.9c-0.2,0.6-0.3,1.4-0.3,2.2v15.9h-4.8V78.6z"/><path fill="#FFFFFF" d="M84,61.6c2.9-0.4,6.3-0.8,10.1-0.8c6.8,0,11.7,1.6,14.9,4.6c3.3,3,5.2,7.3,5.2,13.2c0,6-1.9,10.9-5.3,14.3 c-3.4,3.4-9.1,5.3-16.3,5.3c-3.4,0-6.2-0.2-8.6-0.4V61.6z M88.8,94.1c1.2,0.2,3,0.3,4.8,0.3c10.2,0,15.7-5.7,15.7-15.6 c0.1-8.7-4.9-14.2-14.9-14.2c-2.5,0-4.3,0.2-5.6,0.5V94.1z"/><path fill="#FFFFFF" d="M132.1,97.8l-0.4-3.3h-0.2c-1.5,2.1-4.3,3.9-8.1,3.9c-5.4,0-8.1-3.8-8.1-7.6c0-6.4,5.7-9.9,15.9-9.8v-0.5 c0-2.2-0.6-6.1-6-6.1c-2.5,0-5,0.8-6.9,2l-1.1-3.2c2.2-1.4,5.4-2.3,8.7-2.3c8.1,0,10.1,5.5,10.1,10.8v9.9c0,2.3,0.1,4.5,0.4,6.3 H132.1z M131.4,84.4c-5.3-0.1-11.2,0.8-11.2,5.9c0,3.1,2.1,4.6,4.5,4.6c3.4,0,5.6-2.2,6.4-4.4c0.2-0.5,0.3-1,0.3-1.5V84.4z"/><path fill="#FFFFFF" d="M146.6,63.9v7.6h6.9v3.7h-6.9v14.2c0,3.3,0.9,5.1,3.6,5.1c1.3,0,2.2-0.2,2.8-0.3l0.2,3.6 c-0.9,0.4-2.4,0.7-4.3,0.7c-2.2,0-4-0.7-5.2-2c-1.4-1.4-1.9-3.8-1.9-6.9V75.1h-4.1v-3.7h4.1v-6.3L146.6,63.9z"/><path fill="#FFFFFF" d="M171.4,97.8l-0.4-3.3h-0.2c-1.5,2.1-4.3,3.9-8.1,3.9c-5.4,0-8.1-3.8-8.1-7.6c0-6.4,5.7-9.9,15.9-9.8v-0.5 c0-2.2-0.6-6.1-6-6.1c-2.5,0-5,0.8-6.9,2l-1.1-3.2c2.2-1.4,5.4-2.3,8.7-2.3c8.1,0,10.1,5.5,10.1,10.8v9.9c0,2.3,0.1,4.5,0.4,6.3 H171.4z M170.7,84.4c-5.3-0.1-11.2,0.8-11.2,5.9c0,3.1,2.1,4.6,4.5,4.6c3.4,0,5.6-2.2,6.4-4.4c0.2-0.5,0.3-1,0.3-1.5V84.4z"/></g></g></a></g><a href="https://ourworldindata.org/grapher/figure-11a" target="_blank"><text font-size="25.20" x="15.0" y="35.2" fill="#555"><tspan x="15" y="35.160000000000004">Figure 1.1a</tspan></text></a><text font-size="14.40" x="15.0" y="53.7" fill="#666"><tspan x="15" y="53.72">History’s hockey stick: Gross domestic product per capita in five countries (1000–2015)</tspan></text></g><g class="LineChart"><defs><clipPath id="boundsClip-1"><rect x="68.968" y="0" width="830" height="959.8"></rect></clipPath></defs><g class="AxisBoxView"><g class="HorizontalAxis"><text x="79" y="556.5" fill="#666" text-anchor="middle" font-size="16.2">1000</text><text x="202.1" y="556.5" fill="#666" text-anchor="middle" font-size="16.2">1200</text><text x="325.1" y="556.5" fill="#666" text-anchor="middle" font-size="16.2">1400</text><text x="448.2" y="556.5" fill="#666" text-anchor="middle" font-size="16.2">1600</text><text x="571.3" y="556.5" fill="#666" text-anchor="middle" font-size="16.2">1800</text><text x="703.6" y="556.5" fill="#666" text-anchor="middle" font-size="16.2">2015</text></g><g class="VerticalAxis"><text x="73.97" y="444.3" fill="#666" dominant-baseline="middle" text-anchor="end" font-size="16.2">$1,000</text><text x="73.97" y="183.4" fill="#666" dominant-baseline="middle" text-anchor="end" font-size="16.2">$10,000</text></g><g class="AxisGridLines"><line x1="78.97" y1="444.3" x2="703.61" y2="444.3" stroke="#ddd" stroke-dasharray="3,2"></line><line x1="78.97" y1="183.4" x2="703.61" y2="183.4" stroke="#ddd" stroke-dasharray="3,2"></line></g></g><g clip-path="url(#boundsClip-1)"><g class="HeightedLegend clickable"><g class="legendMark"><rect x="703.61" y="69.85" width="131.39" height="13.5" fill="#fff" opacity="0"></rect><text font-size="13.50" x="708.6" y="80.6" fill="#a652ba"><tspan x="708.61" y="80.64999999999999">United Kingdom</tspan></text></g><g class="legendMark"><rect x="703.61" y="83.55" width="71.99000000000001" height="13.5" fill="#fff" opacity="0"></rect><text font-size="13.50" x="708.6" y="94.3" fill="#f6a324"><tspan x="708.61" y="94.35">Japan</tspan></text></g><g class="legendMark"><rect x="703.61" y="112.95" width="59.84" height="13.5" fill="#fff" opacity="0"></rect><text font-size="13.50" x="708.6" y="123.8" fill="#34983f"><tspan x="708.61" y="123.75">Italy</tspan></text></g><g class="legendMark"><rect x="703.61" y="161.45" width="70.37" height="13.5" fill="#fff" opacity="0"></rect><text font-size="13.50" x="708.6" y="172.3" fill="#ca2628"><tspan x="708.61" y="172.25">China</tspan></text></g><g class="legendMark"><rect x="703.61" y="270.85" width="64.43" height="13.5" fill="#fff" opacity="0"></rect><text font-size="13.50" x="708.6" y="281.7" fill="#3360a9"><tspan x="708.61" y="281.65000000000003">India</tspan></text></g></g><g class="Lines"><rect x="79" y="77" width="625" height="459" fill="rgba(255,255,255,0)" opacity="0"></rect><g class="key-India_0"><path stroke="#3360a9" stroke-linecap="round" d="M448 488L449 488L449 488L450 488L451 488L451 488L452 489L453 489L453 489L454 489L454 489L455 489L456 490L456 490L457 490L457 490L458 490L459 490L459 490L460 491L461 491L461 491L462 491L462 491L463 491L464 492L464 492L465 492L465 492L466 492L467 492L467 492L468 493L469 493L469 493L470 493L470 493L471 493L472 493L472 494L473 494L473 494L474 494L475 494L475 494L476 495L477 495L477 495L478 495L478 495L479 495L480 495L480 495L481 495L481 496L482 496L483 496L483 496L484 496L485 496L485 496L486 496L486 496L487 496L488 496L488 496L489 496L489 496L490 496L491 496L491 496L492 497L493 497L493 497L494 497L494 497L495 497L496 497L496 497L497 497L497 497L498 497L499 497L499 497L500 497L501 497L501 497L502 497L502 497L503 498L504 498L504 498L505 498L505 498L506 498L507 498L507 498L508 498L509 498L509 498L510 498L510 498L511 499L512 499L512 499L513 499L513 499L514 499L515 500L515 500L516 500L517 500L517 500L518 501L518 501L519 501L520 501L520 501L521 502L521 502L522 502L523 502L523 502L524 502L525 503L525 503L526 503L526 503L527 503L528 504L528 504L529 504L529 504L530 504L531 504L531 505L532 505L533 505L533 505L534 505L534 506L535 506L536 506L536 506L537 506L537 507L538 507L539 507L539 507L540 507L541 507L541 507L542 507L542 508L543 508L544 508L544 508L545 508L545 508L546 508L547 508L547 508L548 508L549 508L549 508L550 508L550 508L551 508L552 508L552 508L553 508L553 508L554 508L555 508L555 508L556 508L557 508L557 508L558 508L558 508L559 508L560 508L560 508L561 508L562 508L562 508L563 508L563 508L564 508L565 508L565 508L566 508L566 508L567 508L568 508L568 508L569 508L570 508L570 508L571 508L571 508L572 508L573 508L573 508L574 508L574 509L575 509L576 509L576 509L577 509L578 509L578 509L579 509L579 509L580 509L581 509L581 509L582 509L582 509L583 509L584 509L584 509L585 509L586 509L586 510L587 510L587 510L588 510L589 510L589 510L590 510L590 510L591 510L592 510L592 510L593 510L594 510L594 510L595 510L595 510L596 510L597 510L597 510L598 511L598 511L599 511L600 511L600 511L601 511L602 511L602 511L603 511L603 511L604 512L605 512L605 512L606 512L606 513L607 513L608 513L608 513L609 513L610 514L610 514L611 514L611 514L612 515L613 515L613 515L614 515L614 516L615 515L616 515L616 515L617 515L618 514L618 514L619 514L619 514L620 513L621 513L621 513L622 513L622 512L623 512L624 509L624 513L625 508L626 507L626 510L627 505L627 516L628 508L629 505L629 504L630 507L630 516L631 497L632 497L632 506L633 502L634 501L634 492L635 491L635 492L636 494L637 492L637 500L638 499L638 485L639 485L640 486L640 487L641 489L642 483L642 486L643 483L643 485L644 501L645 486L645 496L646 488L646 485L647 490L648 485L648 485L649 483L650 484L650 484L651 480L651 481L652 483L653 483L653 485L654 485L654 488L655 485L656 489L656 490L657 489L658 487L658 486L659 488L659 485L660 488L661 491L661 498L662 499L662 499L663 498L664 499L664 498L665 497L666 492L666 489L667 489L667 485L668 488L669 482L669 482L670 476L670 476L671 476L672 473L672 467L673 474L674 475L674 469L675 468L675 463L676 460L677 462L677 465L678 462L678 464L679 457L680 458L680 452L681 448L682 457L682 452L683 447L683 446L684 440L685 438L685 436L686 433L686 431L687 422L688 417L688 414L689 414L690 410L690 406L691 401L691 395L692 389L693 386L693 381L694 376L694 373L695 368L696 366L696 359L697 351L698 344L698 336L699 327L699 322L700 314L701 307L701 300L702 296L702 290L703 284L704 278" fill="none" stroke-width="1.5"></path></g><g class="key-United-Kingdom_0"><path stroke="#a652ba" stroke-linecap="round" d="M79 476L80 476L80 476L81 476L81 476L82 476L83 476L83 476L84 476L85 476L85 476L86 476L86 476L87 477L88 477L88 477L89 477L89 477L90 477L91 477L91 477L92 477L93 477L93 477L94 477L94 477L95 477L96 477L96 477L97 477L97 477L98 477L99 477L99 477L100 477L101 477L101 478L102 478L102 478L103 478L104 478L104 478L105 478L105 478L106 478L107 478L107 478L108 478L109 478L109 478L110 478L110 478L111 478L112 478L112 478L113 478L113 478L114 478L115 479L115 479L116 479L117 479L117 479L118 479L118 479L119 479L120 479L120 479L121 479L121 479L122 479L123 479L123 479L124 479L125 479L125 479L126 479L126 479L127 479L128 479L128 480L129 480L129 480L130 480L131 480L131 480L132 480L133 480L133 480L134 480L134 480L135 480L136 480L136 480L137 480L137 480L138 480L139 480L139 480L140 480L141 480L141 480L142 481L142 481L143 481L144 481L144 481L145 481L145 481L146 481L147 481L147 481L148 481L149 481L149 481L150 481L150 481L151 481L152 481L152 481L153 481L153 481L154 481L155 481L155 482L156 482L157 482L157 482L158 482L158 482L159 482L160 482L160 482L161 482L161 482L162 482L163 482L163 482L164 482L165 482L165 482L166 482L166 482L167 482L168 482L168 482L169 483L169 483L170 483L171 483L171 483L172 483L173 483L173 483L174 483L174 483L175 483L176 483L176 483L177 483L177 483L178 483L179 483L179 483L180 483L181 483L181 483L182 483L182 484L183 484L184 484L184 484L185 484L185 484L186 484L187 484L187 484L188 484L189 484L189 484L190 484L190 484L191 484L192 484L192 484L193 484L193 484L194 484L195 484L195 484L196 484L197 485L197 485L198 485L198 485L199 485L200 485L200 485L201 485L201 485L202 485L203 485L203 485L204 485L205 485L205 485L206 485L206 485L207 485L208 485L208 485L209 485L209 485L210 486L211 486L211 486L212 486L213 486L213 486L214 486L214 486L215 486L216 486L216 486L217 486L217 486L218 486L219 486L219 486L220 486L221 486L221 486L222 486L222 486L223 486L224 487L224 487L225 487L225 487L226 487L227 487L227 487L228 487L229 487L229 487L230 487L230 487L231 487L232 487L232 487L233 487L233 487L234 487L235 487L235 487L236 487L237 487L237 488L238 488L238 488L239 488L240 488L240 488L241 488L241 488L242 488L243 488L243 488L244 488L245 488L245 488L246 488L246 488L247 488L248 488L248 488L249 488L249 488L250 488L251 489L251 489L252 488L253 488L253 487L254 486L254 486L255 485L256 485L256 484L257 484L257 483L258 483L259 482L259 482L260 481L261 481L261 480L262 480L262 479L263 479L264 478L264 478L265 478L265 478L266 478L267 477L267 477L268 477L269 477L269 477L270 477L270 477L271 477L272 476L272 476L273 476L273 476L274 476L275 476L275 476L276 475L277 475L277 475L278 475L278 475L279 475L280 475L280 475L281 474L281 474L282 474L283 474L283 474L284 474L285 474L285 473L286 473L286 473L287 473L288 473L288 473L289 473L289 472L290 472L291 472L291 472L292 472L293 472L293 472L294 471L294 470L295 469L296 469L296 468L297 467L297 467L298 466L299 465L299 464L300 464L301 463L301 462L302 461L302 461L303 460L304 459L304 459L305 458L305 457L306 456L307 456L307 455L308 454L309 453L309 453L310 452L310 451L311 450L312 450L312 449L313 448L313 448L314 447L315 446L315 445L316 445L317 444L317 443L318 442L318 442L319 441L320 440L320 440L321 439L321 438L322 437L323 437L323 436L324 435L325 434L325 434L326 434L326 434L327 434L328 434L328 434L329 434L329 434L330 434L331 434L331 434L332 434L333 434L333 434L334 434L334 434L335 434L336 434L336 435L337 435L337 435L338 435L339 435L339 435L340 435L341 435L341 435L342 435L342 435L343 435L344 435L344 435L345 435L345 435L346 435L347 435L347 435L348 435L349 435L349 436L350 436L350 436L351 436L352 436L352 436L353 436L353 436L354 436L355 436L355 436L356 436L357 436L357 436L358 436L358 436L359 436L360 436L360 436L361 436L361 436L362 436L363 436L363 436L364 436L365 436L365 436L366 436L366 436L367 436L368 436L368 436L369 436L369 436L370 436L371 436L371 436L372 436L373 435L373 435L374 435L374 435L375 435L376 435L376 435L377 435L377 435L378 435L379 435L379 435L380 435L381 435L381 435L382 435L382 435L383 435L384 435L384 435L385 435L385 435L386 435L387 435L387 435L388 435L389 435L389 435L390 435L390 435L391 435L392 435L392 436L393 436L393 436L394 436L395 436L395 436L396 436L397 436L397 436L398 436L398 436L399 436L400 436L400 436L401 436L401 436L402 436L403 437L403 437L404 437L405 437L405 437L406 437L406 437L407 437L408 437L408 437L409 437L409 437L410 437L411 437L411 437L412 437L413 438L413 438L414 438L414 438L415 438L416 438L416 438L417 438L417 438L418 438L419 437L419 437L420 437L421 437L421 436L422 436L422 436L423 435L424 435L424 435L425 435L425 434L426 434L427 434L427 434L428 433L429 433L429 433L430 432L430 433L431 433L432 433L432 433L433 433L433 433L434 433L435 433L435 433L436 433L437 434L437 434L438 434L438 434L439 434L440 434L440 434L441 434L441 434L442 434L443 435L443 435L444 435L445 435L445 435L446 435L446 435L447 435L448 435L448 435L449 435L449 435L450 436L451 436L451 436L452 436L453 436L453 436L454 436L454 436L455 436L456 436L456 436L457 436L457 436L458 436L459 436L459 436L460 436L461 436L461 436L462 436L462 436L463 436L464 436L464 436L465 436L465 436L466 436L467 436L467 436L468 436L469 436L469 436L470 436L470 436L471 436L472 436L472 436L473 436L473 437L474 437L475 437L475 437L476 437L477 437L477 437L478 437L478 437L479 437L480 436L480 435L481 434L481 434L482 433L483 432L483 431L484 430L485 430L485 429L486 428L486 427L487 427L488 426L488 425L489 424L489 423L490 423L491 422L491 421L492 420L493 419L493 419L494 418L494 417L495 416L496 416L496 415L497 414L497 413L498 412L499 412L499 411L500 410L501 409L501 408L502 408L502 407L503 406L504 405L504 405L505 404L505 403L506 402L507 401L507 401L508 400L509 399L509 398L510 397L510 388L511 392L512 401L512 381L513 388L513 407L514 394L515 387L515 404L516 415L517 405L517 405L518 410L518 400L519 403L520 400L520 394L521 389L521 391L522 384L523 388L523 387L524 391L525 392L525 390L526 394L526 395L527 391L528 396L528 392L529 393L529 387L530 385L531 386L531 390L532 383L533 390L533 388L534 390L534 392L535 389L536 385L536 388L537 390L537 390L538 387L539 383L539 384L540 385L541 385L541 388L542 383L542 383L543 387L544 384L544 387L545 381L545 380L546 379L547 376L547 372L548 376L549 376L549 377L550 378L550 377L551 377L552 376L552 371L553 375L553 373L554 377L555 376L555 379L556 377L557 374L557 372L558 374L558 375L559 371L560 369L560 371L561 372L562 372L562 374L563 373L563 377L564 378L565 377L565 370L566 371L566 368L567 371L568 376L568 365L569 364L570 367L570 367L571 365L571 360L572 360L573 360L573 364L574 365L574 360L575 362L576 357L576 364L577 362L578 356L578 359L579 365L579 361L580 365L581 356L581 364L582 364L582 365L583 369L584 362L584 362L585 361L586 360L586 355L587 355L587 362L588 355L589 357L589 357L590 354L590 354L591 352L592 352L592 351L593 344L594 342L594 344L595 341L595 344L596 340L597 343L597 346L598 342L598 333L599 330L600 331L600 334L601 330L602 329L602 349L603 343L603 341L604 338L605 336L605 337L606 331L606 329L607 330L608 328L608 326L609 324L610 324L610 324L611 322L611 320L612 319L613 321L613 318L614 319L614 313L615 308L616 308L616 307L617 306L618 305L618 305L619 305L619 306L620 307L621 303L621 300L622 298L622 298L623 299L624 300L624 299L625 296L626 292L626 287L627 287L627 288L628 292L629 293L629 286L630 284L630 280L631 280L632 276L632 272L633 274L634 275L634 273L635 275L635 276L636 273L637 271L637 270L638 275L638 274L639 271L640 269L640 268L641 264L642 264L642 256L643 254L643 253L644 252L645 265L645 273L646 275L646 271L647 268L648 264L648 259L649 263L650 255L650 254L651 251L651 252L652 259L653 259L653 256L654 249L654 245L655 241L656 237L656 236L657 236L658 226L658 216L659 214L659 212L660 217L661 223L661 228L662 230L662 228L663 225L664 225L664 222L665 222L666 218L666 214L667 211L667 210L668 208L669 209L669 205L670 200L670 197L671 197L672 194L672 188L673 186L674 185L674 183L675 179L675 177L676 175L677 173L677 170L678 163L678 164L679 164L680 162L680 159L681 155L682 152L682 154L683 156L683 154L684 150L685 148L685 144L686 139L686 135L687 129L688 127L688 127L689 129L690 129L690 127L691 123L691 119L692 117L693 110L693 106L694 103L694 99L695 96L696 94L696 90L697 88L698 85L698 83L699 80L699 81L700 87L701 85L701 84L702 83L702 81L703 79L704 77" fill="none" stroke-width="1.5"></path></g><g class="key-China_0"><path stroke="#ca2628" stroke-linecap="round" d="M79 407L80 407L80 406L81 405L81 405L82 404L83 404L83 403L84 403L85 402L85 401L86 401L86 400L87 400L88 399L88 399L89 398L89 398L90 397L91 396L91 396L92 396L93 396L93 396L94 397L94 397L95 397L96 397L96 397L97 397L97 397L98 398L99 398L99 398L100 398L101 398L101 398L102 399L102 399L103 399L104 399L104 399L105 399L105 399L106 400L107 400L107 400L108 400L109 400L109 400L110 400L110 401L111 402L112 402L112 403L113 404L113 404L114 405L115 405L115 406L116 407L117 407L117 408L118 408L118 409L119 410L120 410L120 411L121 411L121 412L122 413L123 413L123 414L124 414L125 415L125 416L126 416L126 417L127 417L128 418L128 419L129 419L129 420L130 420L131 421L131 422L132 422L133 423L133 423L134 423L134 424L135 424L136 425L136 425L137 426L137 426L138 426L139 427L139 427L140 428L141 428L141 428L142 429L142 429L143 430L144 430L144 430L145 431L145 431L146 432L147 432L147 433L148 433L149 433L149 434L150 434L150 435L151 435L152 435L152 436L153 436L153 436L154 436L155 436L155 436L156 437L157 437L157 437L158 437L158 437L159 437L160 437L160 437L161 437L161 437L162 437L163 437L163 437L164 437L165 437L165 437L166 437L166 437L167 437L168 437L168 437L169 437L169 437L170 437L171 437L171 438L172 438L173 438L173 438L174 438L174 438L175 438L176 438L176 438L177 438L177 438L178 438L179 438L179 438L180 438L181 438L181 438L182 438L182 438L183 438L184 438L184 438L185 438L185 438L186 439L187 439L187 439L188 439L189 439L189 439L190 439L190 439L191 439L192 439L192 439L193 439L193 439L194 439L195 439L195 439L196 439L197 439L197 439L198 439L198 439L199 439L200 439L200 439L201 440L201 440L202 440L203 440L203 440L204 440L205 440L205 440L206 440L206 440L207 440L208 440L208 440L209 440L209 440L210 440L211 440L211 440L212 440L213 440L213 440L214 440L214 440L215 440L216 441L216 441L217 441L217 441L218 441L219 441L219 441L220 441L221 441L221 441L222 441L222 441L223 441L224 441L224 441L225 441L225 441L226 441L227 441L227 441L228 441L229 441L229 441L230 441L230 441L231 442L232 442L232 442L233 442L233 442L234 442L235 442L235 442L236 442L237 442L237 442L238 442L238 442L239 442L240 442L240 442L241 442L241 442L242 442L243 442L243 442L244 442L245 442L245 442L246 443L246 443L247 443L248 443L248 443L249 443L249 443L250 443L251 443L251 443L252 443L253 443L253 443L254 443L254 443L255 443L256 443L256 443L257 443L257 443L258 443L259 443L259 443L260 443L261 444L261 444L262 444L262 444L263 444L264 444L264 444L265 444L265 444L266 444L267 444L267 444L268 444L269 444L269 444L270 444L270 444L271 444L272 444L272 444L273 444L273 444L274 444L275 444L275 445L276 445L277 445L277 445L278 445L278 445L279 445L280 445L280 445L281 445L281 445L282 445L283 445L283 445L284 445L285 445L285 445L286 445L286 445L287 445L288 445L288 445L289 445L289 445L290 446L291 446L291 446L292 446L293 446L293 446L294 446L294 446L295 446L296 446L296 446L297 446L297 446L298 446L299 446L299 446L300 446L301 446L301 446L302 446L302 446L303 446L304 446L304 446L305 446L305 447L306 447L307 447L307 447L308 447L309 447L309 447L310 447L310 447L311 447L312 447L312 447L313 447L313 447L314 447L315 447L315 447L316 447L317 447L317 447L318 447L318 447L319 447L320 447L320 448L321 448L321 448L322 448L323 448L323 448L324 448L325 448L325 448L326 448L326 448L327 448L328 448L328 448L329 448L329 447L330 447L331 447L331 447L332 447L333 447L333 447L334 447L334 447L335 447L336 447L336 447L337 447L337 447L338 447L339 447L339 447L340 447L341 447L341 446L342 446L342 446L343 446L344 446L344 446L345 446L345 446L346 446L347 446L347 446L348 446L349 446L349 446L350 446L350 446L351 446L352 446L352 445L353 445L353 445L354 445L355 445L355 445L356 445L357 445L357 445L358 444L358 444L359 444L360 443L360 443L361 443L361 442L362 442L363 442L363 441L364 441L365 441L365 441L366 440L366 440L367 440L368 439L368 439L369 439L369 438L370 438L371 438L371 437L372 437L373 437L373 436L374 436L374 436L375 436L376 435L376 435L377 435L377 434L378 434L379 434L379 433L380 433L381 433L381 432L382 432L382 432L383 432L384 431L384 431L385 431L385 430L386 430L387 430L387 430L388 430L389 430L389 431L390 431L390 431L391 431L392 432L392 432L393 432L393 432L394 433L395 433L395 433L396 433L397 434L397 434L398 434L398 434L399 435L400 435L400 435L401 435L401 436L402 436L403 436L403 436L404 437L405 437L405 437L406 437L406 438L407 438L408 438L408 438L409 439L409 439L410 439L411 439L411 440L412 440L413 440L413 440L414 441L414 441L415 441L416 441L416 441L417 442L417 442L418 442L419 442L419 443L420 443L421 443L421 443L422 444L422 444L423 444L424 444L424 445L425 445L425 445L426 445L427 446L427 446L428 446L429 446L429 447L430 447L430 447L431 447L432 447L432 447L433 447L433 447L434 447L435 447L435 447L436 447L437 447L437 446L438 446L438 446L439 446L440 446L440 446L441 446L441 446L442 446L443 446L443 446L444 446L445 446L445 446L446 446L446 446L447 446L448 446L448 446L449 446L449 446L450 446L451 447L451 447L452 447L453 447L453 447L454 447L454 448L455 448L456 448L456 448L457 448L457 448L458 449L459 449L459 449L460 449L461 449L461 449L462 450L462 450L463 450L464 450L464 450L465 450L465 451L466 451L467 451L467 451L468 451L469 451L469 452L470 452L470 452L471 452L472 452L472 452L473 453L473 453L474 453L475 453L475 453L476 454L477 454L477 454L478 454L478 454L479 454L480 455L480 455L481 455L481 455L482 455L483 455L483 456L484 456L485 456L485 456L486 456L486 456L487 457L488 457L488 457L489 457L489 457L490 457L491 458L491 458L492 458L493 458L493 458L494 458L494 459L495 459L496 459L496 459L497 459L497 459L498 460L499 460L499 460L500 460L501 460L501 460L502 461L502 461L503 461L504 461L504 461L505 461L505 462L506 462L507 462L507 462L508 462L509 463L509 463L510 463L510 463L511 464L512 464L512 465L513 465L513 466L514 466L515 467L515 467L516 467L517 468L517 468L518 469L518 469L519 470L520 470L520 471L521 471L521 472L522 472L523 473L523 473L524 474L525 474L525 474L526 475L526 475L527 476L528 476L528 477L529 477L529 478L530 478L531 479L531 479L532 480L533 480L533 481L534 481L534 481L535 482L536 482L536 483L537 483L537 484L538 484L539 485L539 485L540 486L541 486L541 486L542 487L542 487L543 487L544 488L544 488L545 488L545 489L546 489L547 489L547 490L548 490L549 490L549 490L550 491L550 491L551 491L552 492L552 492L553 492L553 493L554 493L555 493L555 494L556 494L557 494L557 495L558 495L558 495L559 495L560 496L560 496L561 496L562 497L562 497L563 497L563 498L564 498L565 498L565 499L566 499L566 499L567 499L568 500L568 500L569 500L570 501L570 501L571 501L571 502L572 502L573 502L573 502L574 502L574 502L575 502L576 502L576 502L577 502L578 502L578 502L579 502L579 502L580 502L581 502L581 502L582 502L582 502L583 502L584 502L584 502L585 502L586 502L586 502L587 502L587 502L588 502L589 502L589 502L590 502L590 502L591 502L592 502L592 502L593 502L594 502L594 502L595 502L595 502L596 502L597 502L597 502L598 502L598 502L599 502L600 502L600 502L601 502L602 502L602 502L603 503L603 504L604 504L605 505L605 506L606 506L606 507L607 508L608 509L608 509L609 510L610 511L610 511L611 512L611 513L612 513L613 514L613 515L614 516L614 516L615 516L616 516L616 516L617 516L618 516L618 516L619 516L619 515L620 515L621 515L621 515L622 515L622 515L623 515L624 515L624 515L625 514L626 514L626 514L627 514L627 514L628 514L629 514L629 514L630 514L630 513L631 513L632 513L632 513L633 513L634 513L634 513L635 513L635 513L636 513L637 512L637 512L638 512L638 512L639 512L640 512L640 512L641 512L642 512L642 511L643 511L643 511L644 511L645 511L645 511L646 511L646 510L647 510L648 510L648 510L649 510L650 510L650 510L651 510L651 509L652 508L653 506L653 506L654 517L654 509L655 503L656 506L656 510L657 512L658 514L658 516L659 518L659 520L660 522L661 525L661 527L662 529L662 531L663 533L664 535L664 525L665 515L666 512L666 511L667 507L667 499L668 496L669 486L669 487L670 491L670 512L671 512L672 504L672 494L673 485L674 478L674 484L675 489L675 483L676 473L677 470L677 470L678 464L678 465L679 460L680 462L680 457L681 447L682 440L682 438L683 433L683 425L684 418L685 407L685 397L686 391L686 382L687 376L688 376L688 373L689 368L690 359L690 349L691 340L691 325L692 324L693 319L693 320L694 314L694 305L695 294L696 282L696 267L697 258L698 250L698 240L699 236L699 228L700 219L701 208L701 199L702 191L702 183L703 175L704 168" fill="none" stroke-width="1.5"></path></g><g class="key-Japan_0"><path stroke="#f6a324" stroke-linecap="round" d="M79 523L80 523L80 523L81 523L81 523L82 523L83 523L83 523L84 523L85 523L85 523L86 523L86 523L87 523L88 523L88 523L89 522L89 522L90 522L91 522L91 522L92 522L93 522L93 522L94 522L94 522L95 522L96 522L96 522L97 522L97 522L98 522L99 522L99 522L100 522L101 522L101 522L102 522L102 522L103 522L104 522L104 522L105 522L105 522L106 522L107 522L107 522L108 522L109 522L109 522L110 521L110 521L111 521L112 521L112 521L113 521L113 521L114 521L115 521L115 521L116 521L117 521L117 521L118 521L118 521L119 521L120 521L120 521L121 521L121 521L122 521L123 521L123 521L124 521L125 521L125 521L126 521L126 521L127 521L128 521L128 521L129 521L129 521L130 521L131 520L131 520L132 520L133 520L133 520L134 520L134 520L135 520L136 520L136 520L137 520L137 520L138 520L139 520L139 520L140 520L141 520L141 520L142 520L142 520L143 520L144 520L144 520L145 520L145 520L146 520L147 520L147 520L148 520L149 520L149 520L150 520L150 520L151 520L152 519L152 519L153 519L153 519L154 519L155 519L155 519L156 519L157 519L157 519L158 519L158 519L159 519L160 519L160 519L161 519L161 519L162 519L163 519L163 519L164 519L165 519L165 519L166 519L166 519L167 519L168 519L168 519L169 519L169 519L170 519L171 519L171 519L172 519L173 519L173 519L174 518L174 518L175 518L176 518L176 518L177 518L177 518L178 518L179 518L179 518L180 518L181 518L181 518L182 518L182 518L183 518L184 518L184 518L185 518L185 518L186 518L187 518L187 518L188 518L189 518L189 518L190 518L190 518L191 518L192 518L192 518L193 518L193 518L194 518L195 518L195 518L196 518L197 518L197 518L198 518L198 518L199 518L200 518L200 518L201 518L201 518L202 518L203 518L203 518L204 518L205 518L205 518L206 518L206 518L207 518L208 518L208 518L209 518L209 518L210 518L211 518L211 518L212 518L213 518L213 518L214 518L214 518L215 518L216 518L216 518L217 518L217 518L218 518L219 518L219 518L220 518L221 518L221 518L222 518L222 518L223 518L224 518L224 518L225 518L225 518L226 517L227 517L227 517L228 517L229 517L229 517L230 517L230 517L231 517L232 517L232 517L233 517L233 517L234 517L235 517L235 517L236 517L237 517L237 517L238 517L238 517L239 517L240 517L240 517L241 517L241 517L242 517L243 517L243 517L244 517L245 517L245 517L246 517L246 517L247 517L248 517L248 517L249 517L249 517L250 517L251 517L251 517L252 517L253 517L253 517L254 517L254 517L255 517L256 517L256 517L257 517L257 517L258 517L259 517L259 517L260 517L261 517L261 517L262 517L262 517L263 517L264 517L264 517L265 517L265 517L266 517L267 517L267 517L268 517L269 517L269 517L270 517L270 517L271 517L272 517L272 517L273 517L273 517L274 517L275 517L275 517L276 517L277 517L277 517L278 517L278 517L279 517L280 517L280 517L281 517L281 517L282 517L283 517L283 517L284 517L285 517L285 517L286 517L286 517L287 517L288 517L288 517L289 517L289 517L290 517L291 517L291 517L292 517L293 517L293 517L294 517L294 517L295 517L296 517L296 517L297 517L297 517L298 517L299 517L299 517L300 517L301 517L301 517L302 517L302 517L303 517L304 517L304 517L305 517L305 517L306 517L307 517L307 517L308 517L309 517L309 517L310 517L310 517L311 517L312 517L312 517L313 517L313 517L314 517L315 517L315 517L316 517L317 517L317 517L318 517L318 517L319 517L320 517L320 517L321 517L321 517L322 517L323 517L323 517L324 517L325 517L325 517L326 517L326 517L327 517L328 517L328 517L329 517L329 517L330 517L331 517L331 517L332 517L333 517L333 517L334 517L334 517L335 517L336 517L336 517L337 517L337 517L338 517L339 517L339 517L340 517L341 517L341 517L342 517L342 517L343 517L344 517L344 517L345 517L345 517L346 517L347 517L347 517L348 517L349 517L349 517L350 517L350 517L351 517L352 517L352 517L353 517L353 517L354 517L355 517L355 517L356 517L357 517L357 517L358 517L358 517L359 517L360 517L360 517L361 516L361 516L362 516L363 516L363 516L364 516L365 516L365 516L366 516L366 516L367 516L368 516L368 516L369 516L369 516L370 516L371 515L371 515L372 515L373 515L373 515L374 515L374 515L375 515L376 515L376 515L377 515L377 515L378 515L379 515L379 515L380 514L381 514L381 514L382 514L382 514L383 514L384 514L384 514L385 514L385 514L386 514L387 514L387 514L388 514L389 514L389 514L390 513L390 513L391 513L392 513L392 513L393 513L393 513L394 513L395 513L395 513L396 513L397 513L397 513L398 513L398 513L399 512L400 512L400 512L401 512L401 512L402 512L403 512L403 512L404 512L405 512L405 512L406 512L406 512L407 512L408 512L408 512L409 511L409 511L410 511L411 511L411 511L412 511L413 511L413 511L414 511L414 511L415 511L416 511L416 511L417 511L417 511L418 510L419 510L419 510L420 510L421 510L421 510L422 510L422 510L423 510L424 510L424 510L425 510L425 510L426 510L427 510L427 510L428 509L429 509L429 509L430 509L430 509L431 509L432 509L432 509L433 509L433 509L434 509L435 509L435 509L436 509L437 509L437 508L438 508L438 508L439 508L440 508L440 508L441 508L441 508L442 508L443 508L443 508L444 508L445 508L445 508L446 508L446 507L447 507L448 507L448 507L449 507L449 507L450 507L451 508L451 508L452 508L453 508L453 508L454 508L454 508L455 508L456 508L456 508L457 508L457 508L458 508L459 508L459 508L460 508L461 509L461 509L462 509L462 509L463 509L464 509L464 509L465 509L465 509L466 509L467 509L467 509L468 509L469 509L469 509L470 509L470 509L471 510L472 510L472 510L473 510L473 510L474 510L475 510L475 510L476 510L477 510L477 510L478 510L478 510L479 510L480 510L480 510L481 510L481 509L482 509L483 509L483 508L484 508L485 508L485 508L486 507L486 507L487 507L488 507L488 506L489 506L489 506L490 505L491 505L491 505L492 505L493 504L493 504L494 504L494 504L495 503L496 503L496 503L497 503L497 502L498 502L499 502L499 501L500 501L501 501L501 501L502 500L502 500L503 500L504 500L504 499L505 499L505 499L506 499L507 498L507 498L508 498L509 497L509 497L510 497L510 497L511 497L512 497L512 497L513 497L513 498L514 498L515 498L515 498L516 498L517 498L517 498L518 498L518 499L519 499L520 499L520 499L521 499L521 499L522 499L523 499L523 499L524 500L525 500L525 500L526 500L526 500L527 500L528 500L528 500L529 500L529 501L530 501L531 501L531 501L532 501L533 501L533 501L534 501L534 501L535 502L536 502L536 502L537 502L537 502L538 502L539 502L539 502L540 503L541 503L541 502L542 502L542 502L543 502L544 502L544 502L545 502L545 501L546 501L547 501L547 501L548 501L549 501L549 500L550 500L550 500L551 500L552 500L552 500L553 499L553 499L554 499L555 499L555 499L556 499L557 499L557 498L558 498L558 498L559 498L560 498L560 498L561 497L562 497L562 497L563 497L563 497L564 497L565 496L565 496L566 496L566 496L567 496L568 496L568 496L569 495L570 495L570 495L571 495L571 495L572 495L573 494L573 494L574 494L574 494L575 494L576 494L576 494L577 494L578 493L578 493L579 493L579 493L580 493L581 493L581 493L582 492L582 492L583 492L584 492L584 492L585 492L586 492L586 491L587 491L587 491L588 491L589 491L589 491L590 491L590 490L591 490L592 490L592 490L593 490L594 490L594 490L595 490L595 489L596 489L597 489L597 489L598 489L598 489L599 489L600 488L600 488L601 488L602 488L602 488L603 487L603 487L604 487L605 486L605 486L606 485L606 485L607 484L608 484L608 483L609 483L610 482L610 482L611 482L611 481L612 481L613 480L613 480L614 479L614 479L615 478L616 478L616 477L617 476L618 468L618 472L619 469L619 471L620 465L621 461L621 466L622 464L622 464L623 465L624 461L624 454L625 450L626 456L626 452L627 443L627 449L628 443L629 443L629 432L630 431L630 439L631 438L632 419L632 429L633 426L634 423L634 431L635 424L635 425L636 428L637 415L637 412L638 413L638 415L639 414L640 410L640 408L641 407L642 412L642 404L643 389L643 387L644 386L645 376L645 385L646 374L646 376L647 377L648 375L648 373L649 373L650 373L650 366L651 364L651 375L652 375L653 368L653 359L654 360L654 359L655 353L656 349L656 343L657 327L658 325L658 325L659 327L659 327L660 334L661 411L661 403L662 395L662 383L663 378L664 370L664 359L665 348L666 342L666 337L667 329L667 322L668 315L669 309L669 301L670 288L670 276L671 267L672 259L672 248L673 243L674 232L674 221L675 209L675 197L676 187L677 183L677 175L678 168L678 171L679 169L680 166L680 162L681 157L682 152L682 150L683 147L683 145L684 143L685 139L685 135L686 132L686 128L687 122L688 117L688 112L689 109L690 108L690 108L691 108L691 106L692 103L693 101L693 104L694 104L694 102L695 102L696 102L696 100L697 98L698 96L698 94L699 92L699 93L700 100L701 94L701 95L702 93L702 91L703 91L704 90" fill="none" stroke-width="1.5"></path></g><g class="key-Italy_0"><path stroke="#34983f" stroke-linecap="round" d="M79 404L80 404L80 404L81 404L81 404L82 404L83 403L83 403L84 403L85 403L85 403L86 403L86 403L87 403L88 403L88 403L89 403L89 403L90 403L91 403L91 403L92 403L93 403L93 403L94 403L94 403L95 403L96 403L96 402L97 402L97 402L98 402L99 402L99 402L100 402L101 402L101 402L102 402L102 402L103 402L104 402L104 402L105 402L105 402L106 402L107 402L107 402L108 402L109 402L109 401L110 401L110 401L111 401L112 401L112 401L113 401L113 401L114 401L115 401L115 401L116 401L117 401L117 401L118 401L118 401L119 401L120 401L120 401L121 401L121 401L122 400L123 400L123 400L124 400L125 400L125 400L126 400L126 400L127 400L128 400L128 400L129 400L129 400L130 400L131 400L131 400L132 400L133 400L133 400L134 400L134 400L135 400L136 399L136 399L137 399L137 399L138 399L139 399L139 399L140 399L141 399L141 399L142 399L142 399L143 399L144 399L144 399L145 399L145 399L146 399L147 399L147 399L148 399L149 398L149 398L150 398L150 398L151 398L152 398L152 398L153 398L153 398L154 398L155 398L155 398L156 398L157 398L157 398L158 398L158 398L159 398L160 398L160 398L161 398L161 397L162 397L163 397L163 397L164 397L165 397L165 397L166 397L166 397L167 397L168 397L168 397L169 397L169 397L170 397L171 397L171 397L172 397L173 397L173 397L174 397L174 397L175 396L176 396L176 396L177 396L177 396L178 396L179 396L179 396L180 396L181 396L181 396L182 396L182 396L183 396L184 396L184 396L185 396L185 396L186 396L187 396L187 396L188 395L189 395L189 395L190 395L190 395L191 395L192 395L192 395L193 395L193 395L194 395L195 395L195 395L196 395L197 395L197 395L198 395L198 395L199 395L200 395L200 395L201 394L201 394L202 394L203 394L203 394L204 394L205 394L205 394L206 394L206 394L207 394L208 394L208 394L209 394L209 394L210 394L211 394L211 394L212 394L213 394L213 394L214 394L214 393L215 393L216 393L216 393L217 393L217 393L218 393L219 393L219 393L220 393L221 393L221 393L222 393L222 393L223 393L224 393L224 393L225 393L225 393L226 393L227 393L227 392L228 392L229 392L229 392L230 392L230 392L231 392L232 392L232 392L233 392L233 392L234 392L235 392L235 392L236 392L237 392L237 392L238 392L238 392L239 392L240 392L240 391L241 391L241 391L242 391L243 391L243 391L244 391L245 391L245 391L246 391L246 391L247 391L248 391L248 391L249 391L249 391L250 391L251 391L251 391L252 391L253 391L253 390L254 390L254 390L255 390L256 390L256 390L257 390L257 390L258 390L259 390L259 390L260 390L261 390L261 390L262 390L262 390L263 390L264 390L264 390L265 390L265 390L266 390L267 390L267 391L268 391L269 391L269 391L270 391L270 391L271 392L272 392L272 392L273 392L273 392L274 392L275 393L275 393L276 393L277 393L277 393L278 393L278 393L279 394L280 394L280 394L281 394L281 394L282 394L283 395L283 395L284 395L285 395L285 395L286 395L286 396L287 396L288 396L288 396L289 396L289 396L290 396L291 397L291 397L292 397L293 397L293 397L294 397L294 397L295 396L296 396L296 396L297 395L297 395L298 395L299 394L299 394L300 394L301 393L301 393L302 393L302 393L303 392L304 392L304 392L305 391L305 391L306 391L307 390L307 390L308 390L309 389L309 389L310 389L310 388L311 388L312 388L312 388L313 387L313 387L314 387L315 386L315 386L316 386L317 385L317 385L318 385L318 384L319 384L320 384L320 383L321 383L321 383L322 382L323 382L323 382L324 382L325 381L325 381L326 381L326 381L327 381L328 382L328 382L329 382L329 382L330 382L331 382L331 382L332 383L333 383L333 383L334 383L334 383L335 383L336 383L336 384L337 384L337 384L338 384L339 384L339 384L340 385L341 385L341 385L342 385L342 385L343 385L344 385L344 386L345 386L345 386L346 386L347 386L347 386L348 386L349 387L349 387L350 387L350 387L351 387L352 387L352 388L353 388L353 388L354 388L355 388L355 388L356 388L357 389L357 389L358 389L358 389L359 389L360 389L360 389L361 390L361 390L362 390L363 390L363 390L364 390L365 391L365 391L366 391L366 391L367 391L368 391L368 391L369 392L369 392L370 392L371 392L371 392L372 392L373 393L373 393L374 393L374 393L375 393L376 393L376 393L377 394L377 394L378 394L379 394L379 394L380 394L381 394L381 395L382 395L382 395L383 395L384 395L384 395L385 396L385 396L386 396L387 396L387 396L388 396L389 396L389 396L390 396L390 396L391 397L392 397L392 397L393 397L393 397L394 397L395 397L395 397L396 397L397 397L397 397L398 397L398 397L399 398L400 398L400 398L401 398L401 398L402 398L403 398L403 398L404 398L405 398L405 398L406 398L406 399L407 399L408 399L408 399L409 399L409 399L410 399L411 399L411 399L412 399L413 399L413 399L414 399L414 400L415 400L416 400L416 400L417 400L417 400L418 400L419 400L419 400L420 400L421 400L421 400L422 401L422 401L423 401L424 401L424 401L425 401L425 401L426 401L427 401L427 401L428 401L429 401L429 401L430 402L430 402L431 402L432 402L432 403L433 403L433 403L434 403L435 404L435 404L436 404L437 404L437 405L438 405L438 405L439 405L440 406L440 406L441 406L441 406L442 407L443 407L443 407L444 407L445 408L445 408L446 408L446 409L447 409L448 409L448 409L449 409L449 409L450 409L451 409L451 409L452 409L453 409L453 409L454 409L454 409L455 409L456 409L456 409L457 408L457 408L458 408L459 408L459 408L460 408L461 408L461 408L462 408L462 408L463 408L464 408L464 408L465 408L465 408L466 408L467 408L467 407L468 407L469 407L469 407L470 407L470 407L471 407L472 407L472 407L473 407L473 407L474 407L475 407L475 407L476 407L477 407L477 407L478 407L478 406L479 406L480 406L480 406L481 406L481 406L482 406L483 406L483 406L484 405L485 405L485 405L486 405L486 405L487 405L488 405L488 405L489 404L489 404L490 404L491 404L491 404L492 404L493 404L493 404L494 403L494 403L495 403L496 403L496 403L497 403L497 403L498 403L499 402L499 402L500 402L501 402L501 402L502 402L502 402L503 402L504 401L504 401L505 401L505 401L506 401L507 401L507 401L508 401L509 400L509 400L510 400L510 400L511 400L512 400L512 400L513 400L513 400L514 400L515 400L515 399L516 399L517 399L517 399L518 399L518 399L519 399L520 399L520 399L521 399L521 399L522 399L523 398L523 398L524 398L525 398L525 398L526 398L526 398L527 398L528 398L528 398L529 398L529 397L530 397L531 397L531 397L532 397L533 397L533 397L534 397L534 397L535 397L536 397L536 397L537 396L537 396L538 396L539 396L539 396L540 396L541 396L541 396L542 396L542 397L543 397L544 397L544 398L545 398L545 398L546 398L547 399L547 399L548 399L549 399L549 400L550 400L550 400L551 400L552 401L552 401L553 401L553 402L554 402L555 402L555 402L556 403L557 403L557 403L558 403L558 404L559 404L560 404L560 404L561 405L562 405L562 405L563 406L563 406L564 406L565 406L565 407L566 407L566 407L567 407L568 408L568 408L569 408L570 408L570 409L571 409L571 409L572 411L573 407L573 404L574 399L574 403L575 400L576 400L576 394L577 393L578 402L578 406L579 404L579 401L580 399L581 404L581 406L582 405L582 397L583 398L584 398L584 400L585 398L586 397L586 394L587 396L587 393L588 395L589 396L589 396L590 398L590 394L591 393L592 392L592 392L593 388L594 397L594 400L595 398L595 399L596 396L597 393L597 392L598 398L598 398L599 397L600 398L600 401L601 398L602 399L602 400L603 400L603 402L604 404L605 412L605 411L606 410L606 402L607 397L608 401L608 402L609 402L610 401L610 398L611 398L611 391L612 391L613 402L613 400L614 398L614 395L615 398L616 400L616 401L617 395L618 395L618 397L619 397L619 394L620 394L621 392L621 389L622 387L622 386L623 388L624 386L624 384L625 381L626 381L626 385L627 385L627 383L628 383L629 382L629 381L630 380L630 378L631 378L632 379L632 377L633 374L634 373L634 371L635 370L635 368L636 365L637 362L637 360L638 357L638 356L639 356L640 355L640 355L641 350L642 356L642 362L643 353L643 353L644 356L645 360L645 357L646 361L646 353L647 345L648 342L648 336L649 336L650 339L650 333L651 329L651 335L652 337L653 335L653 338L654 339L654 334L655 339L656 329L656 326L657 321L658 324L658 327L659 334L659 353L660 378L661 390L661 357L662 338L662 330L663 322L664 314L664 304L665 300L666 292L666 289L667 282L667 277L668 272L669 266L669 259L670 252L670 244L671 238L672 232L672 228L673 224L674 218L674 211L675 203L675 197L676 191L677 189L677 186L678 179L678 174L679 177L680 170L680 167L681 164L682 158L682 154L683 154L683 153L684 152L685 148L685 145L686 142L686 138L687 134L688 130L688 128L689 126L690 126L690 127L691 125L691 122L692 121L693 119L693 117L694 116L694 112L695 110L696 110L696 111L697 109L698 109L698 107L699 106L699 108L700 115L701 114L701 113L702 117L702 120L703 120L704 120" fill="none" stroke-width="1.5"></path></g></g></g></g><g style="fill: #777;" class="SourcesFooter"><g style="fill: #777;" class="clickable"><text font-size="12.60" x="15.0" y="581.6"><tspan x="15" y="581.58">Source: GDP Data - Bolt, Zanden (2013) and Broadberry (2013)</tspan></text></g><text font-size="12.60" x="649.0" y="581.6"><tspan x="649.024" y="581.58"><a target='_blank' style='fill: #777;' href='https://ourworldindata.org'>OurWorldInData.org</a> • <a style="fill: #777;" href="http://creativecommons.org/licenses/by-sa/4.0/deed.en_US" target="_blank">CC BY-SA</a></tspan></text></g></g></svg>