<svg xmlns="http://www.w3.org/2000/svg" version="1.1" style="font-family: 'Helvetica Neue', Helvetica, Arial, sans-serif; font-size: 18px; background-color: white; text-rendering: optimizeLegibility; -webkit-font-smoothing: antialiased;" width="850" height="600"><g class="ChartTab"><g class="HeaderView"><g opacity="0.8" transform="translate(778, 15) scale(0.27)"><a xmlns:xlink="http://www.w3.org/1999/xlink" xlink:href="https://ourworldindata.org" target="_blank"><g><rect x="0" y="0" fill="#1B2543" width="211.2" height="130.1"/><rect x="0" y="112.2" fill="#E63912" width="211.2" height="17.9"/><g><rect x="1.2" y="12.3" fill="none" width="210.2" height="99.2"/><path fill="#FFFFFF" d="M37.8,32.2c0,12.7-7.7,19.4-17.1,19.4c-9.7,0-16.6-7.5-16.6-18.7c0-11.7,7.3-19.3,17.1-19.3 C31.3,13.7,37.8,21.3,37.8,32.2z M9.2,32.8c0,7.9,4.3,14.9,11.8,14.9c7.5,0,11.8-6.9,11.8-15.3c0-7.3-3.8-14.9-11.8-14.9 C13.1,17.5,9.2,24.8,9.2,32.8z"/><path fill="#FFFFFF" d="M62.7,43.8c0,2.7,0.1,5.1,0.2,7.2h-4.3l-0.3-4.3h-0.1c-1.3,2.1-4,4.9-8.8,4.9c-4.2,0-9.1-2.3-9.1-11.6 V24.6h4.8v14.6c0,5,1.5,8.4,5.9,8.4c3.2,0,5.5-2.2,6.3-4.4c0.3-0.7,0.4-1.6,0.4-2.5V24.6h4.8V43.8z"/><path fill="#FFFFFF" d="M67.3,32.8c0-3.1-0.1-5.8-0.2-8.2h4.2l0.2,5.2h0.2c1.2-3.5,4.1-5.8,7.3-5.8c0.5,0,0.9,0.1,1.4,0.2v4.5 c-0.5-0.1-1-0.2-1.6-0.2c-3.4,0-5.8,2.6-6.5,6.2c-0.1,0.7-0.2,1.4-0.2,2.2V51h-4.8V32.8z"/><path fill="#FFFFFF" d="M95.4,51l-9.4-36.8h5l4.4,18.6c1.1,4.6,2.1,9.2,2.7,12.7h0.1c0.6-3.7,1.8-8,3-12.8l4.9-18.5h5l4.5,18.7 c1,4.4,2,8.7,2.6,12.6h0.1c0.8-4,1.8-8.1,3-12.7l4.9-18.5h4.9L120.6,51h-5L111,31.9c-1.1-4.7-1.9-8.3-2.4-12h-0.1 c-0.7,3.7-1.5,7.3-2.8,12L100.4,51H95.4z"/><path fill="#FFFFFF" d="M154.9,37.6c0,9.8-6.8,14-13.2,14c-7.2,0-12.7-5.2-12.7-13.6c0-8.8,5.8-14,13.1-14 C149.8,24,154.9,29.5,154.9,37.6z M133.9,37.9c0,5.8,3.3,10.1,8,10.1c4.6,0,8-4.3,8-10.3c0-4.5-2.2-10.1-7.9-10.1 C136.3,27.6,133.9,32.8,133.9,37.9z"/><path fill="#FFFFFF" d="M158.2,32.8c0-3.1-0.1-5.8-0.2-8.2h4.2l0.2,5.2h0.2c1.2-3.5,4.1-5.8,7.3-5.8c0.5,0,0.9,0.1,1.4,0.2v4.5 c-0.5-0.1-1-0.2-1.6-0.2c-3.4,0-5.8,2.6-6.5,6.2c-0.1,0.7-0.2,1.4-0.2,2.2V51h-4.8V32.8z"/><path fill="#FFFFFF" d="M173.5,12.3h4.8V51h-4.8V12.3z"/><path fill="#FFFFFF" d="M206.5,12.3v31.9c0,2.3,0.1,5,0.2,6.8h-4.3l-0.2-4.6H202c-1.5,2.9-4.7,5.2-9,5.2 c-6.4,0-11.3-5.4-11.3-13.4c-0.1-8.8,5.4-14.2,11.9-14.2c4,0,6.8,1.9,8,4h0.1V12.3H206.5z M201.7,35.4c0-0.6-0.1-1.4-0.2-2 c-0.7-3.1-3.3-5.6-6.9-5.6c-5,0-7.9,4.4-7.9,10.2c0,5.3,2.6,9.8,7.8,9.8c3.2,0,6.2-2.1,7.1-5.7c0.2-0.7,0.2-1.3,0.2-2.1V35.4z"/><path fill="#FFFFFF" d="M42.8,64c0.1,1.6-1.1,2.9-3.1,2.9c-1.7,0-2.9-1.3-2.9-2.9c0-1.7,1.3-3,3-3C41.7,61,42.8,62.3,42.8,64z M37.4,97.8V71.4h4.8v26.4H37.4z"/><path fill="#FFFFFF" d="M47.5,78.6c0-2.7-0.1-5-0.2-7.1h4.3l0.3,4.4h0.1c1.3-2.5,4.4-5,8.8-5c3.7,0,9.4,2.2,9.4,11.2v15.8h-4.8 V82.6c0-4.3-1.6-7.8-6.1-7.8c-3.2,0-5.6,2.2-6.5,4.9c-0.2,0.6-0.3,1.4-0.3,2.2v15.9h-4.8V78.6z"/><path fill="#FFFFFF" d="M84,61.6c2.9-0.4,6.3-0.8,10.1-0.8c6.8,0,11.7,1.6,14.9,4.6c3.3,3,5.2,7.3,5.2,13.2c0,6-1.9,10.9-5.3,14.3 c-3.4,3.4-9.1,5.3-16.3,5.3c-3.4,0-6.2-0.2-8.6-0.4V61.6z M88.8,94.1c1.2,0.2,3,0.3,4.8,0.3c10.2,0,15.7-5.7,15.7-15.6 c0.1-8.7-4.9-14.2-14.9-14.2c-2.5,0-4.3,0.2-5.6,0.5V94.1z"/><path fill="#FFFFFF" d="M132.1,97.8l-0.4-3.3h-0.2c-1.5,2.1-4.3,3.9-8.1,3.9c-5.4,0-8.1-3.8-8.1-7.6c0-6.4,5.7-9.9,15.9-9.8v-0.5 c0-2.2-0.6-6.1-6-6.1c-2.5,0-5,0.8-6.9,2l-1.1-3.2c2.2-1.4,5.4-2.3,8.7-2.3c8.1,0,10.1,5.5,10.1,10.8v9.9c0,2.3,0.1,4.5,0.4,6.3 H132.1z M131.4,84.4c-5.3-0.1-11.2,0.8-11.2,5.9c0,3.1,2.1,4.6,4.5,4.6c3.4,0,5.6-2.2,6.4-4.4c0.2-0.5,0.3-1,0.3-1.5V84.4z"/><path fill="#FFFFFF" d="M146.6,63.9v7.6h6.9v3.7h-6.9v14.2c0,3.3,0.9,5.1,3.6,5.1c1.3,0,2.2-0.2,2.8-0.3l0.2,3.6 c-0.9,0.4-2.4,0.7-4.3,0.7c-2.2,0-4-0.7-5.2-2c-1.4-1.4-1.9-3.8-1.9-6.9V75.1h-4.1v-3.7h4.1v-6.3L146.6,63.9z"/><path fill="#FFFFFF" d="M171.4,97.8l-0.4-3.3h-0.2c-1.5,2.1-4.3,3.9-8.1,3.9c-5.4,0-8.1-3.8-8.1-7.6c0-6.4,5.7-9.9,15.9-9.8v-0.5 c0-2.2-0.6-6.1-6-6.1c-2.5,0-5,0.8-6.9,2l-1.1-3.2c2.2-1.4,5.4-2.3,8.7-2.3c8.1,0,10.1,5.5,10.1,10.8v9.9c0,2.3,0.1,4.5,0.4,6.3 H171.4z M170.7,84.4c-5.3-0.1-11.2,0.8-11.2,5.9c0,3.1,2.1,4.6,4.5,4.6c3.4,0,5.6-2.2,6.4-4.4c0.2-0.5,0.3-1,0.3-1.5V84.4z"/></g></g></a></g><a href="https://ourworldindata.org/grapher/figure-11a" target="_blank"><text font-size="25.20" x="15.0" y="35.2" fill="#555"><tspan x="15" y="35.160000000000004">Figure 1.1a</tspan></text></a><text font-size="14.40" x="15.0" y="53.7" fill="#666"><tspan x="15" y="53.72">History’s hockey stick: Gross domestic product per capita in five countries (1000–2015)</tspan></text></g><g class="LineChart"><defs><clipPath id="boundsClip-1"><rect x="68.968" y="0" width="830" height="959.8"></rect></clipPath></defs><g class="AxisBoxView"><g class="HorizontalAxis"><text x="79" y="556.5" fill="#666" text-anchor="middle" font-size="16.2">1000</text><text x="202.1" y="556.5" fill="#666" text-anchor="middle" font-size="16.2">1200</text><text x="325.1" y="556.5" fill="#666" text-anchor="middle" font-size="16.2">1400</text><text x="448.2" y="556.5" fill="#666" text-anchor="middle" font-size="16.2">1600</text><text x="571.3" y="556.5" fill="#666" text-anchor="middle" font-size="16.2">1800</text><text x="703.6" y="556.5" fill="#666" text-anchor="middle" font-size="16.2">2015</text></g><g class="VerticalAxis"><text x="73.97" y="535.3" fill="#666" dominant-baseline="middle" text-anchor="end" font-size="16.2">$0</text><text x="73.97" y="445.9" fill="#666" dominant-baseline="middle" text-anchor="end" font-size="16.2">$5,000</text><text x="73.97" y="356.5" fill="#666" dominant-baseline="middle" text-anchor="end" font-size="16.2">$10,000</text><text x="73.97" y="267.2" fill="#666" dominant-baseline="middle" text-anchor="end" font-size="16.2">$15,000</text><text x="73.97" y="177.8" fill="#666" dominant-baseline="middle" text-anchor="end" font-size="16.2">$20,000</text><text x="73.97" y="88.4" fill="#666" dominant-baseline="middle" text-anchor="end" font-size="16.2">$25,000</text></g><g class="AxisGridLines"><line x1="78.97" y1="535.3" x2="703.61" y2="535.3" stroke="#ccc"></line><line x1="78.97" y1="445.9" x2="703.61" y2="445.9" stroke="#ddd" stroke-dasharray="3,2"></line><line x1="78.97" y1="356.5" x2="703.61" y2="356.5" stroke="#ddd" stroke-dasharray="3,2"></line><line x1="78.97" y1="267.2" x2="703.61" y2="267.2" stroke="#ddd" stroke-dasharray="3,2"></line><line x1="78.97" y1="177.8" x2="703.61" y2="177.8" stroke="#ddd" stroke-dasharray="3,2"></line><line x1="78.97" y1="88.4" x2="703.61" y2="88.4" stroke="#ddd" stroke-dasharray="3,2"></line></g></g><g clip-path="url(#boundsClip-1)"><g class="HeightedLegend clickable"><g class="legendMark"><rect x="703.61" y="69.85" width="131.39" height="13.5" fill="#fff" opacity="0"></rect><text font-size="13.50" x="708.6" y="80.6" fill="#a652ba"><tspan x="708.61" y="80.64999999999999">United Kingdom</tspan></text></g><g class="legendMark"><rect x="703.61" y="122.15" width="71.99000000000001" height="13.5" fill="#fff" opacity="0"></rect><text font-size="13.50" x="708.6" y="133.0" fill="#f6a324"><tspan x="708.61" y="132.95000000000002">Japan</tspan></text></g><g class="legendMark"><rect x="703.61" y="215.05" width="59.84" height="13.5" fill="#fff" opacity="0"></rect><text font-size="13.50" x="708.6" y="225.9" fill="#34983f"><tspan x="708.61" y="225.85000000000002">Italy</tspan></text></g><g class="legendMark"><rect x="703.61" y="324.15" width="70.37" height="13.5" fill="#fff" opacity="0"></rect><text font-size="13.50" x="708.6" y="334.9" fill="#ca2628"><tspan x="708.61" y="334.95">China</tspan></text></g><g class="legendMark"><rect x="703.61" y="450.75" width="64.43" height="13.5" fill="#fff" opacity="0"></rect><text font-size="13.50" x="708.6" y="461.6" fill="#3360a9"><tspan x="708.61" y="461.55">India</tspan></text></g></g><g class="Lines"><rect x="79" y="77" width="625" height="459" fill="rgba(255,255,255,0)" opacity="0"></rect><g class="key-India_0"><path stroke="#3360a9" stroke-linecap="round" d="M448 523L449 523L449 523L450 523L451 523L451 523L452 523L453 523L453 523L454 523L454 523L455 523L456 523L456 523L457 523L457 523L458 523L459 523L459 523L460 523L461 523L461 523L462 524L462 524L463 524L464 524L464 524L465 524L465 524L466 524L467 524L467 524L468 524L469 524L469 524L470 524L470 524L471 524L472 524L472 524L473 524L473 524L474 524L475 524L475 524L476 524L477 524L477 524L478 524L478 524L479 524L480 524L480 524L481 524L481 524L482 524L483 524L483 524L484 524L485 524L485 524L486 524L486 524L487 524L488 524L488 524L489 524L489 524L490 524L491 524L491 524L492 524L493 524L493 524L494 524L494 524L495 524L496 524L496 524L497 524L497 524L498 524L499 524L499 524L500 524L501 524L501 524L502 524L502 524L503 524L504 524L504 524L505 524L505 524L506 524L507 524L507 524L508 524L509 524L509 524L510 524L510 524L511 524L512 524L512 524L513 524L513 524L514 524L515 524L515 524L516 524L517 524L517 524L518 524L518 524L519 525L520 525L520 525L521 525L521 525L522 525L523 525L523 525L524 525L525 525L525 525L526 525L526 525L527 525L528 525L528 525L529 525L529 525L530 525L531 525L531 525L532 525L533 525L533 525L534 525L534 525L535 525L536 525L536 525L537 525L537 525L538 525L539 525L539 525L540 525L541 525L541 525L542 525L542 525L543 525L544 525L544 525L545 525L545 525L546 525L547 525L547 525L548 525L549 525L549 525L550 525L550 525L551 525L552 525L552 525L553 525L553 525L554 525L555 525L555 525L556 525L557 525L557 525L558 525L558 525L559 525L560 525L560 525L561 525L562 525L562 525L563 525L563 525L564 525L565 525L565 525L566 525L566 525L567 525L568 525L568 525L569 525L570 525L570 525L571 525L571 525L572 525L573 525L573 525L574 525L574 525L575 525L576 525L576 525L577 525L578 525L578 525L579 525L579 525L580 525L581 525L581 525L582 525L582 525L583 525L584 525L584 525L585 525L586 525L586 525L587 525L587 525L588 525L589 525L589 525L590 525L590 525L591 525L592 525L592 525L593 525L594 525L594 525L595 525L595 525L596 525L597 525L597 525L598 525L598 525L599 525L600 525L600 525L601 525L602 525L602 525L603 525L603 525L604 525L605 525L605 526L606 526L606 526L607 526L608 526L608 526L609 526L610 526L610 526L611 526L611 526L612 526L613 526L613 526L614 526L614 526L615 526L616 526L616 526L617 526L618 526L618 526L619 526L619 526L620 526L621 526L621 526L622 526L622 526L623 526L624 525L624 526L625 525L626 525L626 525L627 525L627 526L628 525L629 525L629 525L630 525L630 526L631 524L632 524L632 525L633 525L634 524L634 524L635 524L635 524L636 524L637 524L637 524L638 524L638 523L639 523L640 523L640 523L641 523L642 523L642 523L643 523L643 523L644 524L645 523L645 524L646 523L646 523L647 523L648 523L648 523L649 523L650 523L650 523L651 522L651 522L652 523L653 523L653 523L654 523L654 523L655 523L656 523L656 523L657 523L658 523L658 523L659 523L659 523L660 523L661 523L661 524L662 524L662 524L663 524L664 524L664 524L665 524L666 524L666 523L667 523L667 523L668 523L669 523L669 523L670 522L670 522L671 522L672 521L672 521L673 522L674 522L674 521L675 521L675 520L676 520L677 520L677 520L678 520L678 520L679 519L680 519L680 519L681 518L682 519L682 519L683 518L683 518L684 517L685 516L685 516L686 516L686 515L687 514L688 513L688 512L689 512L690 511L690 510L691 509L691 508L692 506L693 505L693 504L694 503L694 502L695 500L696 500L696 497L697 495L698 492L698 489L699 485L699 483L700 479L701 475L701 471L702 469L702 466L703 462L704 458" fill="none" stroke-width="1.5"></path></g><g class="key-United-Kingdom_0"><path stroke="#a652ba" stroke-linecap="round" d="M79 522L80 522L80 522L81 522L81 522L82 522L83 522L83 522L84 522L85 522L85 522L86 522L86 522L87 522L88 522L88 522L89 522L89 522L90 522L91 522L91 522L92 522L93 522L93 522L94 522L94 522L95 522L96 522L96 522L97 522L97 522L98 522L99 522L99 522L100 522L101 522L101 522L102 522L102 522L103 522L104 522L104 522L105 522L105 522L106 522L107 522L107 522L108 522L109 522L109 522L110 522L110 522L111 522L112 522L112 522L113 522L113 522L114 522L115 522L115 522L116 522L117 522L117 522L118 522L118 522L119 522L120 522L120 522L121 522L121 522L122 522L123 522L123 522L124 522L125 522L125 522L126 522L126 522L127 522L128 522L128 522L129 522L129 522L130 522L131 522L131 522L132 522L133 522L133 522L134 522L134 522L135 522L136 522L136 522L137 522L137 522L138 522L139 522L139 522L140 522L141 522L141 522L142 522L142 522L143 522L144 522L144 522L145 522L145 522L146 522L147 522L147 522L148 522L149 522L149 522L150 522L150 522L151 522L152 522L152 522L153 522L153 522L154 522L155 522L155 522L156 522L157 522L157 522L158 522L158 522L159 523L160 523L160 523L161 523L161 523L162 523L163 523L163 523L164 523L165 523L165 523L166 523L166 523L167 523L168 523L168 523L169 523L169 523L170 523L171 523L171 523L172 523L173 523L173 523L174 523L174 523L175 523L176 523L176 523L177 523L177 523L178 523L179 523L179 523L180 523L181 523L181 523L182 523L182 523L183 523L184 523L184 523L185 523L185 523L186 523L187 523L187 523L188 523L189 523L189 523L190 523L190 523L191 523L192 523L192 523L193 523L193 523L194 523L195 523L195 523L196 523L197 523L197 523L198 523L198 523L199 523L200 523L200 523L201 523L201 523L202 523L203 523L203 523L204 523L205 523L205 523L206 523L206 523L207 523L208 523L208 523L209 523L209 523L210 523L211 523L211 523L212 523L213 523L213 523L214 523L214 523L215 523L216 523L216 523L217 523L217 523L218 523L219 523L219 523L220 523L221 523L221 523L222 523L222 523L223 523L224 523L224 523L225 523L225 523L226 523L227 523L227 523L228 523L229 523L229 523L230 523L230 523L231 523L232 523L232 523L233 523L233 523L234 523L235 523L235 523L236 523L237 523L237 523L238 523L238 523L239 523L240 523L240 523L241 523L241 523L242 523L243 523L243 523L244 523L245 523L245 523L246 523L246 523L247 523L248 523L248 523L249 523L249 523L250 523L251 523L251 523L252 523L253 523L253 523L254 523L254 523L255 523L256 523L256 523L257 523L257 523L258 523L259 523L259 523L260 522L261 522L261 522L262 522L262 522L263 522L264 522L264 522L265 522L265 522L266 522L267 522L267 522L268 522L269 522L269 522L270 522L270 522L271 522L272 522L272 522L273 522L273 522L274 522L275 522L275 522L276 522L277 522L277 522L278 522L278 522L279 522L280 522L280 522L281 522L281 522L282 522L283 522L283 522L284 522L285 522L285 522L286 522L286 521L287 521L288 521L288 521L289 521L289 521L290 521L291 521L291 521L292 521L293 521L293 521L294 521L294 521L295 521L296 521L296 521L297 521L297 521L298 521L299 520L299 520L300 520L301 520L301 520L302 520L302 520L303 520L304 520L304 520L305 519L305 519L306 519L307 519L307 519L308 519L309 519L309 519L310 519L310 519L311 518L312 518L312 518L313 518L313 518L314 518L315 518L315 518L316 518L317 517L317 517L318 517L318 517L319 517L320 517L320 517L321 517L321 516L322 516L323 516L323 516L324 516L325 516L325 516L326 516L326 516L327 516L328 516L328 516L329 516L329 516L330 516L331 516L331 516L332 516L333 516L333 516L334 516L334 516L335 516L336 516L336 516L337 516L337 516L338 516L339 516L339 516L340 516L341 516L341 516L342 516L342 516L343 516L344 516L344 516L345 516L345 516L346 516L347 516L347 516L348 516L349 516L349 516L350 516L350 516L351 516L352 516L352 516L353 516L353 516L354 516L355 516L355 516L356 516L357 516L357 516L358 516L358 516L359 516L360 516L360 516L361 516L361 516L362 516L363 516L363 516L364 516L365 516L365 516L366 516L366 516L367 516L368 516L368 516L369 516L369 516L370 516L371 516L371 516L372 516L373 516L373 516L374 516L374 516L375 516L376 516L376 516L377 516L377 516L378 516L379 516L379 516L380 516L381 516L381 516L382 516L382 516L383 516L384 516L384 516L385 516L385 516L386 516L387 516L387 516L388 516L389 516L389 516L390 516L390 516L391 516L392 516L392 516L393 516L393 516L394 516L395 516L395 516L396 516L397 516L397 516L398 516L398 516L399 516L400 516L400 516L401 516L401 516L402 516L403 516L403 516L404 516L405 516L405 516L406 516L406 516L407 516L408 516L408 516L409 516L409 516L410 516L411 516L411 516L412 516L413 516L413 516L414 516L414 516L415 516L416 516L416 516L417 516L417 516L418 516L419 516L419 516L420 516L421 516L421 516L422 516L422 516L423 516L424 516L424 516L425 516L425 516L426 516L427 516L427 516L428 516L429 516L429 516L430 515L430 516L431 516L432 516L432 516L433 516L433 516L434 516L435 516L435 516L436 516L437 516L437 516L438 516L438 516L439 516L440 516L440 516L441 516L441 516L442 516L443 516L443 516L444 516L445 516L445 516L446 516L446 516L447 516L448 516L448 516L449 516L449 516L450 516L451 516L451 516L452 516L453 516L453 516L454 516L454 516L455 516L456 516L456 516L457 516L457 516L458 516L459 516L459 516L460 516L461 516L461 516L462 516L462 516L463 516L464 516L464 516L465 516L465 516L466 516L467 516L467 516L468 516L469 516L469 516L470 516L470 516L471 516L472 516L472 516L473 516L473 516L474 516L475 516L475 516L476 516L477 516L477 516L478 516L478 516L479 516L480 516L480 516L481 516L481 516L482 516L483 515L483 515L484 515L485 515L485 515L486 515L486 515L487 514L488 514L488 514L489 514L489 514L490 514L491 514L491 513L492 513L493 513L493 513L494 513L494 513L495 512L496 512L496 512L497 512L497 512L498 512L499 511L499 511L500 511L501 511L501 511L502 511L502 510L503 510L504 510L504 510L505 510L505 510L506 509L507 509L507 509L508 509L509 509L509 508L510 508L510 506L511 507L512 509L512 504L513 506L513 510L514 507L515 506L515 510L516 512L517 510L517 510L518 511L518 509L519 510L520 509L520 508L521 506L521 507L522 505L523 506L523 506L524 507L525 507L525 506L526 507L526 508L527 507L528 508L528 507L529 507L529 506L530 505L531 506L531 506L532 505L533 506L533 506L534 506L534 507L535 506L536 505L536 506L537 507L537 506L538 506L539 505L539 505L540 505L541 505L541 506L542 505L542 505L543 506L544 505L544 506L545 504L545 504L546 503L547 503L547 502L548 503L549 503L549 503L550 503L550 503L551 503L552 503L552 501L553 502L553 502L554 503L555 503L555 504L556 503L557 502L557 502L558 502L558 502L559 501L560 501L560 501L561 501L562 502L562 502L563 502L563 503L564 503L565 503L565 501L566 501L566 500L567 501L568 503L568 499L569 499L570 500L570 500L571 499L571 498L572 498L573 498L573 499L574 499L574 498L575 498L576 497L576 499L577 498L578 496L578 497L579 499L579 498L580 499L581 496L581 499L582 499L582 499L583 501L584 498L584 498L585 498L586 498L586 496L587 496L587 498L588 496L589 497L589 497L590 496L590 496L591 495L592 495L592 495L593 492L594 491L594 492L595 491L595 492L596 490L597 492L597 493L598 491L598 488L599 486L600 487L600 488L601 486L602 486L602 494L603 492L603 491L604 490L605 489L605 489L606 487L606 486L607 486L608 485L608 485L609 484L610 484L610 484L611 483L611 482L612 481L613 482L613 481L614 481L614 478L615 476L616 476L616 475L617 475L618 474L618 474L619 474L619 475L620 475L621 473L621 472L622 470L622 470L623 471L624 471L624 471L625 469L626 467L626 463L627 464L627 464L628 467L629 467L629 463L630 462L630 459L631 459L632 456L632 454L633 455L634 456L634 454L635 456L635 456L636 455L637 453L637 452L638 456L638 455L639 453L640 451L640 450L641 447L642 447L642 441L643 439L643 438L644 438L645 448L645 454L646 456L646 452L647 450L648 447L648 443L649 447L650 440L650 440L651 437L651 438L652 443L653 443L653 441L654 435L654 432L655 427L656 424L656 423L657 423L658 413L658 402L659 399L659 397L660 403L661 409L661 415L662 417L662 415L663 411L664 411L664 408L665 409L666 404L666 399L667 395L667 394L668 392L669 393L669 388L670 381L670 377L671 377L672 372L672 364L673 361L674 359L674 356L675 349L675 347L676 343L677 340L677 333L678 320L678 323L679 324L680 319L680 314L681 306L682 300L682 304L683 307L683 304L684 296L685 290L685 282L686 272L686 260L687 247L688 242L688 242L689 247L690 247L690 241L691 229L691 221L692 213L693 194L693 183L694 173L694 159L695 150L696 142L696 128L697 119L698 110L698 101L699 88L699 96L700 115L701 110L701 104L702 102L702 95L703 85L704 77" fill="none" stroke-width="1.5"></path></g><g class="key-China_0"><path stroke="#ca2628" stroke-linecap="round" d="M79 511L80 510L80 510L81 510L81 510L82 510L83 510L83 510L84 510L85 509L85 509L86 509L86 509L87 509L88 509L88 509L89 508L89 508L90 508L91 508L91 508L92 508L93 508L93 508L94 508L94 508L95 508L96 508L96 508L97 508L97 508L98 508L99 508L99 508L100 508L101 508L101 509L102 509L102 509L103 509L104 509L104 509L105 509L105 509L106 509L107 509L107 509L108 509L109 509L109 509L110 509L110 509L111 509L112 509L112 510L113 510L113 510L114 510L115 510L115 510L116 510L117 511L117 511L118 511L118 511L119 511L120 511L120 511L121 511L121 512L122 512L123 512L123 512L124 512L125 512L125 512L126 512L126 513L127 513L128 513L128 513L129 513L129 513L130 513L131 513L131 513L132 514L133 514L133 514L134 514L134 514L135 514L136 514L136 514L137 514L137 514L138 514L139 514L139 515L140 515L141 515L141 515L142 515L142 515L143 515L144 515L144 515L145 515L145 515L146 515L147 515L147 516L148 516L149 516L149 516L150 516L150 516L151 516L152 516L152 516L153 516L153 516L154 516L155 516L155 516L156 516L157 516L157 516L158 516L158 516L159 516L160 516L160 516L161 516L161 516L162 516L163 516L163 516L164 516L165 516L165 516L166 516L166 516L167 516L168 516L168 516L169 516L169 516L170 516L171 516L171 516L172 516L173 516L173 516L174 516L174 516L175 516L176 516L176 516L177 516L177 516L178 516L179 516L179 516L180 516L181 516L181 516L182 516L182 516L183 516L184 517L184 517L185 517L185 517L186 517L187 517L187 517L188 517L189 517L189 517L190 517L190 517L191 517L192 517L192 517L193 517L193 517L194 517L195 517L195 517L196 517L197 517L197 517L198 517L198 517L199 517L200 517L200 517L201 517L201 517L202 517L203 517L203 517L204 517L205 517L205 517L206 517L206 517L207 517L208 517L208 517L209 517L209 517L210 517L211 517L211 517L212 517L213 517L213 517L214 517L214 517L215 517L216 517L216 517L217 517L217 517L218 517L219 517L219 517L220 517L221 517L221 517L222 517L222 517L223 517L224 517L224 517L225 517L225 517L226 517L227 517L227 517L228 517L229 517L229 517L230 517L230 517L231 517L232 517L232 517L233 517L233 517L234 517L235 517L235 517L236 517L237 517L237 517L238 517L238 517L239 517L240 517L240 517L241 517L241 517L242 517L243 517L243 517L244 517L245 517L245 517L246 517L246 517L247 517L248 517L248 517L249 517L249 517L250 517L251 517L251 517L252 517L253 517L253 517L254 517L254 517L255 517L256 517L256 517L257 517L257 517L258 517L259 517L259 517L260 517L261 517L261 517L262 517L262 517L263 517L264 517L264 517L265 517L265 517L266 517L267 517L267 517L268 517L269 517L269 517L270 517L270 517L271 517L272 517L272 517L273 517L273 517L274 517L275 517L275 517L276 518L277 518L277 518L278 518L278 518L279 518L280 518L280 518L281 518L281 518L282 518L283 518L283 518L284 518L285 518L285 518L286 518L286 518L287 518L288 518L288 518L289 518L289 518L290 518L291 518L291 518L292 518L293 518L293 518L294 518L294 518L295 518L296 518L296 518L297 518L297 518L298 518L299 518L299 518L300 518L301 518L301 518L302 518L302 518L303 518L304 518L304 518L305 518L305 518L306 518L307 518L307 518L308 518L309 518L309 518L310 518L310 518L311 518L312 518L312 518L313 518L313 518L314 518L315 518L315 518L316 518L317 518L317 518L318 518L318 518L319 518L320 518L320 518L321 518L321 518L322 518L323 518L323 518L324 518L325 518L325 518L326 518L326 518L327 518L328 518L328 518L329 518L329 518L330 518L331 518L331 518L332 518L333 518L333 518L334 518L334 518L335 518L336 518L336 518L337 518L337 518L338 518L339 518L339 518L340 518L341 518L341 518L342 518L342 518L343 518L344 518L344 518L345 518L345 518L346 518L347 518L347 518L348 518L349 518L349 518L350 518L350 518L351 518L352 518L352 518L353 518L353 518L354 518L355 518L355 518L356 518L357 518L357 518L358 517L358 517L359 517L360 517L360 517L361 517L361 517L362 517L363 517L363 517L364 517L365 517L365 517L366 517L366 517L367 517L368 517L368 517L369 517L369 517L370 516L371 516L371 516L372 516L373 516L373 516L374 516L374 516L375 516L376 516L376 516L377 516L377 516L378 516L379 516L379 516L380 516L381 516L381 515L382 515L382 515L383 515L384 515L384 515L385 515L385 515L386 515L387 515L387 515L388 515L389 515L389 515L390 515L390 515L391 515L392 515L392 515L393 515L393 515L394 516L395 516L395 516L396 516L397 516L397 516L398 516L398 516L399 516L400 516L400 516L401 516L401 516L402 516L403 516L403 516L404 516L405 516L405 516L406 516L406 516L407 516L408 516L408 516L409 517L409 517L410 517L411 517L411 517L412 517L413 517L413 517L414 517L414 517L415 517L416 517L416 517L417 517L417 517L418 517L419 517L419 517L420 517L421 517L421 517L422 517L422 517L423 517L424 517L424 518L425 518L425 518L426 518L427 518L427 518L428 518L429 518L429 518L430 518L430 518L431 518L432 518L432 518L433 518L433 518L434 518L435 518L435 518L436 518L437 518L437 518L438 518L438 518L439 518L440 518L440 518L441 518L441 518L442 518L443 518L443 518L444 518L445 518L445 518L446 518L446 518L447 518L448 518L448 518L449 518L449 518L450 518L451 518L451 518L452 518L453 518L453 518L454 518L454 518L455 518L456 518L456 518L457 518L457 518L458 518L459 518L459 518L460 518L461 518L461 518L462 518L462 518L463 518L464 518L464 518L465 518L465 518L466 518L467 518L467 519L468 519L469 519L469 519L470 519L470 519L471 519L472 519L472 519L473 519L473 519L474 519L475 519L475 519L476 519L477 519L477 519L478 519L478 519L479 519L480 519L480 519L481 519L481 519L482 519L483 519L483 519L484 519L485 519L485 519L486 519L486 519L487 519L488 519L488 519L489 519L489 519L490 519L491 519L491 519L492 519L493 520L493 520L494 520L494 520L495 520L496 520L496 520L497 520L497 520L498 520L499 520L499 520L500 520L501 520L501 520L502 520L502 520L503 520L504 520L504 520L505 520L505 520L506 520L507 520L507 520L508 520L509 520L509 520L510 520L510 520L511 520L512 520L512 520L513 520L513 521L514 521L515 521L515 521L516 521L517 521L517 521L518 521L518 521L519 521L520 521L520 521L521 521L521 521L522 521L523 521L523 521L524 522L525 522L525 522L526 522L526 522L527 522L528 522L528 522L529 522L529 522L530 522L531 522L531 522L532 522L533 522L533 522L534 522L534 522L535 523L536 523L536 523L537 523L537 523L538 523L539 523L539 523L540 523L541 523L541 523L542 523L542 523L543 523L544 523L544 523L545 523L545 523L546 523L547 523L547 523L548 523L549 523L549 523L550 523L550 524L551 524L552 524L552 524L553 524L553 524L554 524L555 524L555 524L556 524L557 524L557 524L558 524L558 524L559 524L560 524L560 524L561 524L562 524L562 524L563 524L563 524L564 524L565 524L565 524L566 524L566 524L567 524L568 524L568 524L569 524L570 524L570 525L571 525L571 525L572 525L573 525L573 525L574 525L574 525L575 525L576 525L576 525L577 525L578 525L578 525L579 525L579 525L580 525L581 525L581 525L582 525L582 525L583 525L584 525L584 525L585 525L586 525L586 525L587 525L587 525L588 525L589 525L589 525L590 525L590 525L591 525L592 525L592 525L593 525L594 525L594 525L595 525L595 525L596 525L597 525L597 525L598 525L598 525L599 525L600 525L600 525L601 525L602 525L602 525L603 525L603 525L604 525L605 525L605 525L606 525L606 525L607 525L608 525L608 525L609 525L610 525L610 525L611 526L611 526L612 526L613 526L613 526L614 526L614 526L615 526L616 526L616 526L617 526L618 526L618 526L619 526L619 526L620 526L621 526L621 526L622 526L622 526L623 526L624 526L624 526L625 526L626 526L626 526L627 526L627 526L628 526L629 526L629 526L630 526L630 526L631 526L632 526L632 526L633 526L634 526L634 526L635 526L635 526L636 526L637 526L637 526L638 526L638 526L639 526L640 525L640 525L641 525L642 525L642 525L643 525L643 525L644 525L645 525L645 525L646 525L646 525L647 525L648 525L648 525L649 525L650 525L650 525L651 525L651 525L652 525L653 525L653 525L654 526L654 525L655 525L656 525L656 525L657 525L658 526L658 526L659 526L659 526L660 526L661 527L661 527L662 527L662 527L663 527L664 527L664 527L665 526L666 525L666 525L667 525L667 524L668 524L669 523L669 523L670 524L670 525L671 526L672 525L672 524L673 523L674 522L674 523L675 523L675 523L676 521L677 521L677 521L678 520L678 520L679 520L680 520L680 519L681 518L682 517L682 516L683 516L683 514L684 513L685 510L685 508L686 507L686 504L687 503L688 503L688 502L689 500L690 497L690 494L691 490L691 484L692 484L693 481L693 482L694 479L694 474L695 468L696 460L696 449L697 443L698 436L698 427L699 423L699 415L700 405L701 392L701 379L702 368L702 356L703 343L704 331" fill="none" stroke-width="1.5"></path></g><g class="key-Japan_0"><path stroke="#f6a324" stroke-linecap="round" d="M79 526L80 526L80 526L81 526L81 526L82 526L83 526L83 526L84 526L85 526L85 526L86 526L86 526L87 526L88 526L88 526L89 526L89 526L90 526L91 526L91 526L92 526L93 526L93 526L94 526L94 526L95 526L96 526L96 526L97 526L97 526L98 526L99 526L99 526L100 526L101 526L101 526L102 526L102 526L103 526L104 526L104 526L105 526L105 526L106 526L107 526L107 526L108 526L109 526L109 526L110 526L110 526L111 526L112 526L112 526L113 526L113 526L114 526L115 526L115 526L116 526L117 526L117 526L118 526L118 526L119 526L120 526L120 526L121 526L121 526L122 526L123 526L123 526L124 526L125 526L125 526L126 526L126 526L127 526L128 526L128 526L129 526L129 526L130 526L131 526L131 526L132 526L133 526L133 526L134 526L134 526L135 526L136 526L136 526L137 526L137 526L138 526L139 526L139 526L140 526L141 526L141 526L142 526L142 526L143 526L144 526L144 526L145 526L145 526L146 526L147 526L147 526L148 526L149 526L149 526L150 526L150 526L151 526L152 526L152 526L153 526L153 526L154 526L155 526L155 526L156 526L157 526L157 526L158 526L158 526L159 526L160 526L160 526L161 526L161 526L162 526L163 526L163 526L164 526L165 526L165 526L166 526L166 526L167 526L168 526L168 526L169 526L169 526L170 526L171 526L171 526L172 526L173 526L173 526L174 526L174 526L175 526L176 526L176 526L177 526L177 526L178 526L179 526L179 526L180 526L181 526L181 526L182 526L182 526L183 526L184 526L184 526L185 526L185 526L186 526L187 526L187 526L188 526L189 526L189 526L190 526L190 526L191 526L192 526L192 526L193 526L193 526L194 526L195 526L195 526L196 526L197 526L197 526L198 526L198 526L199 526L200 526L200 526L201 526L201 526L202 526L203 526L203 526L204 526L205 526L205 526L206 526L206 526L207 526L208 526L208 526L209 526L209 526L210 526L211 526L211 526L212 526L213 526L213 526L214 526L214 526L215 526L216 526L216 526L217 526L217 526L218 526L219 526L219 526L220 526L221 526L221 526L222 526L222 526L223 526L224 526L224 526L225 526L225 526L226 526L227 526L227 526L228 526L229 526L229 526L230 526L230 526L231 526L232 526L232 526L233 526L233 526L234 526L235 526L235 526L236 526L237 526L237 526L238 526L238 526L239 526L240 526L240 526L241 526L241 526L242 526L243 526L243 526L244 526L245 526L245 526L246 526L246 526L247 526L248 526L248 526L249 526L249 526L250 526L251 526L251 526L252 526L253 526L253 526L254 526L254 526L255 526L256 526L256 526L257 526L257 526L258 526L259 526L259 526L260 526L261 526L261 526L262 526L262 526L263 526L264 526L264 526L265 526L265 526L266 526L267 526L267 526L268 526L269 526L269 526L270 526L270 526L271 526L272 526L272 526L273 526L273 526L274 526L275 526L275 526L276 526L277 526L277 526L278 526L278 526L279 526L280 526L280 526L281 526L281 526L282 526L283 526L283 526L284 526L285 526L285 526L286 526L286 526L287 526L288 526L288 526L289 526L289 526L290 526L291 526L291 526L292 526L293 526L293 526L294 526L294 526L295 526L296 526L296 526L297 526L297 526L298 526L299 526L299 526L300 526L301 526L301 526L302 526L302 526L303 526L304 526L304 526L305 526L305 526L306 526L307 526L307 526L308 526L309 526L309 526L310 526L310 526L311 526L312 526L312 526L313 526L313 526L314 526L315 526L315 526L316 526L317 526L317 526L318 526L318 526L319 526L320 526L320 526L321 526L321 526L322 526L323 526L323 526L324 526L325 526L325 526L326 526L326 526L327 526L328 526L328 526L329 526L329 526L330 526L331 526L331 526L332 526L333 526L333 526L334 526L334 526L335 526L336 526L336 526L337 526L337 526L338 526L339 526L339 526L340 526L341 526L341 526L342 526L342 526L343 526L344 526L344 526L345 526L345 526L346 526L347 526L347 526L348 526L349 526L349 526L350 526L350 526L351 526L352 526L352 526L353 526L353 526L354 526L355 526L355 526L356 526L357 526L357 526L358 526L358 526L359 526L360 526L360 526L361 526L361 526L362 526L363 526L363 526L364 526L365 526L365 526L366 526L366 526L367 526L368 526L368 526L369 526L369 526L370 526L371 526L371 526L372 526L373 526L373 526L374 526L374 526L375 526L376 526L376 526L377 526L377 526L378 526L379 526L379 526L380 526L381 526L381 526L382 526L382 526L383 526L384 526L384 526L385 526L385 526L386 526L387 526L387 526L388 526L389 526L389 526L390 526L390 526L391 526L392 526L392 526L393 526L393 526L394 526L395 526L395 526L396 526L397 526L397 526L398 526L398 526L399 526L400 526L400 526L401 526L401 526L402 526L403 526L403 526L404 526L405 526L405 525L406 525L406 525L407 525L408 525L408 525L409 525L409 525L410 525L411 525L411 525L412 525L413 525L413 525L414 525L414 525L415 525L416 525L416 525L417 525L417 525L418 525L419 525L419 525L420 525L421 525L421 525L422 525L422 525L423 525L424 525L424 525L425 525L425 525L426 525L427 525L427 525L428 525L429 525L429 525L430 525L430 525L431 525L432 525L432 525L433 525L433 525L434 525L435 525L435 525L436 525L437 525L437 525L438 525L438 525L439 525L440 525L440 525L441 525L441 525L442 525L443 525L443 525L444 525L445 525L445 525L446 525L446 525L447 525L448 525L448 525L449 525L449 525L450 525L451 525L451 525L452 525L453 525L453 525L454 525L454 525L455 525L456 525L456 525L457 525L457 525L458 525L459 525L459 525L460 525L461 525L461 525L462 525L462 525L463 525L464 525L464 525L465 525L465 525L466 525L467 525L467 525L468 525L469 525L469 525L470 525L470 525L471 525L472 525L472 525L473 525L473 525L474 525L475 525L475 525L476 525L477 525L477 525L478 525L478 525L479 525L480 525L480 525L481 525L481 525L482 525L483 525L483 525L484 525L485 525L485 525L486 525L486 525L487 525L488 525L488 525L489 525L489 525L490 525L491 525L491 525L492 525L493 525L493 525L494 525L494 525L495 525L496 525L496 525L497 525L497 525L498 525L499 525L499 525L500 525L501 524L501 524L502 524L502 524L503 524L504 524L504 524L505 524L505 524L506 524L507 524L507 524L508 524L509 524L509 524L510 524L510 524L511 524L512 524L512 524L513 524L513 524L514 524L515 524L515 524L516 524L517 524L517 524L518 524L518 524L519 524L520 524L520 524L521 524L521 524L522 524L523 524L523 524L524 524L525 524L525 524L526 524L526 524L527 524L528 524L528 524L529 524L529 524L530 524L531 524L531 524L532 525L533 525L533 525L534 525L534 525L535 525L536 525L536 525L537 525L537 525L538 525L539 525L539 525L540 525L541 525L541 525L542 525L542 525L543 525L544 525L544 525L545 525L545 525L546 525L547 525L547 524L548 524L549 524L549 524L550 524L550 524L551 524L552 524L552 524L553 524L553 524L554 524L555 524L555 524L556 524L557 524L557 524L558 524L558 524L559 524L560 524L560 524L561 524L562 524L562 524L563 524L563 524L564 524L565 524L565 524L566 524L566 524L567 524L568 524L568 524L569 524L570 524L570 524L571 524L571 524L572 524L573 524L573 524L574 524L574 524L575 524L576 524L576 524L577 524L578 524L578 524L579 524L579 524L580 524L581 524L581 524L582 524L582 524L583 524L584 524L584 524L585 524L586 524L586 524L587 524L587 524L588 524L589 523L589 523L590 523L590 523L591 523L592 523L592 523L593 523L594 523L594 523L595 523L595 523L596 523L597 523L597 523L598 523L598 523L599 523L600 523L600 523L601 523L602 523L602 523L603 523L603 523L604 523L605 523L605 523L606 523L606 523L607 523L608 523L608 523L609 523L610 523L610 523L611 522L611 522L612 522L613 522L613 522L614 522L614 522L615 522L616 522L616 522L617 522L618 521L618 521L619 521L619 521L620 520L621 520L621 521L622 520L622 520L623 520L624 520L624 519L625 518L626 519L626 519L627 517L627 518L628 517L629 517L629 515L630 515L630 517L631 516L632 513L632 515L633 514L634 514L634 515L635 514L635 514L636 515L637 512L637 512L638 512L638 512L639 512L640 511L640 511L641 511L642 512L642 510L643 506L643 506L644 506L645 503L645 505L646 502L646 503L647 503L648 503L648 502L649 502L650 502L650 500L651 499L651 502L652 503L653 500L653 497L654 498L654 497L655 495L656 494L656 492L657 485L658 484L658 484L659 485L659 485L660 488L661 511L661 510L662 508L662 505L663 503L664 501L664 497L665 494L666 491L666 489L667 486L667 483L668 479L669 477L669 472L670 464L670 456L671 450L672 444L672 434L673 429L674 419L674 408L675 393L675 377L676 362L677 356L677 343L678 331L678 336L679 333L680 327L680 320L681 310L682 300L682 295L683 289L683 284L684 280L685 271L685 261L686 255L686 245L687 228L688 215L688 199L689 190L690 188L690 188L691 186L691 180L692 172L693 167L693 175L694 177L694 169L695 169L696 169L696 163L697 155L698 150L698 143L699 135L699 139L700 161L701 143L701 145L702 138L702 132L703 131L704 129" fill="none" stroke-width="1.5"></path></g><g class="key-Italy_0"><path stroke="#34983f" stroke-linecap="round" d="M79 510L80 510L80 510L81 510L81 510L82 510L83 510L83 510L84 510L85 510L85 510L86 510L86 510L87 510L88 510L88 510L89 510L89 510L90 510L91 510L91 510L92 510L93 510L93 510L94 510L94 510L95 509L96 509L96 509L97 509L97 509L98 509L99 509L99 509L100 509L101 509L101 509L102 509L102 509L103 509L104 509L104 509L105 509L105 509L106 509L107 509L107 509L108 509L109 509L109 509L110 509L110 509L111 509L112 509L112 509L113 509L113 509L114 509L115 509L115 509L116 509L117 509L117 509L118 509L118 509L119 509L120 509L120 509L121 509L121 509L122 509L123 509L123 509L124 509L125 509L125 509L126 509L126 509L127 509L128 509L128 509L129 509L129 509L130 509L131 509L131 509L132 509L133 509L133 509L134 509L134 509L135 509L136 509L136 509L137 509L137 509L138 509L139 509L139 509L140 509L141 509L141 509L142 509L142 509L143 509L144 509L144 509L145 509L145 509L146 509L147 509L147 509L148 509L149 509L149 509L150 509L150 509L151 509L152 508L152 508L153 508L153 508L154 508L155 508L155 508L156 508L157 508L157 508L158 508L158 508L159 508L160 508L160 508L161 508L161 508L162 508L163 508L163 508L164 508L165 508L165 508L166 508L166 508L167 508L168 508L168 508L169 508L169 508L170 508L171 508L171 508L172 508L173 508L173 508L174 508L174 508L175 508L176 508L176 508L177 508L177 508L178 508L179 508L179 508L180 508L181 508L181 508L182 508L182 508L183 508L184 508L184 508L185 508L185 508L186 508L187 508L187 508L188 508L189 508L189 508L190 508L190 508L191 508L192 508L192 508L193 508L193 508L194 508L195 508L195 508L196 508L197 508L197 508L198 508L198 508L199 508L200 508L200 508L201 508L201 508L202 508L203 508L203 508L204 508L205 508L205 508L206 507L206 507L207 507L208 507L208 507L209 507L209 507L210 507L211 507L211 507L212 507L213 507L213 507L214 507L214 507L215 507L216 507L216 507L217 507L217 507L218 507L219 507L219 507L220 507L221 507L221 507L222 507L222 507L223 507L224 507L224 507L225 507L225 507L226 507L227 507L227 507L228 507L229 507L229 507L230 507L230 507L231 507L232 507L232 507L233 507L233 507L234 507L235 507L235 507L236 507L237 507L237 507L238 507L238 507L239 507L240 507L240 507L241 507L241 507L242 507L243 507L243 507L244 507L245 507L245 507L246 507L246 507L247 507L248 507L248 507L249 507L249 507L250 507L251 507L251 507L252 507L253 507L253 507L254 507L254 507L255 507L256 507L256 507L257 507L257 507L258 507L259 506L259 506L260 506L261 506L261 506L262 506L262 506L263 506L264 506L264 506L265 506L265 507L266 507L267 507L267 507L268 507L269 507L269 507L270 507L270 507L271 507L272 507L272 507L273 507L273 507L274 507L275 507L275 507L276 507L277 507L277 507L278 507L278 507L279 507L280 507L280 507L281 507L281 508L282 508L283 508L283 508L284 508L285 508L285 508L286 508L286 508L287 508L288 508L288 508L289 508L289 508L290 508L291 508L291 508L292 508L293 508L293 508L294 508L294 508L295 508L296 508L296 508L297 508L297 508L298 508L299 508L299 507L300 507L301 507L301 507L302 507L302 507L303 507L304 507L304 507L305 507L305 507L306 507L307 507L307 506L308 506L309 506L309 506L310 506L310 506L311 506L312 506L312 506L313 506L313 506L314 506L315 505L315 505L316 505L317 505L317 505L318 505L318 505L319 505L320 505L320 505L321 505L321 505L322 504L323 504L323 504L324 504L325 504L325 504L326 504L326 504L327 504L328 504L328 504L329 504L329 504L330 504L331 504L331 504L332 505L333 505L333 505L334 505L334 505L335 505L336 505L336 505L337 505L337 505L338 505L339 505L339 505L340 505L341 505L341 505L342 505L342 505L343 505L344 505L344 505L345 505L345 505L346 505L347 505L347 506L348 506L349 506L349 506L350 506L350 506L351 506L352 506L352 506L353 506L353 506L354 506L355 506L355 506L356 506L357 506L357 506L358 506L358 506L359 506L360 506L360 506L361 506L361 506L362 506L363 506L363 507L364 507L365 507L365 507L366 507L366 507L367 507L368 507L368 507L369 507L369 507L370 507L371 507L371 507L372 507L373 507L373 507L374 507L374 507L375 507L376 507L376 507L377 507L377 507L378 507L379 507L379 508L380 508L381 508L381 508L382 508L382 508L383 508L384 508L384 508L385 508L385 508L386 508L387 508L387 508L388 508L389 508L389 508L390 508L390 508L391 508L392 508L392 508L393 508L393 508L394 508L395 508L395 508L396 508L397 508L397 508L398 508L398 508L399 508L400 508L400 508L401 508L401 508L402 508L403 508L403 508L404 508L405 509L405 509L406 509L406 509L407 509L408 509L408 509L409 509L409 509L410 509L411 509L411 509L412 509L413 509L413 509L414 509L414 509L415 509L416 509L416 509L417 509L417 509L418 509L419 509L419 509L420 509L421 509L421 509L422 509L422 509L423 509L424 509L424 509L425 509L425 509L426 509L427 509L427 509L428 509L429 509L429 509L430 509L430 509L431 509L432 509L432 510L433 510L433 510L434 510L435 510L435 510L436 510L437 510L437 510L438 510L438 510L439 510L440 510L440 510L441 510L441 510L442 510L443 510L443 511L444 511L445 511L445 511L446 511L446 511L447 511L448 511L448 511L449 511L449 511L450 511L451 511L451 511L452 511L453 511L453 511L454 511L454 511L455 511L456 511L456 511L457 511L457 511L458 511L459 511L459 511L460 511L461 511L461 511L462 511L462 511L463 511L464 511L464 511L465 511L465 511L466 511L467 511L467 511L468 511L469 511L469 511L470 511L470 511L471 511L472 511L472 511L473 510L473 510L474 510L475 510L475 510L476 510L477 510L477 510L478 510L478 510L479 510L480 510L480 510L481 510L481 510L482 510L483 510L483 510L484 510L485 510L485 510L486 510L486 510L487 510L488 510L488 510L489 510L489 510L490 510L491 510L491 510L492 510L493 510L493 510L494 510L494 510L495 510L496 510L496 510L497 510L497 510L498 510L499 509L499 509L500 509L501 509L501 509L502 509L502 509L503 509L504 509L504 509L505 509L505 509L506 509L507 509L507 509L508 509L509 509L509 509L510 509L510 509L511 509L512 509L512 509L513 509L513 509L514 509L515 509L515 509L516 509L517 509L517 509L518 509L518 509L519 509L520 509L520 509L521 509L521 509L522 509L523 509L523 509L524 509L525 508L525 508L526 508L526 508L527 508L528 508L528 508L529 508L529 508L530 508L531 508L531 508L532 508L533 508L533 508L534 508L534 508L535 508L536 508L536 508L537 508L537 508L538 508L539 508L539 508L540 508L541 508L541 508L542 508L542 508L543 508L544 508L544 508L545 508L545 508L546 509L547 509L547 509L548 509L549 509L549 509L550 509L550 509L551 509L552 509L552 509L553 509L553 509L554 509L555 509L555 509L556 510L557 510L557 510L558 510L558 510L559 510L560 510L560 510L561 510L562 510L562 510L563 510L563 510L564 510L565 510L565 510L566 510L566 511L567 511L568 511L568 511L569 511L570 511L570 511L571 511L571 511L572 511L573 511L573 510L574 509L574 510L575 509L576 509L576 507L577 507L578 509L578 510L579 510L579 509L580 509L581 510L581 510L582 510L582 508L583 508L584 508L584 509L585 508L586 508L586 508L587 508L587 507L588 508L589 508L589 508L590 508L590 507L591 507L592 507L592 507L593 506L594 508L594 509L595 508L595 509L596 508L597 507L597 507L598 508L598 508L599 508L600 508L600 509L601 508L602 509L602 509L603 509L603 509L604 510L605 512L605 511L606 511L606 509L607 508L608 509L608 509L609 509L610 509L610 508L611 508L611 507L612 507L613 509L613 509L614 508L614 508L615 508L616 509L616 509L617 508L618 508L618 508L619 508L619 507L620 507L621 507L621 506L622 506L622 505L623 506L624 505L624 505L625 504L626 504L626 505L627 505L627 505L628 505L629 504L629 504L630 504L630 503L631 503L632 503L632 503L633 502L634 502L634 501L635 501L635 500L636 499L637 498L637 498L638 497L638 496L639 496L640 496L640 496L641 494L642 496L642 498L643 495L643 495L644 496L645 498L645 497L646 498L646 495L647 492L648 491L648 489L649 489L650 490L650 488L651 486L651 488L652 489L653 489L653 489L654 490L654 488L655 490L656 486L656 485L657 482L658 484L658 485L659 488L659 495L660 503L661 507L661 497L662 490L662 486L663 483L664 479L664 474L665 471L666 467L666 465L667 460L667 457L668 453L669 449L669 444L670 438L670 431L671 424L672 419L672 415L673 411L674 404L674 395L675 386L675 377L676 368L677 366L677 360L678 349L678 340L679 346L680 333L680 329L681 323L682 311L682 304L683 303L683 302L684 299L685 292L685 285L686 278L686 270L687 259L688 249L688 244L689 239L690 238L690 241L691 236L691 228L692 225L693 219L693 215L694 211L694 200L695 195L696 194L696 196L697 192L698 191L698 184L699 181L699 187L700 209L701 204L701 204L702 214L702 221L703 223L704 222" fill="none" stroke-width="1.5"></path></g></g></g></g><g style="fill: #777;" class="SourcesFooter"><g style="fill: #777;" class="clickable"><text font-size="12.60" x="15.0" y="581.6"><tspan x="15" y="581.58">Source: Gross Domestic Product Data - Bolt, Zanden (2013) and Broadberry (2013)</tspan></text></g><text font-size="12.60" x="649.0" y="581.6"><tspan x="649.024" y="581.58"><a target='_blank' style='fill: #777;' href='https://ourworldindata.org'>OurWorldInData.org</a> • <a style="fill: #777;" href="http://creativecommons.org/licenses/by-sa/4.0/deed.en_US" target="_blank">CC BY-SA</a></tspan></text></g></g></svg>