<svg xmlns="http://www.w3.org/2000/svg" version="1.1" style="font-family: 'Helvetica Neue', Helvetica, Arial, sans-serif; font-size: 18px; background-color: white; text-rendering: optimizeLegibility; -webkit-font-smoothing: antialiased;" width="850" height="600"><g class="ChartTab"><g class="HeaderView"><g opacity="0.8" transform="translate(778, 15) scale(0.27)"><a xmlns:xlink="http://www.w3.org/1999/xlink" xlink:href="https://ourworldindata.org" target="_blank"><g><rect x="0" y="0" fill="#1B2543" width="211.2" height="130.1"/><rect x="0" y="112.2" fill="#E63912" width="211.2" height="17.9"/><g><rect x="1.2" y="12.3" fill="none" width="210.2" height="99.2"/><path fill="#FFFFFF" d="M37.8,32.2c0,12.7-7.7,19.4-17.1,19.4c-9.7,0-16.6-7.5-16.6-18.7c0-11.7,7.3-19.3,17.1-19.3 C31.3,13.7,37.8,21.3,37.8,32.2z M9.2,32.8c0,7.9,4.3,14.9,11.8,14.9c7.5,0,11.8-6.9,11.8-15.3c0-7.3-3.8-14.9-11.8-14.9 C13.1,17.5,9.2,24.8,9.2,32.8z"/><path fill="#FFFFFF" d="M62.7,43.8c0,2.7,0.1,5.1,0.2,7.2h-4.3l-0.3-4.3h-0.1c-1.3,2.1-4,4.9-8.8,4.9c-4.2,0-9.1-2.3-9.1-11.6 V24.6h4.8v14.6c0,5,1.5,8.4,5.9,8.4c3.2,0,5.5-2.2,6.3-4.4c0.3-0.7,0.4-1.6,0.4-2.5V24.6h4.8V43.8z"/><path fill="#FFFFFF" d="M67.3,32.8c0-3.1-0.1-5.8-0.2-8.2h4.2l0.2,5.2h0.2c1.2-3.5,4.1-5.8,7.3-5.8c0.5,0,0.9,0.1,1.4,0.2v4.5 c-0.5-0.1-1-0.2-1.6-0.2c-3.4,0-5.8,2.6-6.5,6.2c-0.1,0.7-0.2,1.4-0.2,2.2V51h-4.8V32.8z"/><path fill="#FFFFFF" d="M95.4,51l-9.4-36.8h5l4.4,18.6c1.1,4.6,2.1,9.2,2.7,12.7h0.1c0.6-3.7,1.8-8,3-12.8l4.9-18.5h5l4.5,18.7 c1,4.4,2,8.7,2.6,12.6h0.1c0.8-4,1.8-8.1,3-12.7l4.9-18.5h4.9L120.6,51h-5L111,31.9c-1.1-4.7-1.9-8.3-2.4-12h-0.1 c-0.7,3.7-1.5,7.3-2.8,12L100.4,51H95.4z"/><path fill="#FFFFFF" d="M154.9,37.6c0,9.8-6.8,14-13.2,14c-7.2,0-12.7-5.2-12.7-13.6c0-8.8,5.8-14,13.1-14 C149.8,24,154.9,29.5,154.9,37.6z M133.9,37.9c0,5.8,3.3,10.1,8,10.1c4.6,0,8-4.3,8-10.3c0-4.5-2.2-10.1-7.9-10.1 C136.3,27.6,133.9,32.8,133.9,37.9z"/><path fill="#FFFFFF" d="M158.2,32.8c0-3.1-0.1-5.8-0.2-8.2h4.2l0.2,5.2h0.2c1.2-3.5,4.1-5.8,7.3-5.8c0.5,0,0.9,0.1,1.4,0.2v4.5 c-0.5-0.1-1-0.2-1.6-0.2c-3.4,0-5.8,2.6-6.5,6.2c-0.1,0.7-0.2,1.4-0.2,2.2V51h-4.8V32.8z"/><path fill="#FFFFFF" d="M173.5,12.3h4.8V51h-4.8V12.3z"/><path fill="#FFFFFF" d="M206.5,12.3v31.9c0,2.3,0.1,5,0.2,6.8h-4.3l-0.2-4.6H202c-1.5,2.9-4.7,5.2-9,5.2 c-6.4,0-11.3-5.4-11.3-13.4c-0.1-8.8,5.4-14.2,11.9-14.2c4,0,6.8,1.9,8,4h0.1V12.3H206.5z M201.7,35.4c0-0.6-0.1-1.4-0.2-2 c-0.7-3.1-3.3-5.6-6.9-5.6c-5,0-7.9,4.4-7.9,10.2c0,5.3,2.6,9.8,7.8,9.8c3.2,0,6.2-2.1,7.1-5.7c0.2-0.7,0.2-1.3,0.2-2.1V35.4z"/><path fill="#FFFFFF" d="M42.8,64c0.1,1.6-1.1,2.9-3.1,2.9c-1.7,0-2.9-1.3-2.9-2.9c0-1.7,1.3-3,3-3C41.7,61,42.8,62.3,42.8,64z M37.4,97.8V71.4h4.8v26.4H37.4z"/><path fill="#FFFFFF" d="M47.5,78.6c0-2.7-0.1-5-0.2-7.1h4.3l0.3,4.4h0.1c1.3-2.5,4.4-5,8.8-5c3.7,0,9.4,2.2,9.4,11.2v15.8h-4.8 V82.6c0-4.3-1.6-7.8-6.1-7.8c-3.2,0-5.6,2.2-6.5,4.9c-0.2,0.6-0.3,1.4-0.3,2.2v15.9h-4.8V78.6z"/><path fill="#FFFFFF" d="M84,61.6c2.9-0.4,6.3-0.8,10.1-0.8c6.8,0,11.7,1.6,14.9,4.6c3.3,3,5.2,7.3,5.2,13.2c0,6-1.9,10.9-5.3,14.3 c-3.4,3.4-9.1,5.3-16.3,5.3c-3.4,0-6.2-0.2-8.6-0.4V61.6z M88.8,94.1c1.2,0.2,3,0.3,4.8,0.3c10.2,0,15.7-5.7,15.7-15.6 c0.1-8.7-4.9-14.2-14.9-14.2c-2.5,0-4.3,0.2-5.6,0.5V94.1z"/><path fill="#FFFFFF" d="M132.1,97.8l-0.4-3.3h-0.2c-1.5,2.1-4.3,3.9-8.1,3.9c-5.4,0-8.1-3.8-8.1-7.6c0-6.4,5.7-9.9,15.9-9.8v-0.5 c0-2.2-0.6-6.1-6-6.1c-2.5,0-5,0.8-6.9,2l-1.1-3.2c2.2-1.4,5.4-2.3,8.7-2.3c8.1,0,10.1,5.5,10.1,10.8v9.9c0,2.3,0.1,4.5,0.4,6.3 H132.1z M131.4,84.4c-5.3-0.1-11.2,0.8-11.2,5.9c0,3.1,2.1,4.6,4.5,4.6c3.4,0,5.6-2.2,6.4-4.4c0.2-0.5,0.3-1,0.3-1.5V84.4z"/><path fill="#FFFFFF" d="M146.6,63.9v7.6h6.9v3.7h-6.9v14.2c0,3.3,0.9,5.1,3.6,5.1c1.3,0,2.2-0.2,2.8-0.3l0.2,3.6 c-0.9,0.4-2.4,0.7-4.3,0.7c-2.2,0-4-0.7-5.2-2c-1.4-1.4-1.9-3.8-1.9-6.9V75.1h-4.1v-3.7h4.1v-6.3L146.6,63.9z"/><path fill="#FFFFFF" d="M171.4,97.8l-0.4-3.3h-0.2c-1.5,2.1-4.3,3.9-8.1,3.9c-5.4,0-8.1-3.8-8.1-7.6c0-6.4,5.7-9.9,15.9-9.8v-0.5 c0-2.2-0.6-6.1-6-6.1c-2.5,0-5,0.8-6.9,2l-1.1-3.2c2.2-1.4,5.4-2.3,8.7-2.3c8.1,0,10.1,5.5,10.1,10.8v9.9c0,2.3,0.1,4.5,0.4,6.3 H171.4z M170.7,84.4c-5.3-0.1-11.2,0.8-11.2,5.9c0,3.1,2.1,4.6,4.5,4.6c3.4,0,5.6-2.2,6.4-4.4c0.2-0.5,0.3-1,0.3-1.5V84.4z"/></g></g></a></g><a href="https://ourworldindata.org/grapher/gdp-per-capita" target="_blank"><text font-size="25.20" x="15.0" y="35.2" fill="#555"><tspan x="15" y="35.160000000000004">GDP per capita</tspan></text></a></g><g class="LineChart"><defs><clipPath id="boundsClip-1"><rect x="59.896" y="0" width="830" height="973"></rect></clipPath></defs><g class="AxisBoxView"><g class="HorizontalAxis"><text x="69.9" y="556.5" fill="#666" text-anchor="middle" font-size="16.2">1000</text><text x="194.8" y="556.5" fill="#666" text-anchor="middle" font-size="16.2">1200</text><text x="319.6" y="556.5" fill="#666" text-anchor="middle" font-size="16.2">1400</text><text x="444.5" y="556.5" fill="#666" text-anchor="middle" font-size="16.2">1600</text><text x="569.4" y="556.5" fill="#666" text-anchor="middle" font-size="16.2">1800</text><text x="703.6" y="556.5" fill="#666" text-anchor="middle" font-size="16.2">2015</text></g><g class="VerticalAxis"><text x="64.90" y="535.3" fill="#666" dominant-baseline="middle" text-anchor="end" font-size="16.2">0</text><text x="64.90" y="444.6" fill="#666" dominant-baseline="middle" text-anchor="end" font-size="16.2">5,000</text><text x="64.90" y="354" fill="#666" dominant-baseline="middle" text-anchor="end" font-size="16.2">10,000</text><text x="64.90" y="263.3" fill="#666" dominant-baseline="middle" text-anchor="end" font-size="16.2">15,000</text><text x="64.90" y="172.7" fill="#666" dominant-baseline="middle" text-anchor="end" font-size="16.2">20,000</text><text x="64.90" y="82" fill="#666" dominant-baseline="middle" text-anchor="end" font-size="16.2">25,000</text></g><g class="AxisGridLines"><line x1="69.90" y1="535.3" x2="703.61" y2="535.3" stroke="#ccc"></line><line x1="69.90" y1="444.6" x2="703.61" y2="444.6" stroke="#ddd" stroke-dasharray="3,2"></line><line x1="69.90" y1="354" x2="703.61" y2="354" stroke="#ddd" stroke-dasharray="3,2"></line><line x1="69.90" y1="263.3" x2="703.61" y2="263.3" stroke="#ddd" stroke-dasharray="3,2"></line><line x1="69.90" y1="172.7" x2="703.61" y2="172.7" stroke="#ddd" stroke-dasharray="3,2"></line><line x1="69.90" y1="82" x2="703.61" y2="82" stroke="#ddd" stroke-dasharray="3,2"></line></g></g><g clip-path="url(#boundsClip-1)"><g class="HeightedLegend clickable"><g class="legendMark"><rect x="703.61" y="63.25" width="131.39" height="13.5" fill="#fff" opacity="0"></rect><text font-size="13.50" x="708.6" y="74.0" fill="#a652ba"><tspan x="708.61" y="74.05">United Kingdom</tspan></text></g><g class="legendMark"><rect x="703.61" y="116.35" width="71.99000000000001" height="13.5" fill="#fff" opacity="0"></rect><text font-size="13.50" x="708.6" y="127.1" fill="#f6a324"><tspan x="708.61" y="127.14999999999999">Japan</tspan></text></g><g class="legendMark"><rect x="703.61" y="210.55" width="59.84" height="13.5" fill="#fff" opacity="0"></rect><text font-size="13.50" x="708.6" y="221.4" fill="#34983f"><tspan x="708.61" y="221.35000000000002">Italy</tspan></text></g><g class="legendMark"><rect x="703.61" y="321.25" width="70.37" height="13.5" fill="#fff" opacity="0"></rect><text font-size="13.50" x="708.6" y="332.1" fill="#ca2628"><tspan x="708.61" y="332.05">China</tspan></text></g><g class="legendMark"><rect x="703.61" y="449.55" width="64.43" height="13.5" fill="#fff" opacity="0"></rect><text font-size="13.50" x="708.6" y="460.4" fill="#3360a9"><tspan x="708.61" y="460.35">India</tspan></text></g></g><g class="Lines"><rect x="70" y="70" width="634" height="465" fill="rgba(255,255,255,0)" opacity="0"></rect><g class="key-China_0"><path stroke="#ca2628" stroke-linecap="round" d="M70 510L71 510L71 510L72 510L72 510L73 510L74 509L74 509L75 509L76 509L76 509L77 509L77 509L78 508L79 508L79 508L80 508L81 508L81 508L82 508L82 508L83 508L84 508L84 508L85 508L86 508L86 508L87 508L87 508L88 508L89 508L89 508L90 508L91 508L91 508L92 508L92 508L93 508L94 508L94 508L95 508L96 508L96 508L97 508L97 508L98 508L99 509L99 509L100 509L101 509L101 509L102 509L102 509L103 509L104 509L104 509L105 509L106 510L106 510L107 510L107 510L108 510L109 510L109 510L110 511L111 511L111 511L112 511L112 511L113 511L114 511L114 511L115 512L116 512L116 512L117 512L117 512L118 512L119 512L119 512L120 513L121 513L121 513L122 513L122 513L123 513L124 513L124 513L125 513L126 514L126 514L127 514L127 514L128 514L129 514L129 514L130 514L131 514L131 514L132 514L132 514L133 514L134 515L134 515L135 515L136 515L136 515L137 515L137 515L138 515L139 515L139 515L140 515L140 515L141 515L142 516L142 516L143 516L144 516L144 516L145 516L145 516L146 516L147 516L147 516L148 516L149 516L149 516L150 516L150 516L151 516L152 516L152 516L153 516L154 516L154 516L155 516L155 516L156 516L157 516L157 516L158 516L159 516L159 516L160 516L160 516L161 516L162 516L162 516L163 516L164 516L164 516L165 516L165 516L166 516L167 516L167 516L168 516L169 516L169 516L170 516L170 516L171 516L172 516L172 516L173 516L174 516L174 516L175 516L175 516L176 516L177 516L177 516L178 516L179 516L179 516L180 516L180 516L181 516L182 516L182 516L183 516L184 516L184 516L185 516L185 516L186 516L187 516L187 516L188 516L189 516L189 516L190 516L190 516L191 516L192 516L192 516L193 516L194 516L194 516L195 516L195 516L196 516L197 516L197 516L198 516L199 516L199 516L200 516L200 517L201 517L202 517L202 517L203 517L204 517L204 517L205 517L205 517L206 517L207 517L207 517L208 517L209 517L209 517L210 517L210 517L211 517L212 517L212 517L213 517L214 517L214 517L215 517L215 517L216 517L217 517L217 517L218 517L219 517L219 517L220 517L220 517L221 517L222 517L222 517L223 517L224 517L224 517L225 517L225 517L226 517L227 517L227 517L228 517L229 517L229 517L230 517L230 517L231 517L232 517L232 517L233 517L234 517L234 517L235 517L235 517L236 517L237 517L237 517L238 517L239 517L239 517L240 517L240 517L241 517L242 517L242 517L243 517L244 517L244 517L245 517L245 517L246 517L247 517L247 517L248 517L249 517L249 517L250 517L250 517L251 517L252 517L252 517L253 517L254 517L254 517L255 517L255 517L256 517L257 517L257 517L258 517L258 517L259 517L260 517L260 517L261 517L262 517L262 517L263 517L263 517L264 517L265 517L265 517L266 517L267 517L267 517L268 517L268 517L269 517L270 517L270 517L271 517L272 517L272 517L273 517L273 517L274 517L275 517L275 517L276 517L277 517L277 517L278 517L278 517L279 517L280 517L280 517L281 517L282 517L282 517L283 517L283 517L284 517L285 517L285 517L286 517L287 517L287 517L288 517L288 517L289 517L290 517L290 517L291 517L292 517L292 517L293 517L293 517L294 518L295 518L295 518L296 518L297 518L297 518L298 518L298 518L299 518L300 518L300 518L301 518L302 518L302 518L303 518L303 518L304 518L305 518L305 518L306 518L307 518L307 518L308 518L308 518L309 518L310 518L310 518L311 518L312 518L312 518L313 518L313 518L314 518L315 518L315 518L316 518L317 518L317 518L318 518L318 518L319 518L320 518L320 518L321 518L322 518L322 518L323 518L323 518L324 518L325 518L325 518L326 518L327 518L327 518L328 518L328 518L329 518L330 518L330 518L331 518L332 518L332 518L333 518L333 518L334 518L335 518L335 518L336 518L337 518L337 518L338 518L338 518L339 518L340 517L340 517L341 517L342 517L342 517L343 517L343 517L344 517L345 517L345 517L346 517L347 517L347 517L348 517L348 517L349 517L350 517L350 517L351 517L352 517L352 517L353 517L353 517L354 517L355 517L355 517L356 517L357 517L357 517L358 517L358 517L359 517L360 517L360 517L361 517L362 516L362 516L363 516L363 516L364 516L365 516L365 516L366 516L367 516L367 516L368 516L368 516L369 516L370 516L370 516L371 516L372 516L372 516L373 516L373 515L374 515L375 515L375 515L376 515L377 515L377 515L378 515L378 515L379 515L380 515L380 515L381 515L381 515L382 515L383 515L383 515L384 515L385 515L385 515L386 515L386 515L387 515L388 515L388 515L389 515L390 515L390 515L391 515L391 515L392 515L393 515L393 516L394 516L395 516L395 516L396 516L396 516L397 516L398 516L398 516L399 516L400 516L400 516L401 516L401 516L402 516L403 516L403 516L404 516L405 516L405 516L406 516L406 516L407 516L408 516L408 517L409 517L410 517L410 517L411 517L411 517L412 517L413 517L413 517L414 517L415 517L415 517L416 517L416 517L417 517L418 517L418 517L419 517L420 517L420 517L421 517L421 517L422 517L423 517L423 517L424 518L425 518L425 518L426 518L426 518L427 518L428 518L428 518L429 518L430 518L430 518L431 518L431 518L432 518L433 518L433 518L434 518L435 518L435 518L436 518L436 518L437 518L438 518L438 518L439 518L440 517L440 517L441 517L441 517L442 517L443 517L443 517L444 517L445 517L445 517L446 518L446 518L447 518L448 518L448 518L449 518L450 518L450 518L451 518L451 518L452 518L453 518L453 518L454 518L455 518L455 518L456 518L456 518L457 518L458 518L458 518L459 518L460 518L460 518L461 518L461 518L462 518L463 518L463 518L464 518L465 518L465 518L466 518L466 518L467 518L468 518L468 518L469 518L470 518L470 519L471 519L471 519L472 519L473 519L473 519L474 519L475 519L475 519L476 519L476 519L477 519L478 519L478 519L479 519L480 519L480 519L481 519L481 519L482 519L483 519L483 519L484 519L485 519L485 519L486 519L486 519L487 519L488 519L488 519L489 519L490 519L490 519L491 519L491 519L492 519L493 519L493 519L494 519L495 519L495 520L496 520L496 520L497 520L498 520L498 520L499 520L499 520L500 520L501 520L501 520L502 520L503 520L503 520L504 520L504 520L505 520L506 520L506 520L507 520L508 520L508 520L509 520L509 520L510 520L511 520L511 520L512 520L513 521L513 521L514 521L514 521L515 521L516 521L516 521L517 521L518 521L518 521L519 521L519 521L520 521L521 521L521 521L522 521L523 521L523 522L524 522L524 522L525 522L526 522L526 522L527 522L528 522L528 522L529 522L529 522L530 522L531 522L531 522L532 522L533 522L533 522L534 522L534 522L535 523L536 523L536 523L537 523L538 523L538 523L539 523L539 523L540 523L541 523L541 523L542 523L543 523L543 523L544 523L544 523L545 523L546 523L546 523L547 523L548 523L548 523L549 523L549 523L550 523L551 523L551 524L552 524L553 524L553 524L554 524L554 524L555 524L556 524L556 524L557 524L558 524L558 524L559 524L559 524L560 524L561 524L561 524L562 524L563 524L563 524L564 524L564 524L565 524L566 524L566 524L567 524L568 524L568 524L569 524L569 524L570 524L571 524L571 524L572 524L573 524L573 524L574 524L574 524L575 524L576 524L576 524L577 524L578 524L578 524L579 524L579 524L580 524L581 524L581 524L582 524L583 524L583 524L584 524L584 524L585 524L586 524L586 524L587 524L588 524L588 524L589 524L589 524L590 524L591 524L591 524L592 524L593 524L593 524L594 524L594 524L595 524L596 524L596 524L597 524L598 524L598 524L599 524L599 524L600 524L601 524L601 525L602 525L603 525L603 525L604 525L604 525L605 525L606 525L606 525L607 525L608 525L608 525L609 525L609 525L610 525L611 525L611 526L612 526L613 526L613 526L614 526L614 526L615 526L616 526L616 526L617 526L617 526L618 526L619 526L619 526L620 526L621 526L621 526L622 526L622 526L623 526L624 526L624 526L625 526L626 526L626 526L627 526L627 526L628 526L629 526L629 525L630 525L631 525L631 525L632 525L632 525L633 525L634 525L634 525L635 525L636 525L636 525L637 525L637 525L638 525L639 525L639 525L640 525L641 525L641 525L642 525L642 525L643 525L644 525L644 525L645 525L646 525L646 525L647 525L647 525L648 525L649 525L649 525L650 525L651 525L651 525L652 525L652 525L653 526L654 525L654 525L655 525L656 525L656 525L657 526L657 526L658 526L659 526L659 526L660 526L661 527L661 527L662 527L662 527L663 527L664 526L664 526L665 525L666 525L666 525L667 524L667 524L668 523L669 523L669 523L670 525L671 525L671 525L672 524L672 523L673 522L674 523L674 523L675 522L676 521L676 521L677 521L677 520L678 520L679 520L679 520L680 519L681 518L681 517L682 516L682 515L683 514L684 513L684 510L685 508L686 506L686 504L687 502L687 502L688 501L689 500L689 497L690 493L691 490L691 483L692 483L692 481L693 481L694 478L694 473L695 467L696 459L696 448L697 442L697 434L698 426L699 421L699 413L700 403L701 390L701 377L702 365L702 353L703 341L704 328" fill="none" stroke-width="1.5"></path></g><g class="key-India_0"><path stroke="#3360a9" stroke-linecap="round" d="M445 523L445 523L446 523L446 523L447 523L448 523L448 523L449 523L450 523L450 523L451 523L451 523L452 523L453 523L453 523L454 523L455 523L455 523L456 523L456 523L457 523L458 523L458 523L459 523L460 523L460 523L461 523L461 523L462 523L463 523L463 523L464 523L465 524L465 524L466 524L466 524L467 524L468 524L468 524L469 524L470 524L470 524L471 524L471 524L472 524L473 524L473 524L474 524L475 524L475 524L476 524L476 524L477 524L478 524L478 524L479 524L480 524L480 524L481 524L481 524L482 524L483 524L483 524L484 524L485 524L485 524L486 524L486 524L487 524L488 524L488 524L489 524L490 524L490 524L491 524L491 524L492 524L493 524L493 524L494 524L495 524L495 524L496 524L496 524L497 524L498 524L498 524L499 524L499 524L500 524L501 524L501 524L502 524L503 524L503 524L504 524L504 524L505 524L506 524L506 524L507 524L508 524L508 524L509 524L509 524L510 524L511 524L511 524L512 524L513 524L513 524L514 524L514 524L515 524L516 524L516 524L517 524L518 524L518 524L519 524L519 524L520 524L521 524L521 524L522 525L523 525L523 525L524 525L524 525L525 525L526 525L526 525L527 525L528 525L528 525L529 525L529 525L530 525L531 525L531 525L532 525L533 525L533 525L534 525L534 525L535 525L536 525L536 525L537 525L538 525L538 525L539 525L539 525L540 525L541 525L541 525L542 525L543 525L543 525L544 525L544 525L545 525L546 525L546 525L547 525L548 525L548 525L549 525L549 525L550 525L551 525L551 525L552 525L553 525L553 525L554 525L554 525L555 525L556 525L556 525L557 525L558 525L558 525L559 525L559 525L560 525L561 525L561 525L562 525L563 525L563 525L564 525L564 525L565 525L566 525L566 525L567 525L568 525L568 525L569 525L569 525L570 525L571 525L571 525L572 525L573 525L573 525L574 525L574 525L575 525L576 525L576 525L577 525L578 525L578 525L579 525L579 525L580 525L581 525L581 525L582 525L583 525L583 525L584 525L584 525L585 525L586 525L586 525L587 525L588 525L588 525L589 525L589 525L590 525L591 525L591 525L592 525L593 525L593 525L594 525L594 525L595 525L596 525L596 525L597 525L598 525L598 525L599 525L599 525L600 525L601 525L601 525L602 525L603 525L603 525L604 525L604 525L605 525L606 525L606 525L607 525L608 525L608 526L609 526L609 526L610 526L611 526L611 526L612 526L613 526L613 526L614 526L614 526L615 526L616 526L616 526L617 526L617 526L618 526L619 525L619 525L620 525L621 525L621 525L622 525L622 525L623 525L624 525L624 525L625 525L626 525L626 526L627 525L627 525L628 525L629 525L629 526L630 524L631 524L631 525L632 524L632 524L633 523L634 523L634 523L635 524L636 523L636 524L637 524L637 523L638 523L639 523L639 523L640 523L641 523L641 523L642 522L642 523L643 524L644 523L644 524L645 523L646 523L646 523L647 523L647 523L648 522L649 523L649 523L650 522L651 522L651 522L652 522L652 523L653 523L654 523L654 523L655 523L656 523L656 523L657 523L657 523L658 523L659 523L659 523L660 523L661 524L661 524L662 524L662 524L663 524L664 524L664 524L665 523L666 523L666 523L667 523L667 523L668 522L669 522L669 522L670 522L671 522L671 521L672 520L672 521L673 522L674 521L674 521L675 520L676 520L676 520L677 520L677 520L678 520L679 519L679 519L680 518L681 518L681 519L682 518L682 518L683 517L684 516L684 516L685 516L686 515L686 515L687 513L687 512L688 512L689 512L689 511L690 510L691 509L691 507L692 506L692 505L693 504L694 502L694 501L695 500L696 499L696 497L697 494L697 491L698 488L699 484L699 482L700 478L701 474L701 470L702 468L702 465L703 461L704 456" fill="none" stroke-width="1.5"></path></g><g class="key-Italy_0"><path stroke="#34983f" stroke-linecap="round" d="M70 509L71 509L71 509L72 509L72 509L73 509L74 509L74 509L75 509L76 509L76 509L77 509L77 509L78 509L79 509L79 509L80 509L81 509L81 509L82 509L82 509L83 509L84 509L84 509L85 509L86 509L86 509L87 509L87 509L88 509L89 509L89 509L90 509L91 509L91 509L92 509L92 509L93 509L94 509L94 509L95 509L96 509L96 509L97 509L97 509L98 509L99 509L99 509L100 509L101 509L101 509L102 509L102 509L103 509L104 509L104 509L105 509L106 509L106 509L107 509L107 509L108 509L109 509L109 509L110 509L111 509L111 509L112 509L112 509L113 509L114 509L114 509L115 509L116 509L116 509L117 509L117 509L118 509L119 509L119 509L120 509L121 509L121 509L122 509L122 508L123 508L124 508L124 508L125 508L126 508L126 508L127 508L127 508L128 508L129 508L129 508L130 508L131 508L131 508L132 508L132 508L133 508L134 508L134 508L135 508L136 508L136 508L137 508L137 508L138 508L139 508L139 508L140 508L140 508L141 508L142 508L142 508L143 508L144 508L144 508L145 508L145 508L146 508L147 508L147 508L148 508L149 508L149 508L150 508L150 508L151 508L152 508L152 508L153 508L154 508L154 508L155 508L155 508L156 508L157 508L157 508L158 508L159 508L159 508L160 508L160 508L161 508L162 508L162 508L163 508L164 508L164 508L165 508L165 508L166 508L167 508L167 508L168 508L169 508L169 508L170 508L170 508L171 508L172 508L172 508L173 508L174 508L174 508L175 508L175 508L176 508L177 508L177 507L178 507L179 507L179 507L180 507L180 507L181 507L182 507L182 507L183 507L184 507L184 507L185 507L185 507L186 507L187 507L187 507L188 507L189 507L189 507L190 507L190 507L191 507L192 507L192 507L193 507L194 507L194 507L195 507L195 507L196 507L197 507L197 507L198 507L199 507L199 507L200 507L200 507L201 507L202 507L202 507L203 507L204 507L204 507L205 507L205 507L206 507L207 507L207 507L208 507L209 507L209 507L210 507L210 507L211 507L212 507L212 507L213 507L214 507L214 507L215 507L215 507L216 507L217 507L217 507L218 507L219 507L219 507L220 507L220 507L221 507L222 507L222 507L223 507L224 507L224 507L225 507L225 507L226 507L227 507L227 507L228 507L229 507L229 507L230 507L230 506L231 506L232 506L232 506L233 506L234 506L234 506L235 506L235 506L236 506L237 506L237 506L238 506L239 506L239 506L240 506L240 506L241 506L242 506L242 506L243 506L244 506L244 506L245 506L245 506L246 506L247 506L247 506L248 506L249 506L249 506L250 506L250 506L251 506L252 506L252 506L253 506L254 506L254 506L255 506L255 506L256 506L257 506L257 506L258 506L258 506L259 506L260 506L260 506L261 506L262 506L262 506L263 506L263 506L264 506L265 506L265 507L266 507L267 507L267 507L268 507L268 507L269 507L270 507L270 507L271 507L272 507L272 507L273 507L273 507L274 507L275 507L275 507L276 507L277 507L277 507L278 507L278 507L279 507L280 507L280 507L281 507L282 508L282 508L283 508L283 508L284 508L285 508L285 508L286 508L287 508L287 508L288 508L288 508L289 508L290 508L290 507L291 507L292 507L292 507L293 507L293 507L294 507L295 507L295 507L296 507L297 507L297 507L298 507L298 506L299 506L300 506L300 506L301 506L302 506L302 506L303 506L303 506L304 506L305 506L305 506L306 505L307 505L307 505L308 505L308 505L309 505L310 505L310 505L311 505L312 505L312 505L313 505L313 504L314 504L315 504L315 504L316 504L317 504L317 504L318 504L318 504L319 504L320 504L320 504L321 504L322 504L322 504L323 504L323 504L324 504L325 504L325 504L326 504L327 504L327 504L328 504L328 504L329 504L330 504L330 504L331 504L332 504L332 504L333 504L333 505L334 505L335 505L335 505L336 505L337 505L337 505L338 505L338 505L339 505L340 505L340 505L341 505L342 505L342 505L343 505L343 505L344 505L345 505L345 505L346 505L347 505L347 505L348 505L348 505L349 506L350 506L350 506L351 506L352 506L352 506L353 506L353 506L354 506L355 506L355 506L356 506L357 506L357 506L358 506L358 506L359 506L360 506L360 506L361 506L362 506L362 506L363 506L363 506L364 506L365 507L365 507L366 507L367 507L367 507L368 507L368 507L369 507L370 507L370 507L371 507L372 507L372 507L373 507L373 507L374 507L375 507L375 507L376 507L377 507L377 507L378 507L378 507L379 507L380 507L380 507L381 507L381 508L382 508L383 508L383 508L384 508L385 508L385 508L386 508L386 508L387 508L388 508L388 508L389 508L390 508L390 508L391 508L391 508L392 508L393 508L393 508L394 508L395 508L395 508L396 508L396 508L397 508L398 508L398 508L399 508L400 508L400 508L401 508L401 508L402 508L403 508L403 508L404 508L405 508L405 508L406 508L406 508L407 508L408 508L408 508L409 508L410 508L410 508L411 508L411 508L412 508L413 509L413 509L414 509L415 509L415 509L416 509L416 509L417 509L418 509L418 509L419 509L420 509L420 509L421 509L421 509L422 509L423 509L423 509L424 509L425 509L425 509L426 509L426 509L427 509L428 509L428 509L429 509L430 509L430 509L431 509L431 509L432 509L433 510L433 510L434 510L435 510L435 510L436 510L436 510L437 510L438 510L438 510L439 510L440 510L440 510L441 510L441 510L442 510L443 510L443 511L444 511L445 511L445 511L446 511L446 511L447 511L448 511L448 511L449 511L450 511L450 511L451 511L451 510L452 510L453 510L453 510L454 510L455 510L455 510L456 510L456 510L457 510L458 510L458 510L459 510L460 510L460 510L461 510L461 510L462 510L463 510L463 510L464 510L465 510L465 510L466 510L466 510L467 510L468 510L468 510L469 510L470 510L470 510L471 510L471 510L472 510L473 510L473 510L474 510L475 510L475 510L476 510L476 510L477 510L478 510L478 510L479 510L480 510L480 510L481 510L481 510L482 510L483 510L483 510L484 510L485 510L485 510L486 510L486 510L487 510L488 509L488 509L489 509L490 509L490 509L491 509L491 509L492 509L493 509L493 509L494 509L495 509L495 509L496 509L496 509L497 509L498 509L498 509L499 509L499 509L500 509L501 509L501 509L502 509L503 509L503 509L504 509L504 509L505 509L506 509L506 509L507 509L508 509L508 509L509 509L509 509L510 508L511 508L511 508L512 508L513 508L513 508L514 508L514 508L515 508L516 508L516 508L517 508L518 508L518 508L519 508L519 508L520 508L521 508L521 508L522 508L523 508L523 508L524 508L524 508L525 508L526 508L526 508L527 508L528 508L528 508L529 508L529 508L530 508L531 508L531 508L532 508L533 508L533 508L534 508L534 508L535 508L536 508L536 508L537 508L538 508L538 508L539 508L539 508L540 508L541 508L541 508L542 508L543 508L543 508L544 508L544 508L545 508L546 508L546 508L547 508L548 509L548 509L549 509L549 509L550 509L551 509L551 509L552 509L553 509L553 509L554 509L554 509L555 509L556 509L556 509L557 509L558 510L558 510L559 510L559 510L560 510L561 510L561 510L562 510L563 510L563 510L564 510L564 510L565 510L566 510L566 510L567 510L568 510L568 511L569 511L569 511L570 511L571 510L571 509L572 508L573 509L573 509L574 509L574 507L575 507L576 509L576 510L577 509L578 509L578 508L579 510L579 510L580 510L581 508L581 508L582 508L583 508L583 508L584 508L584 507L585 508L586 507L586 507L587 508L588 508L588 508L589 507L589 507L590 507L591 506L591 506L592 508L593 509L593 508L594 508L594 507L595 507L596 507L596 508L597 508L598 508L598 508L599 509L599 508L600 508L601 509L601 509L602 509L603 509L603 511L604 511L604 511L605 509L606 508L606 509L607 509L608 509L608 509L609 508L609 508L610 506L611 506L611 509L612 508L613 508L613 507L614 508L614 509L615 509L616 507L616 507L617 508L617 508L618 507L619 507L619 507L620 506L621 505L621 505L622 505L622 505L623 504L624 504L624 504L625 505L626 505L626 504L627 504L627 504L628 504L629 503L629 503L630 503L631 503L631 503L632 502L632 501L633 501L634 500L634 500L635 499L636 498L636 497L637 496L637 496L638 496L639 495L639 495L640 494L641 496L641 498L642 495L642 495L643 496L644 497L644 496L645 498L646 495L646 492L647 491L647 488L648 488L649 489L649 487L650 485L651 488L651 489L652 488L652 489L653 489L654 487L654 489L655 485L656 484L656 481L657 483L657 484L658 487L659 495L659 503L660 506L661 496L661 489L662 486L662 482L663 478L664 473L664 470L665 466L666 464L666 459L667 456L667 452L668 448L669 442L669 436L670 429L671 423L671 417L672 413L672 409L673 402L674 393L674 383L675 374L676 366L676 363L677 358L677 347L678 337L679 343L679 330L680 326L681 320L681 308L682 301L682 299L683 298L684 296L684 288L685 281L686 274L686 266L687 255L687 245L688 240L689 235L689 234L690 237L691 231L691 223L692 220L692 215L693 211L694 206L694 195L695 190L696 189L696 191L697 187L697 186L698 179L699 176L699 182L700 204L701 200L701 199L702 210L702 217L703 219L704 217" fill="none" stroke-width="1.5"></path></g><g class="key-Japan_0"><path stroke="#f6a324" stroke-linecap="round" d="M70 526L71 526L71 526L72 526L72 526L73 526L74 526L74 526L75 526L76 526L76 526L77 526L77 526L78 526L79 526L79 526L80 526L81 526L81 526L82 526L82 526L83 526L84 526L84 526L85 526L86 526L86 526L87 526L87 526L88 526L89 526L89 526L90 526L91 526L91 526L92 526L92 526L93 526L94 526L94 526L95 526L96 526L96 526L97 526L97 526L98 526L99 526L99 526L100 526L101 526L101 526L102 526L102 526L103 526L104 526L104 526L105 526L106 526L106 526L107 526L107 526L108 526L109 526L109 526L110 526L111 526L111 526L112 526L112 526L113 526L114 526L114 526L115 526L116 526L116 526L117 526L117 526L118 526L119 526L119 526L120 526L121 526L121 526L122 526L122 526L123 526L124 526L124 526L125 526L126 526L126 526L127 526L127 526L128 526L129 526L129 526L130 526L131 526L131 526L132 526L132 526L133 526L134 526L134 526L135 526L136 526L136 526L137 526L137 526L138 526L139 526L139 526L140 526L140 526L141 526L142 526L142 526L143 526L144 526L144 526L145 526L145 526L146 526L147 526L147 526L148 526L149 526L149 526L150 526L150 526L151 526L152 526L152 526L153 526L154 526L154 526L155 526L155 526L156 526L157 526L157 526L158 526L159 526L159 526L160 526L160 526L161 526L162 526L162 526L163 526L164 526L164 526L165 526L165 526L166 526L167 526L167 526L168 526L169 526L169 526L170 526L170 526L171 526L172 526L172 526L173 526L174 526L174 526L175 526L175 526L176 526L177 526L177 526L178 526L179 526L179 526L180 526L180 526L181 526L182 526L182 526L183 526L184 526L184 526L185 526L185 526L186 526L187 526L187 526L188 526L189 526L189 526L190 526L190 526L191 526L192 526L192 526L193 526L194 526L194 526L195 526L195 526L196 526L197 526L197 526L198 526L199 526L199 526L200 526L200 526L201 526L202 526L202 526L203 526L204 526L204 526L205 526L205 526L206 526L207 526L207 526L208 526L209 526L209 526L210 526L210 526L211 526L212 526L212 526L213 526L214 526L214 526L215 526L215 526L216 526L217 526L217 526L218 526L219 526L219 526L220 526L220 526L221 526L222 526L222 526L223 526L224 526L224 526L225 526L225 526L226 526L227 526L227 526L228 526L229 526L229 526L230 526L230 526L231 526L232 526L232 526L233 526L234 526L234 526L235 526L235 526L236 526L237 526L237 526L238 526L239 526L239 526L240 526L240 526L241 526L242 526L242 526L243 526L244 526L244 526L245 526L245 526L246 526L247 526L247 526L248 526L249 526L249 526L250 526L250 526L251 526L252 526L252 526L253 526L254 526L254 526L255 526L255 526L256 526L257 526L257 526L258 526L258 526L259 526L260 526L260 526L261 526L262 526L262 526L263 526L263 526L264 526L265 526L265 526L266 526L267 526L267 526L268 526L268 526L269 526L270 526L270 526L271 526L272 526L272 526L273 526L273 526L274 526L275 526L275 526L276 526L277 526L277 526L278 526L278 526L279 526L280 526L280 526L281 526L282 526L282 526L283 526L283 526L284 526L285 526L285 526L286 526L287 526L287 526L288 526L288 526L289 526L290 526L290 526L291 526L292 526L292 526L293 526L293 526L294 526L295 526L295 526L296 526L297 526L297 526L298 526L298 526L299 526L300 526L300 526L301 526L302 526L302 526L303 526L303 526L304 526L305 526L305 526L306 526L307 526L307 526L308 526L308 526L309 526L310 526L310 526L311 526L312 526L312 526L313 526L313 526L314 526L315 526L315 526L316 526L317 526L317 526L318 526L318 526L319 526L320 526L320 526L321 526L322 526L322 526L323 526L323 526L324 526L325 526L325 526L326 526L327 526L327 526L328 526L328 526L329 526L330 526L330 526L331 526L332 526L332 526L333 526L333 526L334 526L335 526L335 526L336 526L337 526L337 526L338 526L338 526L339 526L340 526L340 526L341 526L342 526L342 526L343 526L343 526L344 526L345 526L345 526L346 526L347 526L347 526L348 526L348 526L349 526L350 526L350 526L351 526L352 526L352 526L353 526L353 526L354 526L355 526L355 526L356 526L357 526L357 526L358 526L358 526L359 526L360 526L360 526L361 526L362 526L362 526L363 526L363 526L364 526L365 526L365 526L366 526L367 526L367 526L368 526L368 526L369 526L370 526L370 526L371 526L372 526L372 526L373 526L373 526L374 526L375 526L375 526L376 526L377 526L377 526L378 526L378 526L379 526L380 526L380 526L381 526L381 526L382 526L383 526L383 526L384 526L385 526L385 525L386 525L386 525L387 525L388 525L388 525L389 525L390 525L390 525L391 525L391 525L392 525L393 525L393 525L394 525L395 525L395 525L396 525L396 525L397 525L398 525L398 525L399 525L400 525L400 525L401 525L401 525L402 525L403 525L403 525L404 525L405 525L405 525L406 525L406 525L407 525L408 525L408 525L409 525L410 525L410 525L411 525L411 525L412 525L413 525L413 525L414 525L415 525L415 525L416 525L416 525L417 525L418 525L418 525L419 525L420 525L420 525L421 525L421 525L422 525L423 525L423 525L424 525L425 525L425 525L426 525L426 525L427 525L428 525L428 525L429 525L430 525L430 525L431 525L431 525L432 525L433 525L433 525L434 525L435 525L435 525L436 525L436 525L437 525L438 525L438 525L439 525L440 525L440 525L441 525L441 525L442 525L443 525L443 525L444 525L445 525L445 525L446 525L446 525L447 525L448 525L448 525L449 525L450 525L450 525L451 525L451 525L452 525L453 525L453 525L454 525L455 525L455 525L456 525L456 525L457 525L458 525L458 525L459 525L460 525L460 525L461 525L461 525L462 525L463 525L463 525L464 525L465 525L465 525L466 525L466 525L467 525L468 525L468 525L469 525L470 525L470 525L471 525L471 525L472 525L473 525L473 525L474 525L475 525L475 525L476 525L476 525L477 525L478 525L478 525L479 525L480 525L480 525L481 525L481 525L482 525L483 525L483 525L484 525L485 525L485 525L486 525L486 525L487 525L488 525L488 525L489 525L490 525L490 525L491 525L491 525L492 525L493 525L493 525L494 524L495 524L495 524L496 524L496 524L497 524L498 524L498 524L499 524L499 524L500 524L501 524L501 524L502 524L503 524L503 524L504 524L504 524L505 524L506 524L506 524L507 524L508 524L508 524L509 524L509 524L510 524L511 524L511 524L512 524L513 524L513 524L514 524L514 524L515 524L516 524L516 524L517 524L518 524L518 524L519 524L519 524L520 524L521 524L521 524L522 524L523 524L523 524L524 524L524 524L525 524L526 524L526 524L527 524L528 524L528 524L529 524L529 524L530 524L531 524L531 524L532 524L533 524L533 524L534 524L534 524L535 524L536 524L536 524L537 524L538 524L538 525L539 524L539 524L540 524L541 524L541 524L542 524L543 524L543 524L544 524L544 524L545 524L546 524L546 524L547 524L548 524L548 524L549 524L549 524L550 524L551 524L551 524L552 524L553 524L553 524L554 524L554 524L555 524L556 524L556 524L557 524L558 524L558 524L559 524L559 524L560 524L561 524L561 524L562 524L563 524L563 524L564 524L564 524L565 524L566 524L566 524L567 524L568 524L568 524L569 524L569 524L570 524L571 524L571 524L572 524L573 524L573 524L574 524L574 524L575 524L576 524L576 524L577 524L578 524L578 524L579 524L579 523L580 523L581 523L581 523L582 523L583 523L583 523L584 523L584 523L585 523L586 523L586 523L587 523L588 523L588 523L589 523L589 523L590 523L591 523L591 523L592 523L593 523L593 523L594 523L594 523L595 523L596 523L596 523L597 523L598 523L598 523L599 523L599 523L600 523L601 523L601 523L602 523L603 523L603 523L604 523L604 523L605 523L606 523L606 523L607 522L608 522L608 522L609 522L609 522L610 522L611 522L611 522L612 522L613 522L613 522L614 522L614 522L615 522L616 522L616 521L617 521L617 521L618 521L619 520L619 520L620 520L621 520L621 520L622 520L622 520L623 519L624 518L624 519L625 518L626 517L626 518L627 517L627 517L628 515L629 515L629 516L630 516L631 513L631 515L632 514L632 513L633 515L634 514L634 514L635 514L636 512L636 511L637 511L637 512L638 512L639 511L639 510L640 510L641 511L641 509L642 506L642 505L643 505L644 502L644 505L645 502L646 502L646 503L647 502L647 501L648 501L649 501L649 499L650 499L651 502L651 502L652 500L652 497L653 497L654 497L654 495L655 493L656 491L656 484L657 483L657 483L658 484L659 484L659 487L660 511L661 509L661 507L662 504L662 503L663 501L664 497L664 493L665 490L666 489L666 485L667 482L667 478L668 476L669 471L669 463L670 455L671 449L671 442L672 433L672 428L673 417L674 406L674 391L675 374L676 359L676 353L677 341L677 328L678 333L679 330L679 324L680 317L681 307L681 297L682 292L682 286L683 280L684 276L684 267L685 257L686 251L686 241L687 224L687 210L688 195L689 185L689 183L690 183L691 181L691 175L692 166L692 162L693 170L694 171L694 164L695 164L696 163L696 158L697 149L697 144L698 138L699 129L699 133L700 155L701 138L701 139L702 132L702 126L703 126L704 123" fill="none" stroke-width="1.5"></path></g><g class="key-United-Kingdom_0"><path stroke="#a652ba" stroke-linecap="round" d="M70 522L71 522L71 522L72 522L72 522L73 522L74 522L74 522L75 522L76 522L76 522L77 522L77 522L78 522L79 522L79 522L80 522L81 522L81 522L82 522L82 522L83 522L84 522L84 522L85 522L86 522L86 522L87 522L87 522L88 522L89 522L89 522L90 522L91 522L91 522L92 522L92 522L93 522L94 522L94 522L95 522L96 522L96 522L97 522L97 522L98 522L99 522L99 522L100 522L101 522L101 522L102 522L102 522L103 522L104 522L104 522L105 522L106 522L106 522L107 522L107 522L108 522L109 522L109 522L110 522L111 522L111 522L112 522L112 522L113 522L114 522L114 522L115 522L116 522L116 522L117 522L117 522L118 522L119 522L119 522L120 522L121 522L121 522L122 522L122 522L123 522L124 522L124 522L125 522L126 522L126 522L127 522L127 522L128 522L129 522L129 522L130 522L131 522L131 522L132 522L132 522L133 522L134 522L134 522L135 522L136 522L136 522L137 522L137 522L138 522L139 522L139 522L140 522L140 522L141 522L142 522L142 522L143 522L144 522L144 522L145 522L145 522L146 522L147 522L147 522L148 522L149 522L149 522L150 522L150 522L151 522L152 522L152 522L153 522L154 522L154 522L155 522L155 522L156 522L157 522L157 522L158 522L159 522L159 522L160 522L160 522L161 522L162 522L162 522L163 522L164 522L164 522L165 522L165 522L166 522L167 522L167 522L168 522L169 522L169 522L170 522L170 522L171 522L172 522L172 522L173 522L174 523L174 523L175 523L175 523L176 523L177 523L177 523L178 523L179 523L179 523L180 523L180 523L181 523L182 523L182 523L183 523L184 523L184 523L185 523L185 523L186 523L187 523L187 523L188 523L189 523L189 523L190 523L190 523L191 523L192 523L192 523L193 523L194 523L194 523L195 523L195 523L196 523L197 523L197 523L198 523L199 523L199 523L200 523L200 523L201 523L202 523L202 523L203 523L204 523L204 523L205 523L205 523L206 523L207 523L207 523L208 523L209 523L209 523L210 523L210 523L211 523L212 523L212 523L213 523L214 523L214 523L215 523L215 523L216 523L217 523L217 523L218 523L219 523L219 523L220 523L220 523L221 523L222 523L222 523L223 523L224 523L224 523L225 523L225 523L226 523L227 523L227 523L228 523L229 523L229 523L230 523L230 523L231 523L232 523L232 523L233 523L234 523L234 523L235 523L235 523L236 523L237 523L237 523L238 523L239 523L239 523L240 523L240 523L241 523L242 523L242 523L243 523L244 523L244 523L245 523L245 523L246 523L247 523L247 523L248 523L249 523L249 523L250 523L250 523L251 522L252 522L252 522L253 522L254 522L254 522L255 522L255 522L256 522L257 522L257 522L258 522L258 522L259 522L260 522L260 522L261 522L262 522L262 522L263 522L263 522L264 522L265 522L265 522L266 522L267 522L267 522L268 522L268 522L269 522L270 522L270 522L271 522L272 522L272 522L273 521L273 521L274 521L275 521L275 521L276 521L277 521L277 521L278 521L278 521L279 521L280 521L280 521L281 521L282 521L282 521L283 521L283 521L284 521L285 521L285 521L286 521L287 521L287 521L288 521L288 521L289 521L290 521L290 521L291 521L292 520L292 520L293 520L293 520L294 520L295 520L295 520L296 520L297 520L297 520L298 519L298 519L299 519L300 519L300 519L301 519L302 519L302 519L303 519L303 518L304 518L305 518L305 518L306 518L307 518L307 518L308 518L308 518L309 517L310 517L310 517L311 517L312 517L312 517L313 517L313 517L314 517L315 516L315 516L316 516L317 516L317 516L318 516L318 516L319 516L320 515L320 515L321 515L322 515L322 515L323 515L323 515L324 515L325 515L325 515L326 516L327 516L327 516L328 516L328 516L329 516L330 516L330 516L331 516L332 516L332 516L333 516L333 516L334 516L335 516L335 516L336 516L337 516L337 516L338 516L338 516L339 516L340 516L340 516L341 516L342 516L342 516L343 516L343 516L344 516L345 516L345 516L346 516L347 516L347 516L348 516L348 516L349 516L350 516L350 516L351 516L352 516L352 516L353 516L353 516L354 516L355 516L355 516L356 516L357 516L357 516L358 516L358 516L359 516L360 516L360 516L361 516L362 516L362 516L363 516L363 516L364 516L365 516L365 516L366 516L367 516L367 516L368 516L368 516L369 516L370 516L370 516L371 516L372 516L372 516L373 516L373 516L374 516L375 516L375 516L376 516L377 516L377 516L378 516L378 516L379 516L380 516L380 516L381 516L381 516L382 516L383 516L383 516L384 516L385 516L385 516L386 516L386 516L387 516L388 516L388 516L389 516L390 516L390 516L391 516L391 516L392 516L393 516L393 516L394 516L395 516L395 516L396 516L396 516L397 516L398 516L398 516L399 516L400 516L400 516L401 516L401 516L402 516L403 516L403 516L404 516L405 516L405 516L406 516L406 516L407 516L408 516L408 516L409 516L410 516L410 516L411 516L411 516L412 516L413 516L413 516L414 516L415 516L415 516L416 516L416 516L417 516L418 516L418 516L419 516L420 516L420 516L421 516L421 516L422 515L423 515L423 515L424 515L425 515L425 515L426 515L426 515L427 515L428 515L428 515L429 515L430 515L430 515L431 515L431 515L432 515L433 515L433 515L434 515L435 515L435 515L436 515L436 516L437 516L438 516L438 516L439 516L440 516L440 516L441 516L441 516L442 516L443 516L443 516L444 516L445 516L445 516L446 516L446 516L447 516L448 516L448 516L449 516L450 516L450 516L451 516L451 516L452 516L453 516L453 516L454 516L455 516L455 516L456 516L456 516L457 516L458 516L458 516L459 516L460 516L460 516L461 516L461 516L462 516L463 516L463 516L464 516L465 516L465 516L466 516L466 516L467 516L468 516L468 516L469 516L470 516L470 516L471 516L471 516L472 516L473 516L473 516L474 516L475 516L475 516L476 516L476 516L477 516L478 516L478 515L479 515L480 515L480 515L481 515L481 515L482 515L483 514L483 514L484 514L485 514L485 514L486 514L486 514L487 513L488 513L488 513L489 513L490 513L490 513L491 512L491 512L492 512L493 512L493 512L494 512L495 511L495 511L496 511L496 511L497 511L498 511L498 510L499 510L499 510L500 510L501 510L501 510L502 509L503 509L503 509L504 509L504 509L505 508L506 508L506 508L507 508L508 506L508 507L509 509L509 504L510 505L511 510L511 507L512 505L513 509L513 512L514 510L514 510L515 511L516 508L516 509L517 508L518 507L518 506L519 506L519 504L520 506L521 505L521 506L522 507L523 506L523 507L524 507L524 506L525 507L526 506L526 507L527 505L528 505L528 505L529 506L529 504L530 506L531 506L531 506L532 507L533 506L533 505L534 506L534 506L535 506L536 505L536 504L537 504L538 505L538 505L539 505L539 504L540 504L541 505L541 505L542 505L543 504L543 503L544 503L544 502L545 501L546 502L546 502L547 502L548 503L548 503L549 502L549 502L550 501L551 502L551 501L552 502L553 502L553 503L554 502L554 502L555 501L556 502L556 502L557 501L558 500L558 501L559 501L559 501L560 502L561 501L561 502L562 503L563 503L563 500L564 501L564 500L565 501L566 502L566 499L567 499L568 499L568 499L569 499L569 497L570 497L571 497L571 498L572 499L573 497L573 498L574 496L574 498L575 498L576 496L576 497L577 499L578 497L578 499L579 496L579 498L580 498L581 499L581 500L582 498L583 498L583 498L584 497L584 496L585 495L586 498L586 496L587 496L588 496L588 495L589 495L589 494L590 494L591 494L591 491L592 491L593 491L593 490L594 491L594 490L595 491L596 492L596 490L597 487L598 485L598 486L599 487L599 486L600 485L601 493L601 491L602 490L603 489L603 488L604 489L604 486L605 485L606 486L606 485L607 484L608 483L608 483L609 483L609 482L610 481L611 481L611 482L612 480L613 480L613 477L614 475L614 475L615 474L616 474L616 473L617 473L617 473L618 474L619 475L619 472L620 471L621 469L621 469L622 470L622 471L623 470L624 468L624 466L625 462L626 463L626 463L627 466L627 466L628 462L629 461L629 458L630 458L631 455L631 453L632 454L632 455L633 453L634 455L634 455L635 453L636 451L636 451L637 455L637 454L638 452L639 450L639 449L640 446L641 446L641 439L642 438L642 437L643 436L644 447L644 453L645 455L646 451L646 449L647 446L647 442L648 446L649 439L649 438L650 436L651 437L651 442L652 442L652 440L653 434L654 430L654 426L655 423L656 422L656 422L657 411L657 400L658 397L659 395L659 401L660 407L661 413L661 416L662 413L662 409L663 410L664 406L664 407L665 402L666 397L666 393L667 392L667 390L668 391L669 386L669 379L670 375L671 375L671 369L672 362L672 359L673 356L674 353L674 347L675 344L676 340L676 337L677 331L677 317L678 320L679 321L679 316L680 311L681 303L681 297L682 301L682 304L683 300L684 292L684 287L685 279L686 268L686 256L687 243L687 238L688 237L689 242L689 243L690 237L691 225L691 216L692 208L692 189L693 178L694 168L694 154L695 144L696 136L696 123L697 113L697 104L698 95L699 82L699 89L700 109L701 104L701 98L702 95L702 88L703 78L704 70" fill="none" stroke-width="1.5"></path></g></g></g></g><g style="fill: #777;" class="SourcesFooter"><g style="fill: #777;" class="clickable"><text font-size="12.60" x="15.0" y="581.6"><tspan x="15" y="581.58">Source: Bolt, J. and van Zanden, J. (2013.) and Broadberry, S. (2013.)</tspan></text></g><text font-size="12.60" x="649.0" y="581.6"><tspan x="649.024" y="581.58"><a target='_blank' style='fill: #777;' href='https://ourworldindata.org'>OurWorldInData.org</a> • <a style="fill: #777;" href="http://creativecommons.org/licenses/by-sa/4.0/deed.en_US" target="_blank">CC BY-SA</a></tspan></text></g></g></svg>